<?xml version="1.0" encoding="utf-8" standalone="no"?>
<!DOCTYPE svg PUBLIC "-//W3C//DTD SVG 1.1//EN"
  "http://www.w3.org/Graphics/SVG/1.1/DTD/svg11.dtd">
<!-- Created with matplotlib (http://matplotlib.org/) -->
<svg height="1008pt" version="1.1" viewBox="0 0 1008 1008" width="1008pt" xmlns="http://www.w3.org/2000/svg" xmlns:xlink="http://www.w3.org/1999/xlink">
 <defs>
  <style type="text/css">
*{stroke-linecap:butt;stroke-linejoin:round;}
  </style>
 </defs>
 <g id="figure_1">
  <g id="patch_1">
   <path d="M 0 1008 
L 1008 1008 
L 1008 0 
L 0 0 
z
" style="fill:#ffffff;"/>
  </g>
  <g id="axes_1">
   <g id="patch_2">
    <path d="M 126 897.12 
L 907.2 897.12 
L 907.2 120.96 
L 126 120.96 
z
" style="fill:#ffffff;"/>
   </g>
   <g id="PolyCollection_1">
    <defs>
     <path d="M 161.509091 -346.275703 
L 161.509091 -287.982772 
L 250.281818 -396.442918 
L 339.054545 -442.099389 
L 427.827273 -467.07202 
L 516.6 -500.190083 
L 605.372727 -562.424121 
L 694.145455 -595.934975 
L 782.918182 -657.066714 
L 871.690909 -871.821176 
L 871.690909 -871.821176 
L 871.690909 -871.821176 
L 782.918182 -733.160832 
L 694.145455 -656.810269 
L 605.372727 -623.299415 
L 516.6 -561.065377 
L 427.827273 -527.947314 
L 339.054545 -502.974683 
L 250.281818 -457.318212 
L 161.509091 -346.275703 
z
" id="mf5b3839e90" style="stroke:#539caf;stroke-opacity:0.4;"/>
    </defs>
    <g clip-path="url(#p3ab7a77aab)">
     <use style="fill:#539caf;fill-opacity:0.4;stroke:#539caf;stroke-opacity:0.4;" x="0" xlink:href="#mf5b3839e90" y="1008"/>
    </g>
   </g>
   <g id="PolyCollection_2">
    <defs>
     <path d="M 161.509091 -346.275703 
L 161.509091 -287.982772 
L 250.281818 -355.352095 
L 339.054545 -405.181183 
L 427.827273 -441.20002 
L 516.6 -474.318083 
L 605.372727 -536.552121 
L 694.145455 -585.281799 
L 782.918182 -661.632361 
L 871.690909 -871.821176 
L 871.690909 -871.821176 
L 871.690909 -871.821176 
L 782.918182 -739.248361 
L 694.145455 -662.897799 
L 605.372727 -614.168121 
L 516.6 -551.934083 
L 427.827273 -518.81602 
L 339.054545 -482.797183 
L 250.281818 -432.968095 
L 161.509091 -346.275703 
z
" id="mfecd7cfb87" style="stroke:#b65332;stroke-opacity:0.4;"/>
    </defs>
    <g clip-path="url(#p3ab7a77aab)">
     <use style="fill:#b65332;fill-opacity:0.4;stroke:#b65332;stroke-opacity:0.4;" x="0" xlink:href="#mfecd7cfb87" y="1008"/>
    </g>
   </g>
   <g id="PolyCollection_3">
    <defs>
     <path d="M 161.509091 -346.275703 
L 161.509091 -287.982772 
L 250.281818 -348.871536 
L 339.054545 -436.01186 
L 427.827273 -491.422138 
L 516.6 -539.759024 
L 605.372727 -601.993062 
L 694.145455 -635.503916 
L 782.918182 -727.073302 
L 871.690909 -871.821176 
L 871.690909 -871.821176 
L 871.690909 -871.821176 
L 782.918182 -783.382949 
L 694.145455 -691.813563 
L 605.372727 -658.302709 
L 516.6 -596.068671 
L 427.827273 -547.731785 
L 339.054545 -492.321507 
L 250.281818 -404.243821 
L 161.509091 -346.275703 
z
" id="mcb4f2f1c4e" style="stroke:#866bfa;stroke-opacity:0.4;"/>
    </defs>
    <g clip-path="url(#p3ab7a77aab)">
     <use style="fill:#866bfa;fill-opacity:0.4;stroke:#866bfa;stroke-opacity:0.4;" x="0" xlink:href="#mcb4f2f1c4e" y="1008"/>
    </g>
   </g>
   <g id="matplotlib.axis_1">
    <g id="xtick_1">
     <g id="line2d_1">
      <defs>
       <path d="M 0 0 
L 0 3.5 
" id="ma24eefcc87" style="stroke:#000000;stroke-width:0.8;"/>
      </defs>
      <g>
       <use style="stroke:#000000;stroke-width:0.8;" x="161.509091" xlink:href="#ma24eefcc87" y="897.12"/>
      </g>
     </g>
     <g id="text_1">
      <!-- 0 -->
      <defs>
       <path d="M 31.78125 66.40625 
Q 24.171875 66.40625 20.328125 58.90625 
Q 16.5 51.421875 16.5 36.375 
Q 16.5 21.390625 20.328125 13.890625 
Q 24.171875 6.390625 31.78125 6.390625 
Q 39.453125 6.390625 43.28125 13.890625 
Q 47.125 21.390625 47.125 36.375 
Q 47.125 51.421875 43.28125 58.90625 
Q 39.453125 66.40625 31.78125 66.40625 
z
M 31.78125 74.21875 
Q 44.046875 74.21875 50.515625 64.515625 
Q 56.984375 54.828125 56.984375 36.375 
Q 56.984375 17.96875 50.515625 8.265625 
Q 44.046875 -1.421875 31.78125 -1.421875 
Q 19.53125 -1.421875 13.0625 8.265625 
Q 6.59375 17.96875 6.59375 36.375 
Q 6.59375 54.828125 13.0625 64.515625 
Q 19.53125 74.21875 31.78125 74.21875 
z
" id="DejaVuSans-30"/>
      </defs>
      <g transform="translate(155.782841 917.797188)scale(0.18 -0.18)">
       <use xlink:href="#DejaVuSans-30"/>
      </g>
     </g>
    </g>
    <g id="xtick_2">
     <g id="line2d_2">
      <g>
       <use style="stroke:#000000;stroke-width:0.8;" x="250.281818" xlink:href="#ma24eefcc87" y="897.12"/>
      </g>
     </g>
     <g id="text_2">
      <!-- 50 -->
      <defs>
       <path d="M 10.796875 72.90625 
L 49.515625 72.90625 
L 49.515625 64.59375 
L 19.828125 64.59375 
L 19.828125 46.734375 
Q 21.96875 47.46875 24.109375 47.828125 
Q 26.265625 48.1875 28.421875 48.1875 
Q 40.625 48.1875 47.75 41.5 
Q 54.890625 34.8125 54.890625 23.390625 
Q 54.890625 11.625 47.5625 5.09375 
Q 40.234375 -1.421875 26.90625 -1.421875 
Q 22.3125 -1.421875 17.546875 -0.640625 
Q 12.796875 0.140625 7.71875 1.703125 
L 7.71875 11.625 
Q 12.109375 9.234375 16.796875 8.0625 
Q 21.484375 6.890625 26.703125 6.890625 
Q 35.15625 6.890625 40.078125 11.328125 
Q 45.015625 15.765625 45.015625 23.390625 
Q 45.015625 31 40.078125 35.4375 
Q 35.15625 39.890625 26.703125 39.890625 
Q 22.75 39.890625 18.8125 39.015625 
Q 14.890625 38.140625 10.796875 36.28125 
z
" id="DejaVuSans-35"/>
      </defs>
      <g transform="translate(238.829318 917.797188)scale(0.18 -0.18)">
       <use xlink:href="#DejaVuSans-35"/>
       <use x="63.623047" xlink:href="#DejaVuSans-30"/>
      </g>
     </g>
    </g>
    <g id="xtick_3">
     <g id="line2d_3">
      <g>
       <use style="stroke:#000000;stroke-width:0.8;" x="339.054545" xlink:href="#ma24eefcc87" y="897.12"/>
      </g>
     </g>
     <g id="text_3">
      <!-- 100 -->
      <defs>
       <path d="M 12.40625 8.296875 
L 28.515625 8.296875 
L 28.515625 63.921875 
L 10.984375 60.40625 
L 10.984375 69.390625 
L 28.421875 72.90625 
L 38.28125 72.90625 
L 38.28125 8.296875 
L 54.390625 8.296875 
L 54.390625 0 
L 12.40625 0 
z
" id="DejaVuSans-31"/>
      </defs>
      <g transform="translate(321.875795 917.797188)scale(0.18 -0.18)">
       <use xlink:href="#DejaVuSans-31"/>
       <use x="63.623047" xlink:href="#DejaVuSans-30"/>
       <use x="127.246094" xlink:href="#DejaVuSans-30"/>
      </g>
     </g>
    </g>
    <g id="xtick_4">
     <g id="line2d_4">
      <g>
       <use style="stroke:#000000;stroke-width:0.8;" x="427.827273" xlink:href="#ma24eefcc87" y="897.12"/>
      </g>
     </g>
     <g id="text_4">
      <!-- 180 -->
      <defs>
       <path d="M 31.78125 34.625 
Q 24.75 34.625 20.71875 30.859375 
Q 16.703125 27.09375 16.703125 20.515625 
Q 16.703125 13.921875 20.71875 10.15625 
Q 24.75 6.390625 31.78125 6.390625 
Q 38.8125 6.390625 42.859375 10.171875 
Q 46.921875 13.96875 46.921875 20.515625 
Q 46.921875 27.09375 42.890625 30.859375 
Q 38.875 34.625 31.78125 34.625 
z
M 21.921875 38.8125 
Q 15.578125 40.375 12.03125 44.71875 
Q 8.5 49.078125 8.5 55.328125 
Q 8.5 64.0625 14.71875 69.140625 
Q 20.953125 74.21875 31.78125 74.21875 
Q 42.671875 74.21875 48.875 69.140625 
Q 55.078125 64.0625 55.078125 55.328125 
Q 55.078125 49.078125 51.53125 44.71875 
Q 48 40.375 41.703125 38.8125 
Q 48.828125 37.15625 52.796875 32.3125 
Q 56.78125 27.484375 56.78125 20.515625 
Q 56.78125 9.90625 50.3125 4.234375 
Q 43.84375 -1.421875 31.78125 -1.421875 
Q 19.734375 -1.421875 13.25 4.234375 
Q 6.78125 9.90625 6.78125 20.515625 
Q 6.78125 27.484375 10.78125 32.3125 
Q 14.796875 37.15625 21.921875 38.8125 
z
M 18.3125 54.390625 
Q 18.3125 48.734375 21.84375 45.5625 
Q 25.390625 42.390625 31.78125 42.390625 
Q 38.140625 42.390625 41.71875 45.5625 
Q 45.3125 48.734375 45.3125 54.390625 
Q 45.3125 60.0625 41.71875 63.234375 
Q 38.140625 66.40625 31.78125 66.40625 
Q 25.390625 66.40625 21.84375 63.234375 
Q 18.3125 60.0625 18.3125 54.390625 
z
" id="DejaVuSans-38"/>
      </defs>
      <g transform="translate(410.648523 917.797188)scale(0.18 -0.18)">
       <use xlink:href="#DejaVuSans-31"/>
       <use x="63.623047" xlink:href="#DejaVuSans-38"/>
       <use x="127.246094" xlink:href="#DejaVuSans-30"/>
      </g>
     </g>
    </g>
    <g id="xtick_5">
     <g id="line2d_5">
      <g>
       <use style="stroke:#000000;stroke-width:0.8;" x="516.6" xlink:href="#ma24eefcc87" y="897.12"/>
      </g>
     </g>
     <g id="text_5">
      <!-- 358 -->
      <defs>
       <path d="M 40.578125 39.3125 
Q 47.65625 37.796875 51.625 33 
Q 55.609375 28.21875 55.609375 21.1875 
Q 55.609375 10.40625 48.1875 4.484375 
Q 40.765625 -1.421875 27.09375 -1.421875 
Q 22.515625 -1.421875 17.65625 -0.515625 
Q 12.796875 0.390625 7.625 2.203125 
L 7.625 11.71875 
Q 11.71875 9.328125 16.59375 8.109375 
Q 21.484375 6.890625 26.8125 6.890625 
Q 36.078125 6.890625 40.9375 10.546875 
Q 45.796875 14.203125 45.796875 21.1875 
Q 45.796875 27.640625 41.28125 31.265625 
Q 36.765625 34.90625 28.71875 34.90625 
L 20.21875 34.90625 
L 20.21875 43.015625 
L 29.109375 43.015625 
Q 36.375 43.015625 40.234375 45.921875 
Q 44.09375 48.828125 44.09375 54.296875 
Q 44.09375 59.90625 40.109375 62.90625 
Q 36.140625 65.921875 28.71875 65.921875 
Q 24.65625 65.921875 20.015625 65.03125 
Q 15.375 64.15625 9.8125 62.3125 
L 9.8125 71.09375 
Q 15.4375 72.65625 20.34375 73.4375 
Q 25.25 74.21875 29.59375 74.21875 
Q 40.828125 74.21875 47.359375 69.109375 
Q 53.90625 64.015625 53.90625 55.328125 
Q 53.90625 49.265625 50.4375 45.09375 
Q 46.96875 40.921875 40.578125 39.3125 
z
" id="DejaVuSans-33"/>
      </defs>
      <g transform="translate(499.42125 917.797188)scale(0.18 -0.18)">
       <use xlink:href="#DejaVuSans-33"/>
       <use x="63.623047" xlink:href="#DejaVuSans-35"/>
       <use x="127.246094" xlink:href="#DejaVuSans-38"/>
      </g>
     </g>
    </g>
    <g id="xtick_6">
     <g id="line2d_6">
      <g>
       <use style="stroke:#000000;stroke-width:0.8;" x="605.372727" xlink:href="#ma24eefcc87" y="897.12"/>
      </g>
     </g>
     <g id="text_6">
      <!-- 538 -->
      <g transform="translate(588.193977 917.797188)scale(0.18 -0.18)">
       <use xlink:href="#DejaVuSans-35"/>
       <use x="63.623047" xlink:href="#DejaVuSans-33"/>
       <use x="127.246094" xlink:href="#DejaVuSans-38"/>
      </g>
     </g>
    </g>
    <g id="xtick_7">
     <g id="line2d_7">
      <g>
       <use style="stroke:#000000;stroke-width:0.8;" x="694.145455" xlink:href="#ma24eefcc87" y="897.12"/>
      </g>
     </g>
     <g id="text_7">
      <!-- 718 -->
      <defs>
       <path d="M 8.203125 72.90625 
L 55.078125 72.90625 
L 55.078125 68.703125 
L 28.609375 0 
L 18.3125 0 
L 43.21875 64.59375 
L 8.203125 64.59375 
z
" id="DejaVuSans-37"/>
      </defs>
      <g transform="translate(676.966705 917.797188)scale(0.18 -0.18)">
       <use xlink:href="#DejaVuSans-37"/>
       <use x="63.623047" xlink:href="#DejaVuSans-31"/>
       <use x="127.246094" xlink:href="#DejaVuSans-38"/>
      </g>
     </g>
    </g>
    <g id="xtick_8">
     <g id="line2d_8">
      <g>
       <use style="stroke:#000000;stroke-width:0.8;" x="782.918182" xlink:href="#ma24eefcc87" y="897.12"/>
      </g>
     </g>
     <g id="text_8">
      <!-- 896 -->
      <defs>
       <path d="M 10.984375 1.515625 
L 10.984375 10.5 
Q 14.703125 8.734375 18.5 7.8125 
Q 22.3125 6.890625 25.984375 6.890625 
Q 35.75 6.890625 40.890625 13.453125 
Q 46.046875 20.015625 46.78125 33.40625 
Q 43.953125 29.203125 39.59375 26.953125 
Q 35.25 24.703125 29.984375 24.703125 
Q 19.046875 24.703125 12.671875 31.3125 
Q 6.296875 37.9375 6.296875 49.421875 
Q 6.296875 60.640625 12.9375 67.421875 
Q 19.578125 74.21875 30.609375 74.21875 
Q 43.265625 74.21875 49.921875 64.515625 
Q 56.59375 54.828125 56.59375 36.375 
Q 56.59375 19.140625 48.40625 8.859375 
Q 40.234375 -1.421875 26.421875 -1.421875 
Q 22.703125 -1.421875 18.890625 -0.6875 
Q 15.09375 0.046875 10.984375 1.515625 
z
M 30.609375 32.421875 
Q 37.25 32.421875 41.125 36.953125 
Q 45.015625 41.5 45.015625 49.421875 
Q 45.015625 57.28125 41.125 61.84375 
Q 37.25 66.40625 30.609375 66.40625 
Q 23.96875 66.40625 20.09375 61.84375 
Q 16.21875 57.28125 16.21875 49.421875 
Q 16.21875 41.5 20.09375 36.953125 
Q 23.96875 32.421875 30.609375 32.421875 
z
" id="DejaVuSans-39"/>
       <path d="M 33.015625 40.375 
Q 26.375 40.375 22.484375 35.828125 
Q 18.609375 31.296875 18.609375 23.390625 
Q 18.609375 15.53125 22.484375 10.953125 
Q 26.375 6.390625 33.015625 6.390625 
Q 39.65625 6.390625 43.53125 10.953125 
Q 47.40625 15.53125 47.40625 23.390625 
Q 47.40625 31.296875 43.53125 35.828125 
Q 39.65625 40.375 33.015625 40.375 
z
M 52.59375 71.296875 
L 52.59375 62.3125 
Q 48.875 64.0625 45.09375 64.984375 
Q 41.3125 65.921875 37.59375 65.921875 
Q 27.828125 65.921875 22.671875 59.328125 
Q 17.53125 52.734375 16.796875 39.40625 
Q 19.671875 43.65625 24.015625 45.921875 
Q 28.375 48.1875 33.59375 48.1875 
Q 44.578125 48.1875 50.953125 41.515625 
Q 57.328125 34.859375 57.328125 23.390625 
Q 57.328125 12.15625 50.6875 5.359375 
Q 44.046875 -1.421875 33.015625 -1.421875 
Q 20.359375 -1.421875 13.671875 8.265625 
Q 6.984375 17.96875 6.984375 36.375 
Q 6.984375 53.65625 15.1875 63.9375 
Q 23.390625 74.21875 37.203125 74.21875 
Q 40.921875 74.21875 44.703125 73.484375 
Q 48.484375 72.75 52.59375 71.296875 
z
" id="DejaVuSans-36"/>
      </defs>
      <g transform="translate(765.739432 917.797188)scale(0.18 -0.18)">
       <use xlink:href="#DejaVuSans-38"/>
       <use x="63.623047" xlink:href="#DejaVuSans-39"/>
       <use x="127.246094" xlink:href="#DejaVuSans-36"/>
      </g>
     </g>
    </g>
    <g id="xtick_9">
     <g id="line2d_9">
      <g>
       <use style="stroke:#000000;stroke-width:0.8;" x="871.690909" xlink:href="#ma24eefcc87" y="897.12"/>
      </g>
     </g>
     <g id="text_9">
      <!-- 1076 -->
      <g transform="translate(848.785909 917.797188)scale(0.18 -0.18)">
       <use xlink:href="#DejaVuSans-31"/>
       <use x="63.623047" xlink:href="#DejaVuSans-30"/>
       <use x="127.246094" xlink:href="#DejaVuSans-37"/>
       <use x="190.869141" xlink:href="#DejaVuSans-36"/>
      </g>
     </g>
    </g>
    <g id="text_10">
     <!-- number of imputed cells -->
     <defs>
      <path d="M 54.890625 33.015625 
L 54.890625 0 
L 45.90625 0 
L 45.90625 32.71875 
Q 45.90625 40.484375 42.875 44.328125 
Q 39.84375 48.1875 33.796875 48.1875 
Q 26.515625 48.1875 22.3125 43.546875 
Q 18.109375 38.921875 18.109375 30.90625 
L 18.109375 0 
L 9.078125 0 
L 9.078125 54.6875 
L 18.109375 54.6875 
L 18.109375 46.1875 
Q 21.34375 51.125 25.703125 53.5625 
Q 30.078125 56 35.796875 56 
Q 45.21875 56 50.046875 50.171875 
Q 54.890625 44.34375 54.890625 33.015625 
z
" id="DejaVuSans-6e"/>
      <path d="M 8.5 21.578125 
L 8.5 54.6875 
L 17.484375 54.6875 
L 17.484375 21.921875 
Q 17.484375 14.15625 20.5 10.265625 
Q 23.53125 6.390625 29.59375 6.390625 
Q 36.859375 6.390625 41.078125 11.03125 
Q 45.3125 15.671875 45.3125 23.6875 
L 45.3125 54.6875 
L 54.296875 54.6875 
L 54.296875 0 
L 45.3125 0 
L 45.3125 8.40625 
Q 42.046875 3.421875 37.71875 1 
Q 33.40625 -1.421875 27.6875 -1.421875 
Q 18.265625 -1.421875 13.375 4.4375 
Q 8.5 10.296875 8.5 21.578125 
z
M 31.109375 56 
z
" id="DejaVuSans-75"/>
      <path d="M 52 44.1875 
Q 55.375 50.25 60.0625 53.125 
Q 64.75 56 71.09375 56 
Q 79.640625 56 84.28125 50.015625 
Q 88.921875 44.046875 88.921875 33.015625 
L 88.921875 0 
L 79.890625 0 
L 79.890625 32.71875 
Q 79.890625 40.578125 77.09375 44.375 
Q 74.3125 48.1875 68.609375 48.1875 
Q 61.625 48.1875 57.5625 43.546875 
Q 53.515625 38.921875 53.515625 30.90625 
L 53.515625 0 
L 44.484375 0 
L 44.484375 32.71875 
Q 44.484375 40.625 41.703125 44.40625 
Q 38.921875 48.1875 33.109375 48.1875 
Q 26.21875 48.1875 22.15625 43.53125 
Q 18.109375 38.875 18.109375 30.90625 
L 18.109375 0 
L 9.078125 0 
L 9.078125 54.6875 
L 18.109375 54.6875 
L 18.109375 46.1875 
Q 21.1875 51.21875 25.484375 53.609375 
Q 29.78125 56 35.6875 56 
Q 41.65625 56 45.828125 52.96875 
Q 50 49.953125 52 44.1875 
z
" id="DejaVuSans-6d"/>
      <path d="M 48.6875 27.296875 
Q 48.6875 37.203125 44.609375 42.84375 
Q 40.53125 48.484375 33.40625 48.484375 
Q 26.265625 48.484375 22.1875 42.84375 
Q 18.109375 37.203125 18.109375 27.296875 
Q 18.109375 17.390625 22.1875 11.75 
Q 26.265625 6.109375 33.40625 6.109375 
Q 40.53125 6.109375 44.609375 11.75 
Q 48.6875 17.390625 48.6875 27.296875 
z
M 18.109375 46.390625 
Q 20.953125 51.265625 25.265625 53.625 
Q 29.59375 56 35.59375 56 
Q 45.5625 56 51.78125 48.09375 
Q 58.015625 40.1875 58.015625 27.296875 
Q 58.015625 14.40625 51.78125 6.484375 
Q 45.5625 -1.421875 35.59375 -1.421875 
Q 29.59375 -1.421875 25.265625 0.953125 
Q 20.953125 3.328125 18.109375 8.203125 
L 18.109375 0 
L 9.078125 0 
L 9.078125 75.984375 
L 18.109375 75.984375 
z
" id="DejaVuSans-62"/>
      <path d="M 56.203125 29.59375 
L 56.203125 25.203125 
L 14.890625 25.203125 
Q 15.484375 15.921875 20.484375 11.0625 
Q 25.484375 6.203125 34.421875 6.203125 
Q 39.59375 6.203125 44.453125 7.46875 
Q 49.3125 8.734375 54.109375 11.28125 
L 54.109375 2.78125 
Q 49.265625 0.734375 44.1875 -0.34375 
Q 39.109375 -1.421875 33.890625 -1.421875 
Q 20.796875 -1.421875 13.15625 6.1875 
Q 5.515625 13.8125 5.515625 26.8125 
Q 5.515625 40.234375 12.765625 48.109375 
Q 20.015625 56 32.328125 56 
Q 43.359375 56 49.78125 48.890625 
Q 56.203125 41.796875 56.203125 29.59375 
z
M 47.21875 32.234375 
Q 47.125 39.59375 43.09375 43.984375 
Q 39.0625 48.390625 32.421875 48.390625 
Q 24.90625 48.390625 20.390625 44.140625 
Q 15.875 39.890625 15.1875 32.171875 
z
" id="DejaVuSans-65"/>
      <path d="M 41.109375 46.296875 
Q 39.59375 47.171875 37.8125 47.578125 
Q 36.03125 48 33.890625 48 
Q 26.265625 48 22.1875 43.046875 
Q 18.109375 38.09375 18.109375 28.8125 
L 18.109375 0 
L 9.078125 0 
L 9.078125 54.6875 
L 18.109375 54.6875 
L 18.109375 46.1875 
Q 20.953125 51.171875 25.484375 53.578125 
Q 30.03125 56 36.53125 56 
Q 37.453125 56 38.578125 55.875 
Q 39.703125 55.765625 41.0625 55.515625 
z
" id="DejaVuSans-72"/>
      <path id="DejaVuSans-20"/>
      <path d="M 30.609375 48.390625 
Q 23.390625 48.390625 19.1875 42.75 
Q 14.984375 37.109375 14.984375 27.296875 
Q 14.984375 17.484375 19.15625 11.84375 
Q 23.34375 6.203125 30.609375 6.203125 
Q 37.796875 6.203125 41.984375 11.859375 
Q 46.1875 17.53125 46.1875 27.296875 
Q 46.1875 37.015625 41.984375 42.703125 
Q 37.796875 48.390625 30.609375 48.390625 
z
M 30.609375 56 
Q 42.328125 56 49.015625 48.375 
Q 55.71875 40.765625 55.71875 27.296875 
Q 55.71875 13.875 49.015625 6.21875 
Q 42.328125 -1.421875 30.609375 -1.421875 
Q 18.84375 -1.421875 12.171875 6.21875 
Q 5.515625 13.875 5.515625 27.296875 
Q 5.515625 40.765625 12.171875 48.375 
Q 18.84375 56 30.609375 56 
z
" id="DejaVuSans-6f"/>
      <path d="M 37.109375 75.984375 
L 37.109375 68.5 
L 28.515625 68.5 
Q 23.6875 68.5 21.796875 66.546875 
Q 19.921875 64.59375 19.921875 59.515625 
L 19.921875 54.6875 
L 34.71875 54.6875 
L 34.71875 47.703125 
L 19.921875 47.703125 
L 19.921875 0 
L 10.890625 0 
L 10.890625 47.703125 
L 2.296875 47.703125 
L 2.296875 54.6875 
L 10.890625 54.6875 
L 10.890625 58.5 
Q 10.890625 67.625 15.140625 71.796875 
Q 19.390625 75.984375 28.609375 75.984375 
z
" id="DejaVuSans-66"/>
      <path d="M 9.421875 54.6875 
L 18.40625 54.6875 
L 18.40625 0 
L 9.421875 0 
z
M 9.421875 75.984375 
L 18.40625 75.984375 
L 18.40625 64.59375 
L 9.421875 64.59375 
z
" id="DejaVuSans-69"/>
      <path d="M 18.109375 8.203125 
L 18.109375 -20.796875 
L 9.078125 -20.796875 
L 9.078125 54.6875 
L 18.109375 54.6875 
L 18.109375 46.390625 
Q 20.953125 51.265625 25.265625 53.625 
Q 29.59375 56 35.59375 56 
Q 45.5625 56 51.78125 48.09375 
Q 58.015625 40.1875 58.015625 27.296875 
Q 58.015625 14.40625 51.78125 6.484375 
Q 45.5625 -1.421875 35.59375 -1.421875 
Q 29.59375 -1.421875 25.265625 0.953125 
Q 20.953125 3.328125 18.109375 8.203125 
z
M 48.6875 27.296875 
Q 48.6875 37.203125 44.609375 42.84375 
Q 40.53125 48.484375 33.40625 48.484375 
Q 26.265625 48.484375 22.1875 42.84375 
Q 18.109375 37.203125 18.109375 27.296875 
Q 18.109375 17.390625 22.1875 11.75 
Q 26.265625 6.109375 33.40625 6.109375 
Q 40.53125 6.109375 44.609375 11.75 
Q 48.6875 17.390625 48.6875 27.296875 
z
" id="DejaVuSans-70"/>
      <path d="M 18.3125 70.21875 
L 18.3125 54.6875 
L 36.8125 54.6875 
L 36.8125 47.703125 
L 18.3125 47.703125 
L 18.3125 18.015625 
Q 18.3125 11.328125 20.140625 9.421875 
Q 21.96875 7.515625 27.59375 7.515625 
L 36.8125 7.515625 
L 36.8125 0 
L 27.59375 0 
Q 17.1875 0 13.234375 3.875 
Q 9.28125 7.765625 9.28125 18.015625 
L 9.28125 47.703125 
L 2.6875 47.703125 
L 2.6875 54.6875 
L 9.28125 54.6875 
L 9.28125 70.21875 
z
" id="DejaVuSans-74"/>
      <path d="M 45.40625 46.390625 
L 45.40625 75.984375 
L 54.390625 75.984375 
L 54.390625 0 
L 45.40625 0 
L 45.40625 8.203125 
Q 42.578125 3.328125 38.25 0.953125 
Q 33.9375 -1.421875 27.875 -1.421875 
Q 17.96875 -1.421875 11.734375 6.484375 
Q 5.515625 14.40625 5.515625 27.296875 
Q 5.515625 40.1875 11.734375 48.09375 
Q 17.96875 56 27.875 56 
Q 33.9375 56 38.25 53.625 
Q 42.578125 51.265625 45.40625 46.390625 
z
M 14.796875 27.296875 
Q 14.796875 17.390625 18.875 11.75 
Q 22.953125 6.109375 30.078125 6.109375 
Q 37.203125 6.109375 41.296875 11.75 
Q 45.40625 17.390625 45.40625 27.296875 
Q 45.40625 37.203125 41.296875 42.84375 
Q 37.203125 48.484375 30.078125 48.484375 
Q 22.953125 48.484375 18.875 42.84375 
Q 14.796875 37.203125 14.796875 27.296875 
z
" id="DejaVuSans-64"/>
      <path d="M 48.78125 52.59375 
L 48.78125 44.1875 
Q 44.96875 46.296875 41.140625 47.34375 
Q 37.3125 48.390625 33.40625 48.390625 
Q 24.65625 48.390625 19.8125 42.84375 
Q 14.984375 37.3125 14.984375 27.296875 
Q 14.984375 17.28125 19.8125 11.734375 
Q 24.65625 6.203125 33.40625 6.203125 
Q 37.3125 6.203125 41.140625 7.25 
Q 44.96875 8.296875 48.78125 10.40625 
L 48.78125 2.09375 
Q 45.015625 0.34375 40.984375 -0.53125 
Q 36.96875 -1.421875 32.421875 -1.421875 
Q 20.0625 -1.421875 12.78125 6.34375 
Q 5.515625 14.109375 5.515625 27.296875 
Q 5.515625 40.671875 12.859375 48.328125 
Q 20.21875 56 33.015625 56 
Q 37.15625 56 41.109375 55.140625 
Q 45.0625 54.296875 48.78125 52.59375 
z
" id="DejaVuSans-63"/>
      <path d="M 9.421875 75.984375 
L 18.40625 75.984375 
L 18.40625 0 
L 9.421875 0 
z
" id="DejaVuSans-6c"/>
      <path d="M 44.28125 53.078125 
L 44.28125 44.578125 
Q 40.484375 46.53125 36.375 47.5 
Q 32.28125 48.484375 27.875 48.484375 
Q 21.1875 48.484375 17.84375 46.4375 
Q 14.5 44.390625 14.5 40.28125 
Q 14.5 37.15625 16.890625 35.375 
Q 19.28125 33.59375 26.515625 31.984375 
L 29.59375 31.296875 
Q 39.15625 29.25 43.1875 25.515625 
Q 47.21875 21.78125 47.21875 15.09375 
Q 47.21875 7.46875 41.1875 3.015625 
Q 35.15625 -1.421875 24.609375 -1.421875 
Q 20.21875 -1.421875 15.453125 -0.5625 
Q 10.6875 0.296875 5.421875 2 
L 5.421875 11.28125 
Q 10.40625 8.6875 15.234375 7.390625 
Q 20.0625 6.109375 24.8125 6.109375 
Q 31.15625 6.109375 34.5625 8.28125 
Q 37.984375 10.453125 37.984375 14.40625 
Q 37.984375 18.0625 35.515625 20.015625 
Q 33.0625 21.96875 24.703125 23.78125 
L 21.578125 24.515625 
Q 13.234375 26.265625 9.515625 29.90625 
Q 5.8125 33.546875 5.8125 39.890625 
Q 5.8125 47.609375 11.28125 51.796875 
Q 16.75 56 26.8125 56 
Q 31.78125 56 36.171875 55.265625 
Q 40.578125 54.546875 44.28125 53.078125 
z
" id="DejaVuSans-73"/>
     </defs>
     <g transform="translate(363.793359 944.536719)scale(0.25 -0.25)">
      <use xlink:href="#DejaVuSans-6e"/>
      <use x="63.378906" xlink:href="#DejaVuSans-75"/>
      <use x="126.757812" xlink:href="#DejaVuSans-6d"/>
      <use x="224.169922" xlink:href="#DejaVuSans-62"/>
      <use x="287.646484" xlink:href="#DejaVuSans-65"/>
      <use x="349.169922" xlink:href="#DejaVuSans-72"/>
      <use x="390.283203" xlink:href="#DejaVuSans-20"/>
      <use x="422.070312" xlink:href="#DejaVuSans-6f"/>
      <use x="483.251953" xlink:href="#DejaVuSans-66"/>
      <use x="518.457031" xlink:href="#DejaVuSans-20"/>
      <use x="550.244141" xlink:href="#DejaVuSans-69"/>
      <use x="578.027344" xlink:href="#DejaVuSans-6d"/>
      <use x="675.439453" xlink:href="#DejaVuSans-70"/>
      <use x="738.916016" xlink:href="#DejaVuSans-75"/>
      <use x="802.294922" xlink:href="#DejaVuSans-74"/>
      <use x="841.503906" xlink:href="#DejaVuSans-65"/>
      <use x="903.027344" xlink:href="#DejaVuSans-64"/>
      <use x="966.503906" xlink:href="#DejaVuSans-20"/>
      <use x="998.291016" xlink:href="#DejaVuSans-63"/>
      <use x="1053.271484" xlink:href="#DejaVuSans-65"/>
      <use x="1114.794922" xlink:href="#DejaVuSans-6c"/>
      <use x="1142.578125" xlink:href="#DejaVuSans-6c"/>
      <use x="1170.361328" xlink:href="#DejaVuSans-73"/>
     </g>
    </g>
   </g>
   <g id="matplotlib.axis_2">
    <g id="ytick_1">
     <g id="line2d_10">
      <defs>
       <path d="M 0 0 
L -3.5 0 
" id="m25cbc87852" style="stroke:#000000;stroke-width:0.8;"/>
      </defs>
      <g>
       <use style="stroke:#000000;stroke-width:0.8;" x="126" xlink:href="#m25cbc87852" y="897.12"/>
      </g>
     </g>
     <g id="text_11">
      <!-- 0.5 -->
      <defs>
       <path d="M 10.6875 12.40625 
L 21 12.40625 
L 21 0 
L 10.6875 0 
z
" id="DejaVuSans-2e"/>
      </defs>
      <g transform="translate(79.242188 906.618047)scale(0.25 -0.25)">
       <use xlink:href="#DejaVuSans-30"/>
       <use x="63.623047" xlink:href="#DejaVuSans-2e"/>
       <use x="95.410156" xlink:href="#DejaVuSans-35"/>
      </g>
     </g>
    </g>
    <g id="ytick_2">
     <g id="line2d_11">
      <g>
       <use style="stroke:#000000;stroke-width:0.8;" x="126" xlink:href="#m25cbc87852" y="744.931765"/>
      </g>
     </g>
     <g id="text_12">
      <!-- 0.6 -->
      <g transform="translate(79.242188 754.429812)scale(0.25 -0.25)">
       <use xlink:href="#DejaVuSans-30"/>
       <use x="63.623047" xlink:href="#DejaVuSans-2e"/>
       <use x="95.410156" xlink:href="#DejaVuSans-36"/>
      </g>
     </g>
    </g>
    <g id="ytick_3">
     <g id="line2d_12">
      <g>
       <use style="stroke:#000000;stroke-width:0.8;" x="126" xlink:href="#m25cbc87852" y="592.743529"/>
      </g>
     </g>
     <g id="text_13">
      <!-- 0.7 -->
      <g transform="translate(79.242188 602.241576)scale(0.25 -0.25)">
       <use xlink:href="#DejaVuSans-30"/>
       <use x="63.623047" xlink:href="#DejaVuSans-2e"/>
       <use x="95.410156" xlink:href="#DejaVuSans-37"/>
      </g>
     </g>
    </g>
    <g id="ytick_4">
     <g id="line2d_13">
      <g>
       <use style="stroke:#000000;stroke-width:0.8;" x="126" xlink:href="#m25cbc87852" y="440.555294"/>
      </g>
     </g>
     <g id="text_14">
      <!-- 0.8 -->
      <g transform="translate(79.242188 450.053341)scale(0.25 -0.25)">
       <use xlink:href="#DejaVuSans-30"/>
       <use x="63.623047" xlink:href="#DejaVuSans-2e"/>
       <use x="95.410156" xlink:href="#DejaVuSans-38"/>
      </g>
     </g>
    </g>
    <g id="ytick_5">
     <g id="line2d_14">
      <g>
       <use style="stroke:#000000;stroke-width:0.8;" x="126" xlink:href="#m25cbc87852" y="288.367059"/>
      </g>
     </g>
     <g id="text_15">
      <!-- 0.9 -->
      <g transform="translate(79.242188 297.865106)scale(0.25 -0.25)">
       <use xlink:href="#DejaVuSans-30"/>
       <use x="63.623047" xlink:href="#DejaVuSans-2e"/>
       <use x="95.410156" xlink:href="#DejaVuSans-39"/>
      </g>
     </g>
    </g>
    <g id="ytick_6">
     <g id="line2d_15">
      <g>
       <use style="stroke:#000000;stroke-width:0.8;" x="126" xlink:href="#m25cbc87852" y="136.178824"/>
      </g>
     </g>
     <g id="text_16">
      <!-- 1.0 -->
      <g transform="translate(79.242188 145.67687)scale(0.25 -0.25)">
       <use xlink:href="#DejaVuSans-31"/>
       <use x="63.623047" xlink:href="#DejaVuSans-2e"/>
       <use x="95.410156" xlink:href="#DejaVuSans-30"/>
      </g>
     </g>
    </g>
    <g id="text_17">
     <!-- Effectiveness -->
     <defs>
      <path d="M 9.8125 72.90625 
L 55.90625 72.90625 
L 55.90625 64.59375 
L 19.671875 64.59375 
L 19.671875 43.015625 
L 54.390625 43.015625 
L 54.390625 34.71875 
L 19.671875 34.71875 
L 19.671875 8.296875 
L 56.78125 8.296875 
L 56.78125 0 
L 9.8125 0 
z
" id="DejaVuSans-45"/>
      <path d="M 2.984375 54.6875 
L 12.5 54.6875 
L 29.59375 8.796875 
L 46.6875 54.6875 
L 56.203125 54.6875 
L 35.6875 0 
L 23.484375 0 
z
" id="DejaVuSans-76"/>
     </defs>
     <g transform="translate(70.042969 592.403281)rotate(-90)scale(0.25 -0.25)">
      <use xlink:href="#DejaVuSans-45"/>
      <use x="63.183594" xlink:href="#DejaVuSans-66"/>
      <use x="98.388672" xlink:href="#DejaVuSans-66"/>
      <use x="133.59375" xlink:href="#DejaVuSans-65"/>
      <use x="195.117188" xlink:href="#DejaVuSans-63"/>
      <use x="250.097656" xlink:href="#DejaVuSans-74"/>
      <use x="289.306641" xlink:href="#DejaVuSans-69"/>
      <use x="317.089844" xlink:href="#DejaVuSans-76"/>
      <use x="376.269531" xlink:href="#DejaVuSans-65"/>
      <use x="437.792969" xlink:href="#DejaVuSans-6e"/>
      <use x="501.171875" xlink:href="#DejaVuSans-65"/>
      <use x="562.695312" xlink:href="#DejaVuSans-73"/>
      <use x="614.794922" xlink:href="#DejaVuSans-73"/>
     </g>
    </g>
   </g>
   <g id="line2d_16">
    <path clip-path="url(#p3ab7a77aab)" d="M 161.509091 690.870763 
L 250.281818 581.119435 
L 339.054545 535.462964 
L 427.827273 510.490333 
L 516.6 477.37227 
L 605.372727 415.138232 
L 694.145455 381.627378 
L 782.918182 320.495639 
L 871.690909 136.178824 
" style="fill:none;stroke:#539caf;stroke-dasharray:7.4,3.2;stroke-dashoffset:0;stroke-width:2;"/>
    <defs>
     <path d="M -6 6 
L 6 -6 
M -6 -6 
L 6 6 
" id="mb3153f999e" style="stroke:#539caf;"/>
    </defs>
    <g clip-path="url(#p3ab7a77aab)">
     <use style="fill:#539caf;stroke:#539caf;" x="161.509091" xlink:href="#mb3153f999e" y="690.870763"/>
     <use style="fill:#539caf;stroke:#539caf;" x="250.281818" xlink:href="#mb3153f999e" y="581.119435"/>
     <use style="fill:#539caf;stroke:#539caf;" x="339.054545" xlink:href="#mb3153f999e" y="535.462964"/>
     <use style="fill:#539caf;stroke:#539caf;" x="427.827273" xlink:href="#mb3153f999e" y="510.490333"/>
     <use style="fill:#539caf;stroke:#539caf;" x="516.6" xlink:href="#mb3153f999e" y="477.37227"/>
     <use style="fill:#539caf;stroke:#539caf;" x="605.372727" xlink:href="#mb3153f999e" y="415.138232"/>
     <use style="fill:#539caf;stroke:#539caf;" x="694.145455" xlink:href="#mb3153f999e" y="381.627378"/>
     <use style="fill:#539caf;stroke:#539caf;" x="782.918182" xlink:href="#mb3153f999e" y="320.495639"/>
     <use style="fill:#539caf;stroke:#539caf;" x="871.690909" xlink:href="#mb3153f999e" y="136.178824"/>
    </g>
   </g>
   <g id="line2d_17">
    <path clip-path="url(#p3ab7a77aab)" d="M 161.509091 690.870763 
L 250.281818 622.210258 
L 339.054545 572.38117 
L 427.827273 536.362333 
L 516.6 503.24427 
L 605.372727 441.010232 
L 694.145455 392.280554 
L 782.918182 315.929992 
L 871.690909 136.178824 
" style="fill:none;stroke:#b65332;stroke-dasharray:2,3.3;stroke-dashoffset:0;stroke-width:2;"/>
    <defs>
     <path d="M -6 -0 
L 6 6 
L 6 -6 
z
" id="mb85b5191a4" style="stroke:#b65332;stroke-linejoin:miter;"/>
    </defs>
    <g clip-path="url(#p3ab7a77aab)">
     <use style="fill:#b65332;stroke:#b65332;stroke-linejoin:miter;" x="161.509091" xlink:href="#mb85b5191a4" y="690.870763"/>
     <use style="fill:#b65332;stroke:#b65332;stroke-linejoin:miter;" x="250.281818" xlink:href="#mb85b5191a4" y="622.210258"/>
     <use style="fill:#b65332;stroke:#b65332;stroke-linejoin:miter;" x="339.054545" xlink:href="#mb85b5191a4" y="572.38117"/>
     <use style="fill:#b65332;stroke:#b65332;stroke-linejoin:miter;" x="427.827273" xlink:href="#mb85b5191a4" y="536.362333"/>
     <use style="fill:#b65332;stroke:#b65332;stroke-linejoin:miter;" x="516.6" xlink:href="#mb85b5191a4" y="503.24427"/>
     <use style="fill:#b65332;stroke:#b65332;stroke-linejoin:miter;" x="605.372727" xlink:href="#mb85b5191a4" y="441.010232"/>
     <use style="fill:#b65332;stroke:#b65332;stroke-linejoin:miter;" x="694.145455" xlink:href="#mb85b5191a4" y="392.280554"/>
     <use style="fill:#b65332;stroke:#b65332;stroke-linejoin:miter;" x="782.918182" xlink:href="#mb85b5191a4" y="315.929992"/>
     <use style="fill:#b65332;stroke:#b65332;stroke-linejoin:miter;" x="871.690909" xlink:href="#mb85b5191a4" y="136.178824"/>
    </g>
   </g>
   <g id="line2d_18">
    <path clip-path="url(#p3ab7a77aab)" d="M 161.509091 690.870763 
L 250.281818 628.690817 
L 339.054545 535.462964 
L 427.827273 485.496267 
L 516.6 424.078787 
L 605.372727 369.481761 
L 694.145455 335.970907 
L 782.918182 244.401095 
L 871.690909 136.178824 
" style="fill:none;stroke:#3a14e3;stroke-dasharray:12.8,3.2,2,3.2;stroke-dashoffset:0;stroke-width:2;"/>
    <defs>
     <path d="M -6 0 
L 6 0 
M 0 6 
L 0 -6 
" id="m03d0fc034a" style="stroke:#3a14e3;"/>
    </defs>
    <g clip-path="url(#p3ab7a77aab)">
     <use style="fill:#3a14e3;stroke:#3a14e3;" x="161.509091" xlink:href="#m03d0fc034a" y="690.870763"/>
     <use style="fill:#3a14e3;stroke:#3a14e3;" x="250.281818" xlink:href="#m03d0fc034a" y="628.690817"/>
     <use style="fill:#3a14e3;stroke:#3a14e3;" x="339.054545" xlink:href="#m03d0fc034a" y="535.462964"/>
     <use style="fill:#3a14e3;stroke:#3a14e3;" x="427.827273" xlink:href="#m03d0fc034a" y="485.496267"/>
     <use style="fill:#3a14e3;stroke:#3a14e3;" x="516.6" xlink:href="#m03d0fc034a" y="424.078787"/>
     <use style="fill:#3a14e3;stroke:#3a14e3;" x="605.372727" xlink:href="#m03d0fc034a" y="369.481761"/>
     <use style="fill:#3a14e3;stroke:#3a14e3;" x="694.145455" xlink:href="#m03d0fc034a" y="335.970907"/>
     <use style="fill:#3a14e3;stroke:#3a14e3;" x="782.918182" xlink:href="#m03d0fc034a" y="244.401095"/>
     <use style="fill:#3a14e3;stroke:#3a14e3;" x="871.690909" xlink:href="#m03d0fc034a" y="136.178824"/>
    </g>
   </g>
   <g id="patch_3">
    <path d="M 126 897.12 
L 126 120.96 
" style="fill:none;stroke:#000000;stroke-linecap:square;stroke-linejoin:miter;stroke-width:0.8;"/>
   </g>
   <g id="patch_4">
    <path d="M 126 897.12 
L 907.2 897.12 
" style="fill:none;stroke:#000000;stroke-linecap:square;stroke-linejoin:miter;stroke-width:0.8;"/>
   </g>
   <g id="text_18">
    <!-- RBO - 30 percent incomplete data (1076 missing values), k = 10 -->
    <defs>
     <path d="M 44.390625 34.1875 
Q 47.5625 33.109375 50.5625 29.59375 
Q 53.5625 26.078125 56.59375 19.921875 
L 66.609375 0 
L 56 0 
L 46.6875 18.703125 
Q 43.0625 26.03125 39.671875 28.421875 
Q 36.28125 30.8125 30.421875 30.8125 
L 19.671875 30.8125 
L 19.671875 0 
L 9.8125 0 
L 9.8125 72.90625 
L 32.078125 72.90625 
Q 44.578125 72.90625 50.734375 67.671875 
Q 56.890625 62.453125 56.890625 51.90625 
Q 56.890625 45.015625 53.6875 40.46875 
Q 50.484375 35.9375 44.390625 34.1875 
z
M 19.671875 64.796875 
L 19.671875 38.921875 
L 32.078125 38.921875 
Q 39.203125 38.921875 42.84375 42.21875 
Q 46.484375 45.515625 46.484375 51.90625 
Q 46.484375 58.296875 42.84375 61.546875 
Q 39.203125 64.796875 32.078125 64.796875 
z
" id="DejaVuSans-52"/>
     <path d="M 19.671875 34.8125 
L 19.671875 8.109375 
L 35.5 8.109375 
Q 43.453125 8.109375 47.28125 11.40625 
Q 51.125 14.703125 51.125 21.484375 
Q 51.125 28.328125 47.28125 31.5625 
Q 43.453125 34.8125 35.5 34.8125 
z
M 19.671875 64.796875 
L 19.671875 42.828125 
L 34.28125 42.828125 
Q 41.5 42.828125 45.03125 45.53125 
Q 48.578125 48.25 48.578125 53.8125 
Q 48.578125 59.328125 45.03125 62.0625 
Q 41.5 64.796875 34.28125 64.796875 
z
M 9.8125 72.90625 
L 35.015625 72.90625 
Q 46.296875 72.90625 52.390625 68.21875 
Q 58.5 63.53125 58.5 54.890625 
Q 58.5 48.1875 55.375 44.234375 
Q 52.25 40.28125 46.1875 39.3125 
Q 53.46875 37.75 57.5 32.78125 
Q 61.53125 27.828125 61.53125 20.40625 
Q 61.53125 10.640625 54.890625 5.3125 
Q 48.25 0 35.984375 0 
L 9.8125 0 
z
" id="DejaVuSans-42"/>
     <path d="M 39.40625 66.21875 
Q 28.65625 66.21875 22.328125 58.203125 
Q 16.015625 50.203125 16.015625 36.375 
Q 16.015625 22.609375 22.328125 14.59375 
Q 28.65625 6.59375 39.40625 6.59375 
Q 50.140625 6.59375 56.421875 14.59375 
Q 62.703125 22.609375 62.703125 36.375 
Q 62.703125 50.203125 56.421875 58.203125 
Q 50.140625 66.21875 39.40625 66.21875 
z
M 39.40625 74.21875 
Q 54.734375 74.21875 63.90625 63.9375 
Q 73.09375 53.65625 73.09375 36.375 
Q 73.09375 19.140625 63.90625 8.859375 
Q 54.734375 -1.421875 39.40625 -1.421875 
Q 24.03125 -1.421875 14.8125 8.828125 
Q 5.609375 19.09375 5.609375 36.375 
Q 5.609375 53.65625 14.8125 63.9375 
Q 24.03125 74.21875 39.40625 74.21875 
z
" id="DejaVuSans-4f"/>
     <path d="M 4.890625 31.390625 
L 31.203125 31.390625 
L 31.203125 23.390625 
L 4.890625 23.390625 
z
" id="DejaVuSans-2d"/>
     <path d="M 34.28125 27.484375 
Q 23.390625 27.484375 19.1875 25 
Q 14.984375 22.515625 14.984375 16.5 
Q 14.984375 11.71875 18.140625 8.90625 
Q 21.296875 6.109375 26.703125 6.109375 
Q 34.1875 6.109375 38.703125 11.40625 
Q 43.21875 16.703125 43.21875 25.484375 
L 43.21875 27.484375 
z
M 52.203125 31.203125 
L 52.203125 0 
L 43.21875 0 
L 43.21875 8.296875 
Q 40.140625 3.328125 35.546875 0.953125 
Q 30.953125 -1.421875 24.3125 -1.421875 
Q 15.921875 -1.421875 10.953125 3.296875 
Q 6 8.015625 6 15.921875 
Q 6 25.140625 12.171875 29.828125 
Q 18.359375 34.515625 30.609375 34.515625 
L 43.21875 34.515625 
L 43.21875 35.40625 
Q 43.21875 41.609375 39.140625 45 
Q 35.0625 48.390625 27.6875 48.390625 
Q 23 48.390625 18.546875 47.265625 
Q 14.109375 46.140625 10.015625 43.890625 
L 10.015625 52.203125 
Q 14.9375 54.109375 19.578125 55.046875 
Q 24.21875 56 28.609375 56 
Q 40.484375 56 46.34375 49.84375 
Q 52.203125 43.703125 52.203125 31.203125 
z
" id="DejaVuSans-61"/>
     <path d="M 31 75.875 
Q 24.46875 64.65625 21.28125 53.65625 
Q 18.109375 42.671875 18.109375 31.390625 
Q 18.109375 20.125 21.3125 9.0625 
Q 24.515625 -2 31 -13.1875 
L 23.1875 -13.1875 
Q 15.875 -1.703125 12.234375 9.375 
Q 8.59375 20.453125 8.59375 31.390625 
Q 8.59375 42.28125 12.203125 53.3125 
Q 15.828125 64.359375 23.1875 75.875 
z
" id="DejaVuSans-28"/>
     <path d="M 45.40625 27.984375 
Q 45.40625 37.75 41.375 43.109375 
Q 37.359375 48.484375 30.078125 48.484375 
Q 22.859375 48.484375 18.828125 43.109375 
Q 14.796875 37.75 14.796875 27.984375 
Q 14.796875 18.265625 18.828125 12.890625 
Q 22.859375 7.515625 30.078125 7.515625 
Q 37.359375 7.515625 41.375 12.890625 
Q 45.40625 18.265625 45.40625 27.984375 
z
M 54.390625 6.78125 
Q 54.390625 -7.171875 48.1875 -13.984375 
Q 42 -20.796875 29.203125 -20.796875 
Q 24.46875 -20.796875 20.265625 -20.09375 
Q 16.0625 -19.390625 12.109375 -17.921875 
L 12.109375 -9.1875 
Q 16.0625 -11.328125 19.921875 -12.34375 
Q 23.78125 -13.375 27.78125 -13.375 
Q 36.625 -13.375 41.015625 -8.765625 
Q 45.40625 -4.15625 45.40625 5.171875 
L 45.40625 9.625 
Q 42.625 4.78125 38.28125 2.390625 
Q 33.9375 0 27.875 0 
Q 17.828125 0 11.671875 7.65625 
Q 5.515625 15.328125 5.515625 27.984375 
Q 5.515625 40.671875 11.671875 48.328125 
Q 17.828125 56 27.875 56 
Q 33.9375 56 38.28125 53.609375 
Q 42.625 51.21875 45.40625 46.390625 
L 45.40625 54.6875 
L 54.390625 54.6875 
z
" id="DejaVuSans-67"/>
     <path d="M 8.015625 75.875 
L 15.828125 75.875 
Q 23.140625 64.359375 26.78125 53.3125 
Q 30.421875 42.28125 30.421875 31.390625 
Q 30.421875 20.453125 26.78125 9.375 
Q 23.140625 -1.703125 15.828125 -13.1875 
L 8.015625 -13.1875 
Q 14.5 -2 17.703125 9.0625 
Q 20.90625 20.125 20.90625 31.390625 
Q 20.90625 42.671875 17.703125 53.65625 
Q 14.5 64.65625 8.015625 75.875 
z
" id="DejaVuSans-29"/>
     <path d="M 11.71875 12.40625 
L 22.015625 12.40625 
L 22.015625 4 
L 14.015625 -11.625 
L 7.71875 -11.625 
L 11.71875 4 
z
" id="DejaVuSans-2c"/>
     <path d="M 9.078125 75.984375 
L 18.109375 75.984375 
L 18.109375 31.109375 
L 44.921875 54.6875 
L 56.390625 54.6875 
L 27.390625 29.109375 
L 57.625 0 
L 45.90625 0 
L 18.109375 26.703125 
L 18.109375 0 
L 9.078125 0 
z
" id="DejaVuSans-6b"/>
     <path d="M 10.59375 45.40625 
L 73.1875 45.40625 
L 73.1875 37.203125 
L 10.59375 37.203125 
z
M 10.59375 25.484375 
L 73.1875 25.484375 
L 73.1875 17.1875 
L 10.59375 17.1875 
z
" id="DejaVuSans-3d"/>
    </defs>
    <g transform="translate(30.457031 114.96)scale(0.3 -0.3)">
     <use xlink:href="#DejaVuSans-52"/>
     <use x="69.482422" xlink:href="#DejaVuSans-42"/>
     <use x="138.070312" xlink:href="#DejaVuSans-4f"/>
     <use x="216.78125" xlink:href="#DejaVuSans-20"/>
     <use x="248.568359" xlink:href="#DejaVuSans-2d"/>
     <use x="284.652344" xlink:href="#DejaVuSans-20"/>
     <use x="316.439453" xlink:href="#DejaVuSans-33"/>
     <use x="380.0625" xlink:href="#DejaVuSans-30"/>
     <use x="443.685547" xlink:href="#DejaVuSans-20"/>
     <use x="475.472656" xlink:href="#DejaVuSans-70"/>
     <use x="538.949219" xlink:href="#DejaVuSans-65"/>
     <use x="600.472656" xlink:href="#DejaVuSans-72"/>
     <use x="641.554688" xlink:href="#DejaVuSans-63"/>
     <use x="696.535156" xlink:href="#DejaVuSans-65"/>
     <use x="758.058594" xlink:href="#DejaVuSans-6e"/>
     <use x="821.4375" xlink:href="#DejaVuSans-74"/>
     <use x="860.646484" xlink:href="#DejaVuSans-20"/>
     <use x="892.433594" xlink:href="#DejaVuSans-69"/>
     <use x="920.216797" xlink:href="#DejaVuSans-6e"/>
     <use x="983.595703" xlink:href="#DejaVuSans-63"/>
     <use x="1038.576172" xlink:href="#DejaVuSans-6f"/>
     <use x="1099.757812" xlink:href="#DejaVuSans-6d"/>
     <use x="1197.169922" xlink:href="#DejaVuSans-70"/>
     <use x="1260.646484" xlink:href="#DejaVuSans-6c"/>
     <use x="1288.429688" xlink:href="#DejaVuSans-65"/>
     <use x="1349.953125" xlink:href="#DejaVuSans-74"/>
     <use x="1389.162109" xlink:href="#DejaVuSans-65"/>
     <use x="1450.685547" xlink:href="#DejaVuSans-20"/>
     <use x="1482.472656" xlink:href="#DejaVuSans-64"/>
     <use x="1545.949219" xlink:href="#DejaVuSans-61"/>
     <use x="1607.228516" xlink:href="#DejaVuSans-74"/>
     <use x="1646.4375" xlink:href="#DejaVuSans-61"/>
     <use x="1707.716797" xlink:href="#DejaVuSans-20"/>
     <use x="1739.503906" xlink:href="#DejaVuSans-28"/>
     <use x="1778.517578" xlink:href="#DejaVuSans-31"/>
     <use x="1842.140625" xlink:href="#DejaVuSans-30"/>
     <use x="1905.763672" xlink:href="#DejaVuSans-37"/>
     <use x="1969.386719" xlink:href="#DejaVuSans-36"/>
     <use x="2033.009766" xlink:href="#DejaVuSans-20"/>
     <use x="2064.796875" xlink:href="#DejaVuSans-6d"/>
     <use x="2162.208984" xlink:href="#DejaVuSans-69"/>
     <use x="2189.992188" xlink:href="#DejaVuSans-73"/>
     <use x="2242.091797" xlink:href="#DejaVuSans-73"/>
     <use x="2294.191406" xlink:href="#DejaVuSans-69"/>
     <use x="2321.974609" xlink:href="#DejaVuSans-6e"/>
     <use x="2385.353516" xlink:href="#DejaVuSans-67"/>
     <use x="2448.830078" xlink:href="#DejaVuSans-20"/>
     <use x="2480.617188" xlink:href="#DejaVuSans-76"/>
     <use x="2539.796875" xlink:href="#DejaVuSans-61"/>
     <use x="2601.076172" xlink:href="#DejaVuSans-6c"/>
     <use x="2628.859375" xlink:href="#DejaVuSans-75"/>
     <use x="2692.238281" xlink:href="#DejaVuSans-65"/>
     <use x="2753.761719" xlink:href="#DejaVuSans-73"/>
     <use x="2805.861328" xlink:href="#DejaVuSans-29"/>
     <use x="2844.875" xlink:href="#DejaVuSans-2c"/>
     <use x="2876.662109" xlink:href="#DejaVuSans-20"/>
     <use x="2908.449219" xlink:href="#DejaVuSans-6b"/>
     <use x="2966.359375" xlink:href="#DejaVuSans-20"/>
     <use x="2998.146484" xlink:href="#DejaVuSans-3d"/>
     <use x="3081.935547" xlink:href="#DejaVuSans-20"/>
     <use x="3113.722656" xlink:href="#DejaVuSans-31"/>
     <use x="3177.345703" xlink:href="#DejaVuSans-30"/>
    </g>
   </g>
   <g id="legend_1">
    <g id="patch_5">
     <path d="M 143.5 884.62 
L 1068.515625 884.62 
Q 1073.515625 884.62 1073.515625 879.62 
L 1073.515625 772.034063 
Q 1073.515625 767.034063 1068.515625 767.034063 
L 143.5 767.034063 
Q 138.5 767.034063 138.5 772.034063 
L 138.5 879.62 
Q 138.5 884.62 143.5 884.62 
z
" style="fill:#ffffff;opacity:0.8;stroke:#cccccc;stroke-linejoin:miter;"/>
    </g>
    <g id="line2d_19">
     <path d="M 148.5 787.280156 
L 198.5 787.280156 
" style="fill:none;stroke:#539caf;stroke-dasharray:7.4,3.2;stroke-dashoffset:0;stroke-width:2;"/>
    </g>
    <g id="line2d_20">
     <g>
      <use style="fill:#539caf;stroke:#539caf;" x="173.5" xlink:href="#mb3153f999e" y="787.280156"/>
     </g>
    </g>
    <g id="text_19">
     <!-- MinRowIncompleteData Imputation -->
     <defs>
      <path d="M 9.8125 72.90625 
L 24.515625 72.90625 
L 43.109375 23.296875 
L 61.8125 72.90625 
L 76.515625 72.90625 
L 76.515625 0 
L 66.890625 0 
L 66.890625 64.015625 
L 48.09375 14.015625 
L 38.1875 14.015625 
L 19.390625 64.015625 
L 19.390625 0 
L 9.8125 0 
z
" id="DejaVuSans-4d"/>
      <path d="M 4.203125 54.6875 
L 13.1875 54.6875 
L 24.421875 12.015625 
L 35.59375 54.6875 
L 46.1875 54.6875 
L 57.421875 12.015625 
L 68.609375 54.6875 
L 77.59375 54.6875 
L 63.28125 0 
L 52.6875 0 
L 40.921875 44.828125 
L 29.109375 0 
L 18.5 0 
z
" id="DejaVuSans-77"/>
      <path d="M 9.8125 72.90625 
L 19.671875 72.90625 
L 19.671875 0 
L 9.8125 0 
z
" id="DejaVuSans-49"/>
      <path d="M 19.671875 64.796875 
L 19.671875 8.109375 
L 31.59375 8.109375 
Q 46.6875 8.109375 53.6875 14.9375 
Q 60.6875 21.78125 60.6875 36.53125 
Q 60.6875 51.171875 53.6875 57.984375 
Q 46.6875 64.796875 31.59375 64.796875 
z
M 9.8125 72.90625 
L 30.078125 72.90625 
Q 51.265625 72.90625 61.171875 64.09375 
Q 71.09375 55.28125 71.09375 36.53125 
Q 71.09375 17.671875 61.125 8.828125 
Q 51.171875 0 30.078125 0 
L 9.8125 0 
z
" id="DejaVuSans-44"/>
     </defs>
     <g transform="translate(218.5 796.030156)scale(0.25 -0.25)">
      <use xlink:href="#DejaVuSans-4d"/>
      <use x="86.279297" xlink:href="#DejaVuSans-69"/>
      <use x="114.0625" xlink:href="#DejaVuSans-6e"/>
      <use x="177.441406" xlink:href="#DejaVuSans-52"/>
      <use x="246.861328" xlink:href="#DejaVuSans-6f"/>
      <use x="308.042969" xlink:href="#DejaVuSans-77"/>
      <use x="389.830078" xlink:href="#DejaVuSans-49"/>
      <use x="419.322266" xlink:href="#DejaVuSans-6e"/>
      <use x="482.701172" xlink:href="#DejaVuSans-63"/>
      <use x="537.681641" xlink:href="#DejaVuSans-6f"/>
      <use x="598.863281" xlink:href="#DejaVuSans-6d"/>
      <use x="696.275391" xlink:href="#DejaVuSans-70"/>
      <use x="759.751953" xlink:href="#DejaVuSans-6c"/>
      <use x="787.535156" xlink:href="#DejaVuSans-65"/>
      <use x="849.058594" xlink:href="#DejaVuSans-74"/>
      <use x="888.267578" xlink:href="#DejaVuSans-65"/>
      <use x="949.791016" xlink:href="#DejaVuSans-44"/>
      <use x="1026.792969" xlink:href="#DejaVuSans-61"/>
      <use x="1088.072266" xlink:href="#DejaVuSans-74"/>
      <use x="1127.28125" xlink:href="#DejaVuSans-61"/>
      <use x="1188.560547" xlink:href="#DejaVuSans-20"/>
      <use x="1220.347656" xlink:href="#DejaVuSans-49"/>
      <use x="1249.839844" xlink:href="#DejaVuSans-6d"/>
      <use x="1347.251953" xlink:href="#DejaVuSans-70"/>
      <use x="1410.728516" xlink:href="#DejaVuSans-75"/>
      <use x="1474.107422" xlink:href="#DejaVuSans-74"/>
      <use x="1513.316406" xlink:href="#DejaVuSans-61"/>
      <use x="1574.595703" xlink:href="#DejaVuSans-74"/>
      <use x="1613.804688" xlink:href="#DejaVuSans-69"/>
      <use x="1641.587891" xlink:href="#DejaVuSans-6f"/>
      <use x="1702.769531" xlink:href="#DejaVuSans-6e"/>
     </g>
    </g>
    <g id="line2d_21">
     <path d="M 148.5 823.975469 
L 198.5 823.975469 
" style="fill:none;stroke:#b65332;stroke-dasharray:2,3.3;stroke-dashoffset:0;stroke-width:2;"/>
    </g>
    <g id="line2d_22">
     <g>
      <use style="fill:#b65332;stroke:#b65332;stroke-linejoin:miter;" x="173.5" xlink:href="#mb85b5191a4" y="823.975469"/>
     </g>
    </g>
    <g id="text_20">
     <!-- Bootstrap + MinRowIncompleteData Imputation -->
     <defs>
      <path d="M 46 62.703125 
L 46 35.5 
L 73.1875 35.5 
L 73.1875 27.203125 
L 46 27.203125 
L 46 0 
L 37.796875 0 
L 37.796875 27.203125 
L 10.59375 27.203125 
L 10.59375 35.5 
L 37.796875 35.5 
L 37.796875 62.703125 
z
" id="DejaVuSans-2b"/>
     </defs>
     <g transform="translate(218.5 832.725469)scale(0.25 -0.25)">
      <use xlink:href="#DejaVuSans-42"/>
      <use x="68.603516" xlink:href="#DejaVuSans-6f"/>
      <use x="129.785156" xlink:href="#DejaVuSans-6f"/>
      <use x="190.966797" xlink:href="#DejaVuSans-74"/>
      <use x="230.175781" xlink:href="#DejaVuSans-73"/>
      <use x="282.275391" xlink:href="#DejaVuSans-74"/>
      <use x="321.484375" xlink:href="#DejaVuSans-72"/>
      <use x="362.597656" xlink:href="#DejaVuSans-61"/>
      <use x="423.876953" xlink:href="#DejaVuSans-70"/>
      <use x="487.353516" xlink:href="#DejaVuSans-20"/>
      <use x="519.140625" xlink:href="#DejaVuSans-2b"/>
      <use x="602.929688" xlink:href="#DejaVuSans-20"/>
      <use x="634.716797" xlink:href="#DejaVuSans-4d"/>
      <use x="720.996094" xlink:href="#DejaVuSans-69"/>
      <use x="748.779297" xlink:href="#DejaVuSans-6e"/>
      <use x="812.158203" xlink:href="#DejaVuSans-52"/>
      <use x="881.578125" xlink:href="#DejaVuSans-6f"/>
      <use x="942.759766" xlink:href="#DejaVuSans-77"/>
      <use x="1024.546875" xlink:href="#DejaVuSans-49"/>
      <use x="1054.039062" xlink:href="#DejaVuSans-6e"/>
      <use x="1117.417969" xlink:href="#DejaVuSans-63"/>
      <use x="1172.398438" xlink:href="#DejaVuSans-6f"/>
      <use x="1233.580078" xlink:href="#DejaVuSans-6d"/>
      <use x="1330.992188" xlink:href="#DejaVuSans-70"/>
      <use x="1394.46875" xlink:href="#DejaVuSans-6c"/>
      <use x="1422.251953" xlink:href="#DejaVuSans-65"/>
      <use x="1483.775391" xlink:href="#DejaVuSans-74"/>
      <use x="1522.984375" xlink:href="#DejaVuSans-65"/>
      <use x="1584.507812" xlink:href="#DejaVuSans-44"/>
      <use x="1661.509766" xlink:href="#DejaVuSans-61"/>
      <use x="1722.789062" xlink:href="#DejaVuSans-74"/>
      <use x="1761.998047" xlink:href="#DejaVuSans-61"/>
      <use x="1823.277344" xlink:href="#DejaVuSans-20"/>
      <use x="1855.064453" xlink:href="#DejaVuSans-49"/>
      <use x="1884.556641" xlink:href="#DejaVuSans-6d"/>
      <use x="1981.96875" xlink:href="#DejaVuSans-70"/>
      <use x="2045.445312" xlink:href="#DejaVuSans-75"/>
      <use x="2108.824219" xlink:href="#DejaVuSans-74"/>
      <use x="2148.033203" xlink:href="#DejaVuSans-61"/>
      <use x="2209.3125" xlink:href="#DejaVuSans-74"/>
      <use x="2248.521484" xlink:href="#DejaVuSans-69"/>
      <use x="2276.304688" xlink:href="#DejaVuSans-6f"/>
      <use x="2337.486328" xlink:href="#DejaVuSans-6e"/>
     </g>
    </g>
    <g id="line2d_23">
     <path d="M 148.5 860.670781 
L 198.5 860.670781 
" style="fill:none;stroke:#3a14e3;stroke-dasharray:12.8,3.2,2,3.2;stroke-dashoffset:0;stroke-width:2;"/>
    </g>
    <g id="line2d_24">
     <g>
      <use style="fill:#3a14e3;stroke:#3a14e3;" x="173.5" xlink:href="#m03d0fc034a" y="860.670781"/>
     </g>
    </g>
    <g id="text_21">
     <!-- Bootstrap + MinRowIncompleteData Imputation + Linear extension -->
     <defs>
      <path d="M 9.8125 72.90625 
L 19.671875 72.90625 
L 19.671875 8.296875 
L 55.171875 8.296875 
L 55.171875 0 
L 9.8125 0 
z
" id="DejaVuSans-4c"/>
      <path d="M 54.890625 54.6875 
L 35.109375 28.078125 
L 55.90625 0 
L 45.3125 0 
L 29.390625 21.484375 
L 13.484375 0 
L 2.875 0 
L 24.125 28.609375 
L 4.6875 54.6875 
L 15.28125 54.6875 
L 29.78125 35.203125 
L 44.28125 54.6875 
z
" id="DejaVuSans-78"/>
     </defs>
     <g transform="translate(218.5 869.420781)scale(0.25 -0.25)">
      <use xlink:href="#DejaVuSans-42"/>
      <use x="68.603516" xlink:href="#DejaVuSans-6f"/>
      <use x="129.785156" xlink:href="#DejaVuSans-6f"/>
      <use x="190.966797" xlink:href="#DejaVuSans-74"/>
      <use x="230.175781" xlink:href="#DejaVuSans-73"/>
      <use x="282.275391" xlink:href="#DejaVuSans-74"/>
      <use x="321.484375" xlink:href="#DejaVuSans-72"/>
      <use x="362.597656" xlink:href="#DejaVuSans-61"/>
      <use x="423.876953" xlink:href="#DejaVuSans-70"/>
      <use x="487.353516" xlink:href="#DejaVuSans-20"/>
      <use x="519.140625" xlink:href="#DejaVuSans-2b"/>
      <use x="602.929688" xlink:href="#DejaVuSans-20"/>
      <use x="634.716797" xlink:href="#DejaVuSans-4d"/>
      <use x="720.996094" xlink:href="#DejaVuSans-69"/>
      <use x="748.779297" xlink:href="#DejaVuSans-6e"/>
      <use x="812.158203" xlink:href="#DejaVuSans-52"/>
      <use x="881.578125" xlink:href="#DejaVuSans-6f"/>
      <use x="942.759766" xlink:href="#DejaVuSans-77"/>
      <use x="1024.546875" xlink:href="#DejaVuSans-49"/>
      <use x="1054.039062" xlink:href="#DejaVuSans-6e"/>
      <use x="1117.417969" xlink:href="#DejaVuSans-63"/>
      <use x="1172.398438" xlink:href="#DejaVuSans-6f"/>
      <use x="1233.580078" xlink:href="#DejaVuSans-6d"/>
      <use x="1330.992188" xlink:href="#DejaVuSans-70"/>
      <use x="1394.46875" xlink:href="#DejaVuSans-6c"/>
      <use x="1422.251953" xlink:href="#DejaVuSans-65"/>
      <use x="1483.775391" xlink:href="#DejaVuSans-74"/>
      <use x="1522.984375" xlink:href="#DejaVuSans-65"/>
      <use x="1584.507812" xlink:href="#DejaVuSans-44"/>
      <use x="1661.509766" xlink:href="#DejaVuSans-61"/>
      <use x="1722.789062" xlink:href="#DejaVuSans-74"/>
      <use x="1761.998047" xlink:href="#DejaVuSans-61"/>
      <use x="1823.277344" xlink:href="#DejaVuSans-20"/>
      <use x="1855.064453" xlink:href="#DejaVuSans-49"/>
      <use x="1884.556641" xlink:href="#DejaVuSans-6d"/>
      <use x="1981.96875" xlink:href="#DejaVuSans-70"/>
      <use x="2045.445312" xlink:href="#DejaVuSans-75"/>
      <use x="2108.824219" xlink:href="#DejaVuSans-74"/>
      <use x="2148.033203" xlink:href="#DejaVuSans-61"/>
      <use x="2209.3125" xlink:href="#DejaVuSans-74"/>
      <use x="2248.521484" xlink:href="#DejaVuSans-69"/>
      <use x="2276.304688" xlink:href="#DejaVuSans-6f"/>
      <use x="2337.486328" xlink:href="#DejaVuSans-6e"/>
      <use x="2400.865234" xlink:href="#DejaVuSans-20"/>
      <use x="2432.652344" xlink:href="#DejaVuSans-2b"/>
      <use x="2516.441406" xlink:href="#DejaVuSans-20"/>
      <use x="2548.228516" xlink:href="#DejaVuSans-4c"/>
      <use x="2603.941406" xlink:href="#DejaVuSans-69"/>
      <use x="2631.724609" xlink:href="#DejaVuSans-6e"/>
      <use x="2695.103516" xlink:href="#DejaVuSans-65"/>
      <use x="2756.626953" xlink:href="#DejaVuSans-61"/>
      <use x="2817.90625" xlink:href="#DejaVuSans-72"/>
      <use x="2859.019531" xlink:href="#DejaVuSans-20"/>
      <use x="2890.806641" xlink:href="#DejaVuSans-65"/>
      <use x="2952.314453" xlink:href="#DejaVuSans-78"/>
      <use x="3011.494141" xlink:href="#DejaVuSans-74"/>
      <use x="3050.703125" xlink:href="#DejaVuSans-65"/>
      <use x="3112.226562" xlink:href="#DejaVuSans-6e"/>
      <use x="3175.605469" xlink:href="#DejaVuSans-73"/>
      <use x="3227.705078" xlink:href="#DejaVuSans-69"/>
      <use x="3255.488281" xlink:href="#DejaVuSans-6f"/>
      <use x="3316.669922" xlink:href="#DejaVuSans-6e"/>
     </g>
    </g>
   </g>
  </g>
 </g>
 <defs>
  <clipPath id="p3ab7a77aab">
   <rect height="776.16" width="781.2" x="126" y="120.96"/>
  </clipPath>
 </defs>
</svg>
