<?xml version="1.0" encoding="utf-8" standalone="no"?>
<!DOCTYPE svg PUBLIC "-//W3C//DTD SVG 1.1//EN"
  "http://www.w3.org/Graphics/SVG/1.1/DTD/svg11.dtd">
<!-- Created with matplotlib (http://matplotlib.org/) -->
<svg height="648pt" version="1.1" viewBox="0 0 864 648" width="864pt" xmlns="http://www.w3.org/2000/svg" xmlns:xlink="http://www.w3.org/1999/xlink">
 <defs>
  <style type="text/css">
*{stroke-linecap:butt;stroke-linejoin:round;}
  </style>
 </defs>
 <g id="figure_1">
  <g id="patch_1">
   <path d="M 0 648 
L 864 648 
L 864 0 
L 0 0 
z
" style="fill:#ffffff;"/>
  </g>
  <g id="axes_1">
   <g id="patch_2">
    <path d="M 108 576.72 
L 777.6 576.72 
L 777.6 77.76 
L 108 77.76 
z
" style="fill:#ffffff;"/>
   </g>
   <g id="PolyCollection_1">
    <defs>
     <path d="M 138.436364 -565.299802 
L 138.436364 -565.299802 
L 239.890909 -452.502429 
L 341.345455 -407.213465 
L 442.8 -357.811485 
L 544.254545 -313.349703 
L 645.709091 -283.708515 
L 747.163636 -259.007525 
L 747.163636 -283.708515 
L 747.163636 -283.708515 
L 645.709091 -318.289901 
L 544.254545 -338.050693 
L 442.8 -377.572277 
L 341.345455 -422.034059 
L 239.890909 -471.948178 
L 138.436364 -565.299802 
z
" id="m004d1fab48" style="stroke:#dedddc;stroke-opacity:0.4;"/>
    </defs>
    <g clip-path="url(#p51bc2e5958)">
     <use style="fill:#dedddc;fill-opacity:0.4;stroke:#dedddc;stroke-opacity:0.4;" x="0" xlink:href="#m004d1fab48" y="648"/>
    </g>
   </g>
   <g id="PolyCollection_2">
    <defs>
     <path d="M 138.436364 -565.299802 
L 138.436364 -565.299802 
L 239.890909 -519.84998 
L 341.345455 -500.089188 
L 442.8 -485.268594 
L 544.254545 -465.080025 
L 645.709091 -443.070848 
L 747.163636 -421.897847 
L 747.163636 -439.765542 
L 747.163636 -439.765542 
L 645.709091 -458.996252 
L 544.254545 -478.503853 
L 442.8 -500.089188 
L 341.345455 -514.909782 
L 239.890909 -529.730376 
L 138.436364 -565.299802 
z
" id="m8bd141852d" style="stroke:#dedddc;stroke-opacity:0.4;"/>
    </defs>
    <g clip-path="url(#p51bc2e5958)">
     <use style="fill:#dedddc;fill-opacity:0.4;stroke:#dedddc;stroke-opacity:0.4;" x="0" xlink:href="#m8bd141852d" y="648"/>
    </g>
   </g>
   <g id="PolyCollection_3">
    <defs>
     <path d="M 138.436364 -565.299802 
L 138.436364 -565.299802 
L 239.890909 -524.641972 
L 341.345455 -513.040901 
L 442.8 -493.073245 
L 544.254545 -471.599212 
L 645.709091 -445.267052 
L 747.163636 -426.108075 
L 747.163636 -449.558001 
L 747.163636 -449.558001 
L 645.709091 -466.64556 
L 544.254545 -491.100563 
L 442.8 -509.459949 
L 341.345455 -529.583871 
L 239.890909 -539.462566 
L 138.436364 -565.299802 
z
" id="md25663f96a" style="stroke:#dedddc;stroke-opacity:0.4;"/>
    </defs>
    <g clip-path="url(#p51bc2e5958)">
     <use style="fill:#dedddc;fill-opacity:0.4;stroke:#dedddc;stroke-opacity:0.4;" x="0" xlink:href="#md25663f96a" y="648"/>
    </g>
   </g>
   <g id="PolyCollection_4">
    <defs>
     <path d="M 138.436364 -565.299802 
L 138.436364 -565.299802 
L 239.890909 -467.747738 
L 341.345455 -436.123755 
L 442.8 -398.275752 
L 544.254545 -363.300387 
L 645.709091 -328.961996 
L 747.163636 -284.215875 
L 747.163636 -311.641688 
L 747.163636 -311.641688 
L 645.709091 -354.089832 
L 544.254545 -384.919407 
L 442.8 -421.187636 
L 341.345455 -455.673938 
L 239.890909 -484.31895 
L 138.436364 -565.299802 
z
" id="m6216a1b7fb" style="stroke:#dedddc;stroke-opacity:0.4;"/>
    </defs>
    <g clip-path="url(#p51bc2e5958)">
     <use style="fill:#dedddc;fill-opacity:0.4;stroke:#dedddc;stroke-opacity:0.4;" x="0" xlink:href="#m6216a1b7fb" y="648"/>
    </g>
   </g>
   <g id="PolyCollection_5">
    <defs>
     <path d="M 138.436364 -565.299802 
L 138.436364 -565.299802 
L 239.890909 -488.006386 
L 341.345455 -461.555644 
L 442.8 -446.307272 
L 544.254545 -424.298095 
L 645.709091 -403.125095 
L 747.163636 -387.115204 
L 747.163636 -406.084037 
L 747.163636 -406.084037 
L 645.709091 -420.992789 
L 544.254545 -440.2235 
L 442.8 -459.7311 
L 341.345455 -481.316436 
L 239.890909 -506.127888 
L 138.436364 -565.299802 
z
" id="m756ecd511d" style="stroke:#dedddc;stroke-opacity:0.4;"/>
    </defs>
    <g clip-path="url(#p51bc2e5958)">
     <use style="fill:#dedddc;fill-opacity:0.4;stroke:#dedddc;stroke-opacity:0.4;" x="0" xlink:href="#m756ecd511d" y="648"/>
    </g>
   </g>
   <g id="matplotlib.axis_1">
    <g id="xtick_1">
     <g id="line2d_1">
      <defs>
       <path d="M 0 0 
L 0 3.5 
" id="mbf428ad863" style="stroke:#000000;stroke-width:0.8;"/>
      </defs>
      <g>
       <use style="stroke:#000000;stroke-width:0.8;" x="138.436364" xlink:href="#mbf428ad863" y="576.72"/>
      </g>
     </g>
     <g id="text_1">
      <!-- 0 -->
      <defs>
       <path d="M 31.78125 66.40625 
Q 24.171875 66.40625 20.328125 58.90625 
Q 16.5 51.421875 16.5 36.375 
Q 16.5 21.390625 20.328125 13.890625 
Q 24.171875 6.390625 31.78125 6.390625 
Q 39.453125 6.390625 43.28125 13.890625 
Q 47.125 21.390625 47.125 36.375 
Q 47.125 51.421875 43.28125 58.90625 
Q 39.453125 66.40625 31.78125 66.40625 
z
M 31.78125 74.21875 
Q 44.046875 74.21875 50.515625 64.515625 
Q 56.984375 54.828125 56.984375 36.375 
Q 56.984375 17.96875 50.515625 8.265625 
Q 44.046875 -1.421875 31.78125 -1.421875 
Q 19.53125 -1.421875 13.0625 8.265625 
Q 6.59375 17.96875 6.59375 36.375 
Q 6.59375 54.828125 13.0625 64.515625 
Q 19.53125 74.21875 31.78125 74.21875 
z
" id="DejaVuSans-30"/>
      </defs>
      <g transform="translate(130.483239 602.716094)scale(0.25 -0.25)">
       <use xlink:href="#DejaVuSans-30"/>
      </g>
     </g>
    </g>
    <g id="xtick_2">
     <g id="line2d_2">
      <g>
       <use style="stroke:#000000;stroke-width:0.8;" x="239.890909" xlink:href="#mbf428ad863" y="576.72"/>
      </g>
     </g>
     <g id="text_2">
      <!-- 5 -->
      <defs>
       <path d="M 10.796875 72.90625 
L 49.515625 72.90625 
L 49.515625 64.59375 
L 19.828125 64.59375 
L 19.828125 46.734375 
Q 21.96875 47.46875 24.109375 47.828125 
Q 26.265625 48.1875 28.421875 48.1875 
Q 40.625 48.1875 47.75 41.5 
Q 54.890625 34.8125 54.890625 23.390625 
Q 54.890625 11.625 47.5625 5.09375 
Q 40.234375 -1.421875 26.90625 -1.421875 
Q 22.3125 -1.421875 17.546875 -0.640625 
Q 12.796875 0.140625 7.71875 1.703125 
L 7.71875 11.625 
Q 12.109375 9.234375 16.796875 8.0625 
Q 21.484375 6.890625 26.703125 6.890625 
Q 35.15625 6.890625 40.078125 11.328125 
Q 45.015625 15.765625 45.015625 23.390625 
Q 45.015625 31 40.078125 35.4375 
Q 35.15625 39.890625 26.703125 39.890625 
Q 22.75 39.890625 18.8125 39.015625 
Q 14.890625 38.140625 10.796875 36.28125 
z
" id="DejaVuSans-35"/>
      </defs>
      <g transform="translate(231.937784 602.716094)scale(0.25 -0.25)">
       <use xlink:href="#DejaVuSans-35"/>
      </g>
     </g>
    </g>
    <g id="xtick_3">
     <g id="line2d_3">
      <g>
       <use style="stroke:#000000;stroke-width:0.8;" x="341.345455" xlink:href="#mbf428ad863" y="576.72"/>
      </g>
     </g>
     <g id="text_3">
      <!-- 10 -->
      <defs>
       <path d="M 12.40625 8.296875 
L 28.515625 8.296875 
L 28.515625 63.921875 
L 10.984375 60.40625 
L 10.984375 69.390625 
L 28.421875 72.90625 
L 38.28125 72.90625 
L 38.28125 8.296875 
L 54.390625 8.296875 
L 54.390625 0 
L 12.40625 0 
z
" id="DejaVuSans-31"/>
      </defs>
      <g transform="translate(325.439205 602.716094)scale(0.25 -0.25)">
       <use xlink:href="#DejaVuSans-31"/>
       <use x="63.623047" xlink:href="#DejaVuSans-30"/>
      </g>
     </g>
    </g>
    <g id="xtick_4">
     <g id="line2d_4">
      <g>
       <use style="stroke:#000000;stroke-width:0.8;" x="442.8" xlink:href="#mbf428ad863" y="576.72"/>
      </g>
     </g>
     <g id="text_4">
      <!-- 15 -->
      <g transform="translate(426.89375 602.716094)scale(0.25 -0.25)">
       <use xlink:href="#DejaVuSans-31"/>
       <use x="63.623047" xlink:href="#DejaVuSans-35"/>
      </g>
     </g>
    </g>
    <g id="xtick_5">
     <g id="line2d_5">
      <g>
       <use style="stroke:#000000;stroke-width:0.8;" x="544.254545" xlink:href="#mbf428ad863" y="576.72"/>
      </g>
     </g>
     <g id="text_5">
      <!-- 20 -->
      <defs>
       <path d="M 19.1875 8.296875 
L 53.609375 8.296875 
L 53.609375 0 
L 7.328125 0 
L 7.328125 8.296875 
Q 12.9375 14.109375 22.625 23.890625 
Q 32.328125 33.6875 34.8125 36.53125 
Q 39.546875 41.84375 41.421875 45.53125 
Q 43.3125 49.21875 43.3125 52.78125 
Q 43.3125 58.59375 39.234375 62.25 
Q 35.15625 65.921875 28.609375 65.921875 
Q 23.96875 65.921875 18.8125 64.3125 
Q 13.671875 62.703125 7.8125 59.421875 
L 7.8125 69.390625 
Q 13.765625 71.78125 18.9375 73 
Q 24.125 74.21875 28.421875 74.21875 
Q 39.75 74.21875 46.484375 68.546875 
Q 53.21875 62.890625 53.21875 53.421875 
Q 53.21875 48.921875 51.53125 44.890625 
Q 49.859375 40.875 45.40625 35.40625 
Q 44.1875 33.984375 37.640625 27.21875 
Q 31.109375 20.453125 19.1875 8.296875 
z
" id="DejaVuSans-32"/>
      </defs>
      <g transform="translate(528.348295 602.716094)scale(0.25 -0.25)">
       <use xlink:href="#DejaVuSans-32"/>
       <use x="63.623047" xlink:href="#DejaVuSans-30"/>
      </g>
     </g>
    </g>
    <g id="xtick_6">
     <g id="line2d_6">
      <g>
       <use style="stroke:#000000;stroke-width:0.8;" x="645.709091" xlink:href="#mbf428ad863" y="576.72"/>
      </g>
     </g>
     <g id="text_6">
      <!-- 25 -->
      <g transform="translate(629.802841 602.716094)scale(0.25 -0.25)">
       <use xlink:href="#DejaVuSans-32"/>
       <use x="63.623047" xlink:href="#DejaVuSans-35"/>
      </g>
     </g>
    </g>
    <g id="xtick_7">
     <g id="line2d_7">
      <g>
       <use style="stroke:#000000;stroke-width:0.8;" x="747.163636" xlink:href="#mbf428ad863" y="576.72"/>
      </g>
     </g>
     <g id="text_7">
      <!-- 30 -->
      <defs>
       <path d="M 40.578125 39.3125 
Q 47.65625 37.796875 51.625 33 
Q 55.609375 28.21875 55.609375 21.1875 
Q 55.609375 10.40625 48.1875 4.484375 
Q 40.765625 -1.421875 27.09375 -1.421875 
Q 22.515625 -1.421875 17.65625 -0.515625 
Q 12.796875 0.390625 7.625 2.203125 
L 7.625 11.71875 
Q 11.71875 9.328125 16.59375 8.109375 
Q 21.484375 6.890625 26.8125 6.890625 
Q 36.078125 6.890625 40.9375 10.546875 
Q 45.796875 14.203125 45.796875 21.1875 
Q 45.796875 27.640625 41.28125 31.265625 
Q 36.765625 34.90625 28.71875 34.90625 
L 20.21875 34.90625 
L 20.21875 43.015625 
L 29.109375 43.015625 
Q 36.375 43.015625 40.234375 45.921875 
Q 44.09375 48.828125 44.09375 54.296875 
Q 44.09375 59.90625 40.109375 62.90625 
Q 36.140625 65.921875 28.71875 65.921875 
Q 24.65625 65.921875 20.015625 65.03125 
Q 15.375 64.15625 9.8125 62.3125 
L 9.8125 71.09375 
Q 15.4375 72.65625 20.34375 73.4375 
Q 25.25 74.21875 29.59375 74.21875 
Q 40.828125 74.21875 47.359375 69.109375 
Q 53.90625 64.015625 53.90625 55.328125 
Q 53.90625 49.265625 50.4375 45.09375 
Q 46.96875 40.921875 40.578125 39.3125 
z
" id="DejaVuSans-33"/>
      </defs>
      <g transform="translate(731.257386 602.716094)scale(0.25 -0.25)">
       <use xlink:href="#DejaVuSans-33"/>
       <use x="63.623047" xlink:href="#DejaVuSans-30"/>
      </g>
     </g>
    </g>
    <g id="text_8">
     <!-- percentage of missing data -->
     <defs>
      <path d="M 18.109375 8.203125 
L 18.109375 -20.796875 
L 9.078125 -20.796875 
L 9.078125 54.6875 
L 18.109375 54.6875 
L 18.109375 46.390625 
Q 20.953125 51.265625 25.265625 53.625 
Q 29.59375 56 35.59375 56 
Q 45.5625 56 51.78125 48.09375 
Q 58.015625 40.1875 58.015625 27.296875 
Q 58.015625 14.40625 51.78125 6.484375 
Q 45.5625 -1.421875 35.59375 -1.421875 
Q 29.59375 -1.421875 25.265625 0.953125 
Q 20.953125 3.328125 18.109375 8.203125 
z
M 48.6875 27.296875 
Q 48.6875 37.203125 44.609375 42.84375 
Q 40.53125 48.484375 33.40625 48.484375 
Q 26.265625 48.484375 22.1875 42.84375 
Q 18.109375 37.203125 18.109375 27.296875 
Q 18.109375 17.390625 22.1875 11.75 
Q 26.265625 6.109375 33.40625 6.109375 
Q 40.53125 6.109375 44.609375 11.75 
Q 48.6875 17.390625 48.6875 27.296875 
z
" id="DejaVuSans-70"/>
      <path d="M 56.203125 29.59375 
L 56.203125 25.203125 
L 14.890625 25.203125 
Q 15.484375 15.921875 20.484375 11.0625 
Q 25.484375 6.203125 34.421875 6.203125 
Q 39.59375 6.203125 44.453125 7.46875 
Q 49.3125 8.734375 54.109375 11.28125 
L 54.109375 2.78125 
Q 49.265625 0.734375 44.1875 -0.34375 
Q 39.109375 -1.421875 33.890625 -1.421875 
Q 20.796875 -1.421875 13.15625 6.1875 
Q 5.515625 13.8125 5.515625 26.8125 
Q 5.515625 40.234375 12.765625 48.109375 
Q 20.015625 56 32.328125 56 
Q 43.359375 56 49.78125 48.890625 
Q 56.203125 41.796875 56.203125 29.59375 
z
M 47.21875 32.234375 
Q 47.125 39.59375 43.09375 43.984375 
Q 39.0625 48.390625 32.421875 48.390625 
Q 24.90625 48.390625 20.390625 44.140625 
Q 15.875 39.890625 15.1875 32.171875 
z
" id="DejaVuSans-65"/>
      <path d="M 41.109375 46.296875 
Q 39.59375 47.171875 37.8125 47.578125 
Q 36.03125 48 33.890625 48 
Q 26.265625 48 22.1875 43.046875 
Q 18.109375 38.09375 18.109375 28.8125 
L 18.109375 0 
L 9.078125 0 
L 9.078125 54.6875 
L 18.109375 54.6875 
L 18.109375 46.1875 
Q 20.953125 51.171875 25.484375 53.578125 
Q 30.03125 56 36.53125 56 
Q 37.453125 56 38.578125 55.875 
Q 39.703125 55.765625 41.0625 55.515625 
z
" id="DejaVuSans-72"/>
      <path d="M 48.78125 52.59375 
L 48.78125 44.1875 
Q 44.96875 46.296875 41.140625 47.34375 
Q 37.3125 48.390625 33.40625 48.390625 
Q 24.65625 48.390625 19.8125 42.84375 
Q 14.984375 37.3125 14.984375 27.296875 
Q 14.984375 17.28125 19.8125 11.734375 
Q 24.65625 6.203125 33.40625 6.203125 
Q 37.3125 6.203125 41.140625 7.25 
Q 44.96875 8.296875 48.78125 10.40625 
L 48.78125 2.09375 
Q 45.015625 0.34375 40.984375 -0.53125 
Q 36.96875 -1.421875 32.421875 -1.421875 
Q 20.0625 -1.421875 12.78125 6.34375 
Q 5.515625 14.109375 5.515625 27.296875 
Q 5.515625 40.671875 12.859375 48.328125 
Q 20.21875 56 33.015625 56 
Q 37.15625 56 41.109375 55.140625 
Q 45.0625 54.296875 48.78125 52.59375 
z
" id="DejaVuSans-63"/>
      <path d="M 54.890625 33.015625 
L 54.890625 0 
L 45.90625 0 
L 45.90625 32.71875 
Q 45.90625 40.484375 42.875 44.328125 
Q 39.84375 48.1875 33.796875 48.1875 
Q 26.515625 48.1875 22.3125 43.546875 
Q 18.109375 38.921875 18.109375 30.90625 
L 18.109375 0 
L 9.078125 0 
L 9.078125 54.6875 
L 18.109375 54.6875 
L 18.109375 46.1875 
Q 21.34375 51.125 25.703125 53.5625 
Q 30.078125 56 35.796875 56 
Q 45.21875 56 50.046875 50.171875 
Q 54.890625 44.34375 54.890625 33.015625 
z
" id="DejaVuSans-6e"/>
      <path d="M 18.3125 70.21875 
L 18.3125 54.6875 
L 36.8125 54.6875 
L 36.8125 47.703125 
L 18.3125 47.703125 
L 18.3125 18.015625 
Q 18.3125 11.328125 20.140625 9.421875 
Q 21.96875 7.515625 27.59375 7.515625 
L 36.8125 7.515625 
L 36.8125 0 
L 27.59375 0 
Q 17.1875 0 13.234375 3.875 
Q 9.28125 7.765625 9.28125 18.015625 
L 9.28125 47.703125 
L 2.6875 47.703125 
L 2.6875 54.6875 
L 9.28125 54.6875 
L 9.28125 70.21875 
z
" id="DejaVuSans-74"/>
      <path d="M 34.28125 27.484375 
Q 23.390625 27.484375 19.1875 25 
Q 14.984375 22.515625 14.984375 16.5 
Q 14.984375 11.71875 18.140625 8.90625 
Q 21.296875 6.109375 26.703125 6.109375 
Q 34.1875 6.109375 38.703125 11.40625 
Q 43.21875 16.703125 43.21875 25.484375 
L 43.21875 27.484375 
z
M 52.203125 31.203125 
L 52.203125 0 
L 43.21875 0 
L 43.21875 8.296875 
Q 40.140625 3.328125 35.546875 0.953125 
Q 30.953125 -1.421875 24.3125 -1.421875 
Q 15.921875 -1.421875 10.953125 3.296875 
Q 6 8.015625 6 15.921875 
Q 6 25.140625 12.171875 29.828125 
Q 18.359375 34.515625 30.609375 34.515625 
L 43.21875 34.515625 
L 43.21875 35.40625 
Q 43.21875 41.609375 39.140625 45 
Q 35.0625 48.390625 27.6875 48.390625 
Q 23 48.390625 18.546875 47.265625 
Q 14.109375 46.140625 10.015625 43.890625 
L 10.015625 52.203125 
Q 14.9375 54.109375 19.578125 55.046875 
Q 24.21875 56 28.609375 56 
Q 40.484375 56 46.34375 49.84375 
Q 52.203125 43.703125 52.203125 31.203125 
z
" id="DejaVuSans-61"/>
      <path d="M 45.40625 27.984375 
Q 45.40625 37.75 41.375 43.109375 
Q 37.359375 48.484375 30.078125 48.484375 
Q 22.859375 48.484375 18.828125 43.109375 
Q 14.796875 37.75 14.796875 27.984375 
Q 14.796875 18.265625 18.828125 12.890625 
Q 22.859375 7.515625 30.078125 7.515625 
Q 37.359375 7.515625 41.375 12.890625 
Q 45.40625 18.265625 45.40625 27.984375 
z
M 54.390625 6.78125 
Q 54.390625 -7.171875 48.1875 -13.984375 
Q 42 -20.796875 29.203125 -20.796875 
Q 24.46875 -20.796875 20.265625 -20.09375 
Q 16.0625 -19.390625 12.109375 -17.921875 
L 12.109375 -9.1875 
Q 16.0625 -11.328125 19.921875 -12.34375 
Q 23.78125 -13.375 27.78125 -13.375 
Q 36.625 -13.375 41.015625 -8.765625 
Q 45.40625 -4.15625 45.40625 5.171875 
L 45.40625 9.625 
Q 42.625 4.78125 38.28125 2.390625 
Q 33.9375 0 27.875 0 
Q 17.828125 0 11.671875 7.65625 
Q 5.515625 15.328125 5.515625 27.984375 
Q 5.515625 40.671875 11.671875 48.328125 
Q 17.828125 56 27.875 56 
Q 33.9375 56 38.28125 53.609375 
Q 42.625 51.21875 45.40625 46.390625 
L 45.40625 54.6875 
L 54.390625 54.6875 
z
" id="DejaVuSans-67"/>
      <path id="DejaVuSans-20"/>
      <path d="M 30.609375 48.390625 
Q 23.390625 48.390625 19.1875 42.75 
Q 14.984375 37.109375 14.984375 27.296875 
Q 14.984375 17.484375 19.15625 11.84375 
Q 23.34375 6.203125 30.609375 6.203125 
Q 37.796875 6.203125 41.984375 11.859375 
Q 46.1875 17.53125 46.1875 27.296875 
Q 46.1875 37.015625 41.984375 42.703125 
Q 37.796875 48.390625 30.609375 48.390625 
z
M 30.609375 56 
Q 42.328125 56 49.015625 48.375 
Q 55.71875 40.765625 55.71875 27.296875 
Q 55.71875 13.875 49.015625 6.21875 
Q 42.328125 -1.421875 30.609375 -1.421875 
Q 18.84375 -1.421875 12.171875 6.21875 
Q 5.515625 13.875 5.515625 27.296875 
Q 5.515625 40.765625 12.171875 48.375 
Q 18.84375 56 30.609375 56 
z
" id="DejaVuSans-6f"/>
      <path d="M 37.109375 75.984375 
L 37.109375 68.5 
L 28.515625 68.5 
Q 23.6875 68.5 21.796875 66.546875 
Q 19.921875 64.59375 19.921875 59.515625 
L 19.921875 54.6875 
L 34.71875 54.6875 
L 34.71875 47.703125 
L 19.921875 47.703125 
L 19.921875 0 
L 10.890625 0 
L 10.890625 47.703125 
L 2.296875 47.703125 
L 2.296875 54.6875 
L 10.890625 54.6875 
L 10.890625 58.5 
Q 10.890625 67.625 15.140625 71.796875 
Q 19.390625 75.984375 28.609375 75.984375 
z
" id="DejaVuSans-66"/>
      <path d="M 52 44.1875 
Q 55.375 50.25 60.0625 53.125 
Q 64.75 56 71.09375 56 
Q 79.640625 56 84.28125 50.015625 
Q 88.921875 44.046875 88.921875 33.015625 
L 88.921875 0 
L 79.890625 0 
L 79.890625 32.71875 
Q 79.890625 40.578125 77.09375 44.375 
Q 74.3125 48.1875 68.609375 48.1875 
Q 61.625 48.1875 57.5625 43.546875 
Q 53.515625 38.921875 53.515625 30.90625 
L 53.515625 0 
L 44.484375 0 
L 44.484375 32.71875 
Q 44.484375 40.625 41.703125 44.40625 
Q 38.921875 48.1875 33.109375 48.1875 
Q 26.21875 48.1875 22.15625 43.53125 
Q 18.109375 38.875 18.109375 30.90625 
L 18.109375 0 
L 9.078125 0 
L 9.078125 54.6875 
L 18.109375 54.6875 
L 18.109375 46.1875 
Q 21.1875 51.21875 25.484375 53.609375 
Q 29.78125 56 35.6875 56 
Q 41.65625 56 45.828125 52.96875 
Q 50 49.953125 52 44.1875 
z
" id="DejaVuSans-6d"/>
      <path d="M 9.421875 54.6875 
L 18.40625 54.6875 
L 18.40625 0 
L 9.421875 0 
z
M 9.421875 75.984375 
L 18.40625 75.984375 
L 18.40625 64.59375 
L 9.421875 64.59375 
z
" id="DejaVuSans-69"/>
      <path d="M 44.28125 53.078125 
L 44.28125 44.578125 
Q 40.484375 46.53125 36.375 47.5 
Q 32.28125 48.484375 27.875 48.484375 
Q 21.1875 48.484375 17.84375 46.4375 
Q 14.5 44.390625 14.5 40.28125 
Q 14.5 37.15625 16.890625 35.375 
Q 19.28125 33.59375 26.515625 31.984375 
L 29.59375 31.296875 
Q 39.15625 29.25 43.1875 25.515625 
Q 47.21875 21.78125 47.21875 15.09375 
Q 47.21875 7.46875 41.1875 3.015625 
Q 35.15625 -1.421875 24.609375 -1.421875 
Q 20.21875 -1.421875 15.453125 -0.5625 
Q 10.6875 0.296875 5.421875 2 
L 5.421875 11.28125 
Q 10.40625 8.6875 15.234375 7.390625 
Q 20.0625 6.109375 24.8125 6.109375 
Q 31.15625 6.109375 34.5625 8.28125 
Q 37.984375 10.453125 37.984375 14.40625 
Q 37.984375 18.0625 35.515625 20.015625 
Q 33.0625 21.96875 24.703125 23.78125 
L 21.578125 24.515625 
Q 13.234375 26.265625 9.515625 29.90625 
Q 5.8125 33.546875 5.8125 39.890625 
Q 5.8125 47.609375 11.28125 51.796875 
Q 16.75 56 26.8125 56 
Q 31.78125 56 36.171875 55.265625 
Q 40.578125 54.546875 44.28125 53.078125 
z
" id="DejaVuSans-73"/>
      <path d="M 45.40625 46.390625 
L 45.40625 75.984375 
L 54.390625 75.984375 
L 54.390625 0 
L 45.40625 0 
L 45.40625 8.203125 
Q 42.578125 3.328125 38.25 0.953125 
Q 33.9375 -1.421875 27.875 -1.421875 
Q 17.96875 -1.421875 11.734375 6.484375 
Q 5.515625 14.40625 5.515625 27.296875 
Q 5.515625 40.1875 11.734375 48.09375 
Q 17.96875 56 27.875 56 
Q 33.9375 56 38.25 53.625 
Q 42.578125 51.265625 45.40625 46.390625 
z
M 14.796875 27.296875 
Q 14.796875 17.390625 18.875 11.75 
Q 22.953125 6.109375 30.078125 6.109375 
Q 37.203125 6.109375 41.296875 11.75 
Q 45.40625 17.390625 45.40625 27.296875 
Q 45.40625 37.203125 41.296875 42.84375 
Q 37.203125 48.484375 30.078125 48.484375 
Q 22.953125 48.484375 18.875 42.84375 
Q 14.796875 37.203125 14.796875 27.296875 
z
" id="DejaVuSans-64"/>
     </defs>
     <g transform="translate(271.239453 630.911406)scale(0.25 -0.25)">
      <use xlink:href="#DejaVuSans-70"/>
      <use x="63.476562" xlink:href="#DejaVuSans-65"/>
      <use x="125" xlink:href="#DejaVuSans-72"/>
      <use x="166.082031" xlink:href="#DejaVuSans-63"/>
      <use x="221.0625" xlink:href="#DejaVuSans-65"/>
      <use x="282.585938" xlink:href="#DejaVuSans-6e"/>
      <use x="345.964844" xlink:href="#DejaVuSans-74"/>
      <use x="385.173828" xlink:href="#DejaVuSans-61"/>
      <use x="446.453125" xlink:href="#DejaVuSans-67"/>
      <use x="509.929688" xlink:href="#DejaVuSans-65"/>
      <use x="571.453125" xlink:href="#DejaVuSans-20"/>
      <use x="603.240234" xlink:href="#DejaVuSans-6f"/>
      <use x="664.421875" xlink:href="#DejaVuSans-66"/>
      <use x="699.626953" xlink:href="#DejaVuSans-20"/>
      <use x="731.414062" xlink:href="#DejaVuSans-6d"/>
      <use x="828.826172" xlink:href="#DejaVuSans-69"/>
      <use x="856.609375" xlink:href="#DejaVuSans-73"/>
      <use x="908.708984" xlink:href="#DejaVuSans-73"/>
      <use x="960.808594" xlink:href="#DejaVuSans-69"/>
      <use x="988.591797" xlink:href="#DejaVuSans-6e"/>
      <use x="1051.970703" xlink:href="#DejaVuSans-67"/>
      <use x="1115.447266" xlink:href="#DejaVuSans-20"/>
      <use x="1147.234375" xlink:href="#DejaVuSans-64"/>
      <use x="1210.710938" xlink:href="#DejaVuSans-61"/>
      <use x="1271.990234" xlink:href="#DejaVuSans-74"/>
      <use x="1311.199219" xlink:href="#DejaVuSans-61"/>
     </g>
    </g>
   </g>
   <g id="matplotlib.axis_2">
    <g id="ytick_1">
     <g id="line2d_8">
      <defs>
       <path d="M 0 0 
L -3.5 0 
" id="ma818e4b3c2" style="stroke:#000000;stroke-width:0.8;"/>
      </defs>
      <g>
       <use style="stroke:#000000;stroke-width:0.8;" x="108" xlink:href="#ma818e4b3c2" y="576.72"/>
      </g>
     </g>
     <g id="text_9">
      <!-- 0.0 -->
      <defs>
       <path d="M 10.6875 12.40625 
L 21 12.40625 
L 21 0 
L 10.6875 0 
z
" id="DejaVuSans-2e"/>
      </defs>
      <g transform="translate(61.242188 586.218047)scale(0.25 -0.25)">
       <use xlink:href="#DejaVuSans-30"/>
       <use x="63.623047" xlink:href="#DejaVuSans-2e"/>
       <use x="95.410156" xlink:href="#DejaVuSans-30"/>
      </g>
     </g>
    </g>
    <g id="ytick_2">
     <g id="line2d_9">
      <g>
       <use style="stroke:#000000;stroke-width:0.8;" x="108" xlink:href="#ma818e4b3c2" y="477.91604"/>
      </g>
     </g>
     <g id="text_10">
      <!-- 0.2 -->
      <g transform="translate(61.242188 487.414086)scale(0.25 -0.25)">
       <use xlink:href="#DejaVuSans-30"/>
       <use x="63.623047" xlink:href="#DejaVuSans-2e"/>
       <use x="95.410156" xlink:href="#DejaVuSans-32"/>
      </g>
     </g>
    </g>
    <g id="ytick_3">
     <g id="line2d_10">
      <g>
       <use style="stroke:#000000;stroke-width:0.8;" x="108" xlink:href="#ma818e4b3c2" y="379.112079"/>
      </g>
     </g>
     <g id="text_11">
      <!-- 0.4 -->
      <defs>
       <path d="M 37.796875 64.3125 
L 12.890625 25.390625 
L 37.796875 25.390625 
z
M 35.203125 72.90625 
L 47.609375 72.90625 
L 47.609375 25.390625 
L 58.015625 25.390625 
L 58.015625 17.1875 
L 47.609375 17.1875 
L 47.609375 0 
L 37.796875 0 
L 37.796875 17.1875 
L 4.890625 17.1875 
L 4.890625 26.703125 
z
" id="DejaVuSans-34"/>
      </defs>
      <g transform="translate(61.242188 388.610126)scale(0.25 -0.25)">
       <use xlink:href="#DejaVuSans-30"/>
       <use x="63.623047" xlink:href="#DejaVuSans-2e"/>
       <use x="95.410156" xlink:href="#DejaVuSans-34"/>
      </g>
     </g>
    </g>
    <g id="ytick_4">
     <g id="line2d_11">
      <g>
       <use style="stroke:#000000;stroke-width:0.8;" x="108" xlink:href="#ma818e4b3c2" y="280.308119"/>
      </g>
     </g>
     <g id="text_12">
      <!-- 0.6 -->
      <defs>
       <path d="M 33.015625 40.375 
Q 26.375 40.375 22.484375 35.828125 
Q 18.609375 31.296875 18.609375 23.390625 
Q 18.609375 15.53125 22.484375 10.953125 
Q 26.375 6.390625 33.015625 6.390625 
Q 39.65625 6.390625 43.53125 10.953125 
Q 47.40625 15.53125 47.40625 23.390625 
Q 47.40625 31.296875 43.53125 35.828125 
Q 39.65625 40.375 33.015625 40.375 
z
M 52.59375 71.296875 
L 52.59375 62.3125 
Q 48.875 64.0625 45.09375 64.984375 
Q 41.3125 65.921875 37.59375 65.921875 
Q 27.828125 65.921875 22.671875 59.328125 
Q 17.53125 52.734375 16.796875 39.40625 
Q 19.671875 43.65625 24.015625 45.921875 
Q 28.375 48.1875 33.59375 48.1875 
Q 44.578125 48.1875 50.953125 41.515625 
Q 57.328125 34.859375 57.328125 23.390625 
Q 57.328125 12.15625 50.6875 5.359375 
Q 44.046875 -1.421875 33.015625 -1.421875 
Q 20.359375 -1.421875 13.671875 8.265625 
Q 6.984375 17.96875 6.984375 36.375 
Q 6.984375 53.65625 15.1875 63.9375 
Q 23.390625 74.21875 37.203125 74.21875 
Q 40.921875 74.21875 44.703125 73.484375 
Q 48.484375 72.75 52.59375 71.296875 
z
" id="DejaVuSans-36"/>
      </defs>
      <g transform="translate(61.242188 289.806166)scale(0.25 -0.25)">
       <use xlink:href="#DejaVuSans-30"/>
       <use x="63.623047" xlink:href="#DejaVuSans-2e"/>
       <use x="95.410156" xlink:href="#DejaVuSans-36"/>
      </g>
     </g>
    </g>
    <g id="ytick_5">
     <g id="line2d_12">
      <g>
       <use style="stroke:#000000;stroke-width:0.8;" x="108" xlink:href="#ma818e4b3c2" y="181.504158"/>
      </g>
     </g>
     <g id="text_13">
      <!-- 0.8 -->
      <defs>
       <path d="M 31.78125 34.625 
Q 24.75 34.625 20.71875 30.859375 
Q 16.703125 27.09375 16.703125 20.515625 
Q 16.703125 13.921875 20.71875 10.15625 
Q 24.75 6.390625 31.78125 6.390625 
Q 38.8125 6.390625 42.859375 10.171875 
Q 46.921875 13.96875 46.921875 20.515625 
Q 46.921875 27.09375 42.890625 30.859375 
Q 38.875 34.625 31.78125 34.625 
z
M 21.921875 38.8125 
Q 15.578125 40.375 12.03125 44.71875 
Q 8.5 49.078125 8.5 55.328125 
Q 8.5 64.0625 14.71875 69.140625 
Q 20.953125 74.21875 31.78125 74.21875 
Q 42.671875 74.21875 48.875 69.140625 
Q 55.078125 64.0625 55.078125 55.328125 
Q 55.078125 49.078125 51.53125 44.71875 
Q 48 40.375 41.703125 38.8125 
Q 48.828125 37.15625 52.796875 32.3125 
Q 56.78125 27.484375 56.78125 20.515625 
Q 56.78125 9.90625 50.3125 4.234375 
Q 43.84375 -1.421875 31.78125 -1.421875 
Q 19.734375 -1.421875 13.25 4.234375 
Q 6.78125 9.90625 6.78125 20.515625 
Q 6.78125 27.484375 10.78125 32.3125 
Q 14.796875 37.15625 21.921875 38.8125 
z
M 18.3125 54.390625 
Q 18.3125 48.734375 21.84375 45.5625 
Q 25.390625 42.390625 31.78125 42.390625 
Q 38.140625 42.390625 41.71875 45.5625 
Q 45.3125 48.734375 45.3125 54.390625 
Q 45.3125 60.0625 41.71875 63.234375 
Q 38.140625 66.40625 31.78125 66.40625 
Q 25.390625 66.40625 21.84375 63.234375 
Q 18.3125 60.0625 18.3125 54.390625 
z
" id="DejaVuSans-38"/>
      </defs>
      <g transform="translate(61.242188 191.002205)scale(0.25 -0.25)">
       <use xlink:href="#DejaVuSans-30"/>
       <use x="63.623047" xlink:href="#DejaVuSans-2e"/>
       <use x="95.410156" xlink:href="#DejaVuSans-38"/>
      </g>
     </g>
    </g>
    <g id="ytick_6">
     <g id="line2d_13">
      <g>
       <use style="stroke:#000000;stroke-width:0.8;" x="108" xlink:href="#ma818e4b3c2" y="82.700198"/>
      </g>
     </g>
     <g id="text_14">
      <!-- 1.0 -->
      <g transform="translate(61.242188 92.198245)scale(0.25 -0.25)">
       <use xlink:href="#DejaVuSans-31"/>
       <use x="63.623047" xlink:href="#DejaVuSans-2e"/>
       <use x="95.410156" xlink:href="#DejaVuSans-30"/>
      </g>
     </g>
    </g>
    <g id="text_15">
     <!-- Effectiveness -->
     <defs>
      <path d="M 9.8125 72.90625 
L 55.90625 72.90625 
L 55.90625 64.59375 
L 19.671875 64.59375 
L 19.671875 43.015625 
L 54.390625 43.015625 
L 54.390625 34.71875 
L 19.671875 34.71875 
L 19.671875 8.296875 
L 56.78125 8.296875 
L 56.78125 0 
L 9.8125 0 
z
" id="DejaVuSans-45"/>
      <path d="M 2.984375 54.6875 
L 12.5 54.6875 
L 29.59375 8.796875 
L 46.6875 54.6875 
L 56.203125 54.6875 
L 35.6875 0 
L 23.484375 0 
z
" id="DejaVuSans-76"/>
     </defs>
     <g transform="translate(52.042969 410.603281)rotate(-90)scale(0.25 -0.25)">
      <use xlink:href="#DejaVuSans-45"/>
      <use x="63.183594" xlink:href="#DejaVuSans-66"/>
      <use x="98.388672" xlink:href="#DejaVuSans-66"/>
      <use x="133.59375" xlink:href="#DejaVuSans-65"/>
      <use x="195.117188" xlink:href="#DejaVuSans-63"/>
      <use x="250.097656" xlink:href="#DejaVuSans-74"/>
      <use x="289.306641" xlink:href="#DejaVuSans-69"/>
      <use x="317.089844" xlink:href="#DejaVuSans-76"/>
      <use x="376.269531" xlink:href="#DejaVuSans-65"/>
      <use x="437.792969" xlink:href="#DejaVuSans-6e"/>
      <use x="501.171875" xlink:href="#DejaVuSans-65"/>
      <use x="562.695312" xlink:href="#DejaVuSans-73"/>
      <use x="614.794922" xlink:href="#DejaVuSans-73"/>
     </g>
    </g>
   </g>
   <g id="line2d_14">
    <path clip-path="url(#p51bc2e5958)" d="M 138.436364 82.700198 
L 239.890909 151.86297 
L 341.345455 176.56396 
L 442.8 194.980814 
L 544.254545 215.739203 
L 645.709091 235.941058 
L 747.163636 251.631744 
" style="fill:none;stroke:#ff0000;stroke-dasharray:12.8,3.2,2,3.2;stroke-dashoffset:0;stroke-width:2;"/>
    <defs>
     <path d="M -6 -0 
L 6 6 
L 6 -6 
z
" id="m699455e091" style="stroke:#ff0000;stroke-linejoin:miter;"/>
    </defs>
    <g clip-path="url(#p51bc2e5958)">
     <use style="fill:#ff0000;stroke:#ff0000;stroke-linejoin:miter;" x="138.436364" xlink:href="#m699455e091" y="82.700198"/>
     <use style="fill:#ff0000;stroke:#ff0000;stroke-linejoin:miter;" x="239.890909" xlink:href="#m699455e091" y="151.86297"/>
     <use style="fill:#ff0000;stroke:#ff0000;stroke-linejoin:miter;" x="341.345455" xlink:href="#m699455e091" y="176.56396"/>
     <use style="fill:#ff0000;stroke:#ff0000;stroke-linejoin:miter;" x="442.8" xlink:href="#m699455e091" y="194.980814"/>
     <use style="fill:#ff0000;stroke:#ff0000;stroke-linejoin:miter;" x="544.254545" xlink:href="#m699455e091" y="215.739203"/>
     <use style="fill:#ff0000;stroke:#ff0000;stroke-linejoin:miter;" x="645.709091" xlink:href="#m699455e091" y="235.941058"/>
     <use style="fill:#ff0000;stroke:#ff0000;stroke-linejoin:miter;" x="747.163636" xlink:href="#m699455e091" y="251.631744"/>
    </g>
   </g>
   <g id="line2d_15">
    <path clip-path="url(#p51bc2e5958)" d="M 138.436364 82.700198 
L 239.890909 113.477632 
L 341.345455 126.687614 
L 442.8 146.733403 
L 544.254545 166.650112 
L 645.709091 192.043694 
L 747.163636 210.166962 
" style="fill:none;stroke:#0d948f;stroke-dasharray:2,3.3;stroke-dashoffset:0;stroke-width:2;"/>
    <defs>
     <path d="M 0 -6 
L -1.347084 -1.854102 
L -5.706339 -1.854102 
L -2.179628 0.708204 
L -3.526712 4.854102 
L -0 2.291796 
L 3.526712 4.854102 
L 2.179628 0.708204 
L 5.706339 -1.854102 
L 1.347084 -1.854102 
z
" id="mb3e2d3338a" style="stroke:#0d948f;stroke-linejoin:bevel;"/>
    </defs>
    <g clip-path="url(#p51bc2e5958)">
     <use style="fill:#0d948f;stroke:#0d948f;stroke-linejoin:bevel;" x="138.436364" xlink:href="#mb3e2d3338a" y="82.700198"/>
     <use style="fill:#0d948f;stroke:#0d948f;stroke-linejoin:bevel;" x="239.890909" xlink:href="#mb3e2d3338a" y="113.477632"/>
     <use style="fill:#0d948f;stroke:#0d948f;stroke-linejoin:bevel;" x="341.345455" xlink:href="#mb3e2d3338a" y="126.687614"/>
     <use style="fill:#0d948f;stroke:#0d948f;stroke-linejoin:bevel;" x="442.8" xlink:href="#mb3e2d3338a" y="146.733403"/>
     <use style="fill:#0d948f;stroke:#0d948f;stroke-linejoin:bevel;" x="544.254545" xlink:href="#mb3e2d3338a" y="166.650112"/>
     <use style="fill:#0d948f;stroke:#0d948f;stroke-linejoin:bevel;" x="645.709091" xlink:href="#mb3e2d3338a" y="192.043694"/>
     <use style="fill:#0d948f;stroke:#0d948f;stroke-linejoin:bevel;" x="747.163636" xlink:href="#mb3e2d3338a" y="210.166962"/>
    </g>
   </g>
   <g id="line2d_16">
    <path clip-path="url(#p51bc2e5958)" d="M 138.436364 82.700198 
L 239.890909 123.209822 
L 341.345455 138.030416 
L 442.8 157.791208 
L 544.254545 176.208061 
L 645.709091 196.96645 
L 747.163636 217.168306 
" style="fill:none;stroke:#9c730e;stroke-linecap:square;stroke-width:2;"/>
    <defs>
     <path d="M -6 0 
L 6 0 
M 0 6 
L 0 -6 
" id="m3843a4f1a6" style="stroke:#9c730e;"/>
    </defs>
    <g clip-path="url(#p51bc2e5958)">
     <use style="fill:#9c730e;stroke:#9c730e;" x="138.436364" xlink:href="#m3843a4f1a6" y="82.700198"/>
     <use style="fill:#9c730e;stroke:#9c730e;" x="239.890909" xlink:href="#m3843a4f1a6" y="123.209822"/>
     <use style="fill:#9c730e;stroke:#9c730e;" x="341.345455" xlink:href="#m3843a4f1a6" y="138.030416"/>
     <use style="fill:#9c730e;stroke:#9c730e;" x="442.8" xlink:href="#m3843a4f1a6" y="157.791208"/>
     <use style="fill:#9c730e;stroke:#9c730e;" x="544.254545" xlink:href="#m3843a4f1a6" y="176.208061"/>
     <use style="fill:#9c730e;stroke:#9c730e;" x="645.709091" xlink:href="#m3843a4f1a6" y="196.96645"/>
     <use style="fill:#9c730e;stroke:#9c730e;" x="747.163636" xlink:href="#m3843a4f1a6" y="217.168306"/>
    </g>
   </g>
   <g id="line2d_17">
    <path clip-path="url(#p51bc2e5958)" d="M 138.436364 82.700198 
L 239.890909 171.966656 
L 341.345455 202.101154 
L 442.8 238.268306 
L 544.254545 273.890103 
L 645.709091 306.474086 
L 747.163636 350.071219 
" style="fill:none;stroke:#008000;stroke-dasharray:7.4,3.2;stroke-dashoffset:0;stroke-width:2;"/>
    <defs>
     <path d="M 0 6 
C 1.591219 6 3.117479 5.367802 4.242641 4.242641 
C 5.367802 3.117479 6 1.591219 6 0 
C 6 -1.591219 5.367802 -3.117479 4.242641 -4.242641 
C 3.117479 -5.367802 1.591219 -6 0 -6 
C -1.591219 -6 -3.117479 -5.367802 -4.242641 -4.242641 
C -5.367802 -3.117479 -6 -1.591219 -6 0 
C -6 1.591219 -5.367802 3.117479 -4.242641 4.242641 
C -3.117479 5.367802 -1.591219 6 0 6 
z
" id="m2b73aaa26b" style="stroke:#008000;"/>
    </defs>
    <g clip-path="url(#p51bc2e5958)">
     <use style="fill:#008000;stroke:#008000;" x="138.436364" xlink:href="#m2b73aaa26b" y="82.700198"/>
     <use style="fill:#008000;stroke:#008000;" x="239.890909" xlink:href="#m2b73aaa26b" y="171.966656"/>
     <use style="fill:#008000;stroke:#008000;" x="341.345455" xlink:href="#m2b73aaa26b" y="202.101154"/>
     <use style="fill:#008000;stroke:#008000;" x="442.8" xlink:href="#m2b73aaa26b" y="238.268306"/>
     <use style="fill:#008000;stroke:#008000;" x="544.254545" xlink:href="#m2b73aaa26b" y="273.890103"/>
     <use style="fill:#008000;stroke:#008000;" x="645.709091" xlink:href="#m2b73aaa26b" y="306.474086"/>
     <use style="fill:#008000;stroke:#008000;" x="747.163636" xlink:href="#m2b73aaa26b" y="350.071219"/>
    </g>
   </g>
   <g id="line2d_18">
    <path clip-path="url(#p51bc2e5958)" d="M 138.436364 82.700198 
L 239.890909 185.818386 
L 341.345455 230.906139 
L 442.8 280.308119 
L 544.254545 319.829703 
L 645.709091 344.530693 
L 747.163636 379.112079 
" style="fill:none;stroke:#000000;stroke-dasharray:2,3.3;stroke-dashoffset:0;stroke-width:2;"/>
    <defs>
     <path d="M -6 6 
L 6 -6 
M -6 -6 
L 6 6 
" id="m12957735c6" style="stroke:#000000;"/>
    </defs>
    <g clip-path="url(#p51bc2e5958)">
     <use style="stroke:#000000;" x="138.436364" xlink:href="#m12957735c6" y="82.700198"/>
     <use style="stroke:#000000;" x="239.890909" xlink:href="#m12957735c6" y="185.818386"/>
     <use style="stroke:#000000;" x="341.345455" xlink:href="#m12957735c6" y="230.906139"/>
     <use style="stroke:#000000;" x="442.8" xlink:href="#m12957735c6" y="280.308119"/>
     <use style="stroke:#000000;" x="544.254545" xlink:href="#m12957735c6" y="319.829703"/>
     <use style="stroke:#000000;" x="645.709091" xlink:href="#m12957735c6" y="344.530693"/>
     <use style="stroke:#000000;" x="747.163636" xlink:href="#m12957735c6" y="379.112079"/>
    </g>
   </g>
   <g id="patch_3">
    <path d="M 108 576.72 
L 108 77.76 
" style="fill:none;stroke:#000000;stroke-linecap:square;stroke-linejoin:miter;stroke-width:0.8;"/>
   </g>
   <g id="patch_4">
    <path d="M 108 576.72 
L 777.6 576.72 
" style="fill:none;stroke:#000000;stroke-linecap:square;stroke-linejoin:miter;stroke-width:0.8;"/>
   </g>
   <g id="legend_1">
    <g id="line2d_19">
     <path d="M 130.5 392.184844 
L 180.5 392.184844 
" style="fill:none;stroke:#ff0000;stroke-dasharray:12.8,3.2,2,3.2;stroke-dashoffset:0;stroke-width:2;"/>
    </g>
    <g id="line2d_20">
     <g>
      <use style="fill:#ff0000;stroke:#ff0000;stroke-linejoin:miter;" x="155.5" xlink:href="#m699455e091" y="392.184844"/>
     </g>
    </g>
    <g id="text_16">
     <!-- Bottom-up OptimizeContrib default setting -->
     <defs>
      <path d="M 19.671875 34.8125 
L 19.671875 8.109375 
L 35.5 8.109375 
Q 43.453125 8.109375 47.28125 11.40625 
Q 51.125 14.703125 51.125 21.484375 
Q 51.125 28.328125 47.28125 31.5625 
Q 43.453125 34.8125 35.5 34.8125 
z
M 19.671875 64.796875 
L 19.671875 42.828125 
L 34.28125 42.828125 
Q 41.5 42.828125 45.03125 45.53125 
Q 48.578125 48.25 48.578125 53.8125 
Q 48.578125 59.328125 45.03125 62.0625 
Q 41.5 64.796875 34.28125 64.796875 
z
M 9.8125 72.90625 
L 35.015625 72.90625 
Q 46.296875 72.90625 52.390625 68.21875 
Q 58.5 63.53125 58.5 54.890625 
Q 58.5 48.1875 55.375 44.234375 
Q 52.25 40.28125 46.1875 39.3125 
Q 53.46875 37.75 57.5 32.78125 
Q 61.53125 27.828125 61.53125 20.40625 
Q 61.53125 10.640625 54.890625 5.3125 
Q 48.25 0 35.984375 0 
L 9.8125 0 
z
" id="DejaVuSans-42"/>
      <path d="M 4.890625 31.390625 
L 31.203125 31.390625 
L 31.203125 23.390625 
L 4.890625 23.390625 
z
" id="DejaVuSans-2d"/>
      <path d="M 8.5 21.578125 
L 8.5 54.6875 
L 17.484375 54.6875 
L 17.484375 21.921875 
Q 17.484375 14.15625 20.5 10.265625 
Q 23.53125 6.390625 29.59375 6.390625 
Q 36.859375 6.390625 41.078125 11.03125 
Q 45.3125 15.671875 45.3125 23.6875 
L 45.3125 54.6875 
L 54.296875 54.6875 
L 54.296875 0 
L 45.3125 0 
L 45.3125 8.40625 
Q 42.046875 3.421875 37.71875 1 
Q 33.40625 -1.421875 27.6875 -1.421875 
Q 18.265625 -1.421875 13.375 4.4375 
Q 8.5 10.296875 8.5 21.578125 
z
M 31.109375 56 
z
" id="DejaVuSans-75"/>
      <path d="M 39.40625 66.21875 
Q 28.65625 66.21875 22.328125 58.203125 
Q 16.015625 50.203125 16.015625 36.375 
Q 16.015625 22.609375 22.328125 14.59375 
Q 28.65625 6.59375 39.40625 6.59375 
Q 50.140625 6.59375 56.421875 14.59375 
Q 62.703125 22.609375 62.703125 36.375 
Q 62.703125 50.203125 56.421875 58.203125 
Q 50.140625 66.21875 39.40625 66.21875 
z
M 39.40625 74.21875 
Q 54.734375 74.21875 63.90625 63.9375 
Q 73.09375 53.65625 73.09375 36.375 
Q 73.09375 19.140625 63.90625 8.859375 
Q 54.734375 -1.421875 39.40625 -1.421875 
Q 24.03125 -1.421875 14.8125 8.828125 
Q 5.609375 19.09375 5.609375 36.375 
Q 5.609375 53.65625 14.8125 63.9375 
Q 24.03125 74.21875 39.40625 74.21875 
z
" id="DejaVuSans-4f"/>
      <path d="M 5.515625 54.6875 
L 48.1875 54.6875 
L 48.1875 46.484375 
L 14.40625 7.171875 
L 48.1875 7.171875 
L 48.1875 0 
L 4.296875 0 
L 4.296875 8.203125 
L 38.09375 47.515625 
L 5.515625 47.515625 
z
" id="DejaVuSans-7a"/>
      <path d="M 64.40625 67.28125 
L 64.40625 56.890625 
Q 59.421875 61.53125 53.78125 63.8125 
Q 48.140625 66.109375 41.796875 66.109375 
Q 29.296875 66.109375 22.65625 58.46875 
Q 16.015625 50.828125 16.015625 36.375 
Q 16.015625 21.96875 22.65625 14.328125 
Q 29.296875 6.6875 41.796875 6.6875 
Q 48.140625 6.6875 53.78125 8.984375 
Q 59.421875 11.28125 64.40625 15.921875 
L 64.40625 5.609375 
Q 59.234375 2.09375 53.4375 0.328125 
Q 47.65625 -1.421875 41.21875 -1.421875 
Q 24.65625 -1.421875 15.125 8.703125 
Q 5.609375 18.84375 5.609375 36.375 
Q 5.609375 53.953125 15.125 64.078125 
Q 24.65625 74.21875 41.21875 74.21875 
Q 47.75 74.21875 53.53125 72.484375 
Q 59.328125 70.75 64.40625 67.28125 
z
" id="DejaVuSans-43"/>
      <path d="M 48.6875 27.296875 
Q 48.6875 37.203125 44.609375 42.84375 
Q 40.53125 48.484375 33.40625 48.484375 
Q 26.265625 48.484375 22.1875 42.84375 
Q 18.109375 37.203125 18.109375 27.296875 
Q 18.109375 17.390625 22.1875 11.75 
Q 26.265625 6.109375 33.40625 6.109375 
Q 40.53125 6.109375 44.609375 11.75 
Q 48.6875 17.390625 48.6875 27.296875 
z
M 18.109375 46.390625 
Q 20.953125 51.265625 25.265625 53.625 
Q 29.59375 56 35.59375 56 
Q 45.5625 56 51.78125 48.09375 
Q 58.015625 40.1875 58.015625 27.296875 
Q 58.015625 14.40625 51.78125 6.484375 
Q 45.5625 -1.421875 35.59375 -1.421875 
Q 29.59375 -1.421875 25.265625 0.953125 
Q 20.953125 3.328125 18.109375 8.203125 
L 18.109375 0 
L 9.078125 0 
L 9.078125 75.984375 
L 18.109375 75.984375 
z
" id="DejaVuSans-62"/>
      <path d="M 9.421875 75.984375 
L 18.40625 75.984375 
L 18.40625 0 
L 9.421875 0 
z
" id="DejaVuSans-6c"/>
     </defs>
     <g transform="translate(200.5 400.934844)scale(0.25 -0.25)">
      <use xlink:href="#DejaVuSans-42"/>
      <use x="68.603516" xlink:href="#DejaVuSans-6f"/>
      <use x="129.785156" xlink:href="#DejaVuSans-74"/>
      <use x="168.994141" xlink:href="#DejaVuSans-74"/>
      <use x="208.203125" xlink:href="#DejaVuSans-6f"/>
      <use x="269.384766" xlink:href="#DejaVuSans-6d"/>
      <use x="366.796875" xlink:href="#DejaVuSans-2d"/>
      <use x="402.880859" xlink:href="#DejaVuSans-75"/>
      <use x="466.259766" xlink:href="#DejaVuSans-70"/>
      <use x="529.736328" xlink:href="#DejaVuSans-20"/>
      <use x="561.523438" xlink:href="#DejaVuSans-4f"/>
      <use x="640.234375" xlink:href="#DejaVuSans-70"/>
      <use x="703.710938" xlink:href="#DejaVuSans-74"/>
      <use x="742.919922" xlink:href="#DejaVuSans-69"/>
      <use x="770.703125" xlink:href="#DejaVuSans-6d"/>
      <use x="868.115234" xlink:href="#DejaVuSans-69"/>
      <use x="895.898438" xlink:href="#DejaVuSans-7a"/>
      <use x="948.388672" xlink:href="#DejaVuSans-65"/>
      <use x="1009.912109" xlink:href="#DejaVuSans-43"/>
      <use x="1079.736328" xlink:href="#DejaVuSans-6f"/>
      <use x="1140.917969" xlink:href="#DejaVuSans-6e"/>
      <use x="1204.296875" xlink:href="#DejaVuSans-74"/>
      <use x="1243.505859" xlink:href="#DejaVuSans-72"/>
      <use x="1284.619141" xlink:href="#DejaVuSans-69"/>
      <use x="1312.402344" xlink:href="#DejaVuSans-62"/>
      <use x="1375.878906" xlink:href="#DejaVuSans-20"/>
      <use x="1407.666016" xlink:href="#DejaVuSans-64"/>
      <use x="1471.142578" xlink:href="#DejaVuSans-65"/>
      <use x="1532.666016" xlink:href="#DejaVuSans-66"/>
      <use x="1567.871094" xlink:href="#DejaVuSans-61"/>
      <use x="1629.150391" xlink:href="#DejaVuSans-75"/>
      <use x="1692.529297" xlink:href="#DejaVuSans-6c"/>
      <use x="1720.3125" xlink:href="#DejaVuSans-74"/>
      <use x="1759.521484" xlink:href="#DejaVuSans-20"/>
      <use x="1791.308594" xlink:href="#DejaVuSans-73"/>
      <use x="1843.408203" xlink:href="#DejaVuSans-65"/>
      <use x="1904.931641" xlink:href="#DejaVuSans-74"/>
      <use x="1944.140625" xlink:href="#DejaVuSans-74"/>
      <use x="1983.349609" xlink:href="#DejaVuSans-69"/>
      <use x="2011.132812" xlink:href="#DejaVuSans-6e"/>
      <use x="2074.511719" xlink:href="#DejaVuSans-67"/>
     </g>
    </g>
    <g id="line2d_21">
     <path d="M 130.5 428.884063 
L 180.5 428.884063 
" style="fill:none;stroke:#0d948f;stroke-dasharray:2,3.3;stroke-dashoffset:0;stroke-width:2;"/>
    </g>
    <g id="line2d_22">
     <g>
      <use style="fill:#0d948f;stroke:#0d948f;stroke-linejoin:bevel;" x="155.5" xlink:href="#mb3e2d3338a" y="428.884063"/>
     </g>
    </g>
    <g id="text_17">
     <!-- Bottom-up OptimizeContrib $D_Q$ $D_R$ alternately -->
     <defs>
      <path d="M 16.890625 72.90625 
L 38.09375 72.90625 
Q 54.984375 72.90625 63.59375 65.75 
Q 72.21875 58.59375 72.21875 44.484375 
Q 72.21875 35.15625 68.9375 26.53125 
Q 65.671875 17.921875 59.90625 12.015625 
Q 54.109375 5.953125 45.171875 2.96875 
Q 36.234375 0 24.03125 0 
L 2.6875 0 
z
M 25.203125 64.796875 
L 14.203125 8.109375 
L 27.09375 8.109375 
Q 43.65625 8.109375 52.734375 17.625 
Q 61.8125 27.15625 61.8125 44.484375 
Q 61.8125 54.984375 55.953125 59.890625 
Q 50.09375 64.796875 37.59375 64.796875 
z
" id="DejaVuSans-Oblique-44"/>
      <path d="M 36.078125 -1.3125 
Q 35.546875 -1.375 34.953125 -1.390625 
Q 34.375 -1.421875 33.203125 -1.421875 
Q 19.53125 -1.421875 11.8125 6.421875 
Q 4.109375 14.265625 4.109375 28.078125 
Q 4.109375 36.234375 7.0625 44.4375 
Q 10.015625 52.640625 15.28125 59.1875 
Q 21.390625 66.703125 29.03125 70.453125 
Q 36.671875 74.21875 45.90625 74.21875 
Q 59.28125 74.21875 66.984375 66.328125 
Q 74.703125 58.453125 74.703125 44.828125 
Q 74.703125 30.125 66.640625 17.921875 
Q 58.59375 5.71875 45.609375 0.6875 
L 55.515625 -12.890625 
L 44.484375 -12.890625 
z
M 45.609375 66.21875 
Q 37.5 66.21875 31.296875 62.28125 
Q 25.09375 58.34375 20.515625 50.296875 
Q 17.578125 45.171875 16.03125 39.40625 
Q 14.5 33.640625 14.5 27.78125 
Q 14.5 17.625 19.359375 12.109375 
Q 24.21875 6.59375 33.109375 6.59375 
Q 41.109375 6.59375 47.375 10.5625 
Q 53.65625 14.546875 58.109375 22.40625 
Q 61.078125 27.6875 62.640625 33.46875 
Q 64.203125 39.265625 64.203125 45.015625 
Q 64.203125 55.125 59.3125 60.671875 
Q 54.4375 66.21875 45.609375 66.21875 
z
" id="DejaVuSans-Oblique-51"/>
      <path d="M 25.203125 64.796875 
L 20.21875 38.921875 
L 32.90625 38.921875 
Q 40.375 38.921875 44.984375 43.046875 
Q 49.609375 47.171875 49.609375 53.8125 
Q 49.609375 59.125 46.5 61.953125 
Q 43.40625 64.796875 37.59375 64.796875 
z
M 43.3125 35.015625 
Q 46.4375 34.28125 48.515625 31.390625 
Q 50.59375 28.515625 53.328125 19.921875 
L 59.515625 0 
L 49.125 0 
L 43.40625 18.703125 
Q 41.21875 25.921875 38.328125 28.359375 
Q 35.453125 30.8125 29.5 30.8125 
L 18.609375 30.8125 
L 12.59375 0 
L 2.6875 0 
L 16.890625 72.90625 
L 39.109375 72.90625 
Q 49.21875 72.90625 54.609375 68.328125 
Q 60.015625 63.765625 60.015625 55.171875 
Q 60.015625 47.5625 55.421875 41.984375 
Q 50.828125 36.421875 43.3125 35.015625 
z
" id="DejaVuSans-Oblique-52"/>
      <path d="M 32.171875 -5.078125 
Q 28.375 -14.84375 24.75 -17.8125 
Q 21.140625 -20.796875 15.09375 -20.796875 
L 7.90625 -20.796875 
L 7.90625 -13.28125 
L 13.1875 -13.28125 
Q 16.890625 -13.28125 18.9375 -11.515625 
Q 21 -9.765625 23.484375 -3.21875 
L 25.09375 0.875 
L 2.984375 54.6875 
L 12.5 54.6875 
L 29.59375 11.921875 
L 46.6875 54.6875 
L 56.203125 54.6875 
z
" id="DejaVuSans-79"/>
     </defs>
     <g transform="translate(200.5 437.634063)scale(0.25 -0.25)">
      <use transform="translate(0 0.015625)" xlink:href="#DejaVuSans-42"/>
      <use transform="translate(68.603516 0.015625)" xlink:href="#DejaVuSans-6f"/>
      <use transform="translate(129.785156 0.015625)" xlink:href="#DejaVuSans-74"/>
      <use transform="translate(168.994141 0.015625)" xlink:href="#DejaVuSans-74"/>
      <use transform="translate(208.203125 0.015625)" xlink:href="#DejaVuSans-6f"/>
      <use transform="translate(269.384766 0.015625)" xlink:href="#DejaVuSans-6d"/>
      <use transform="translate(366.78125 0.015625)" xlink:href="#DejaVuSans-2d"/>
      <use transform="translate(402.865234 0.015625)" xlink:href="#DejaVuSans-75"/>
      <use transform="translate(466.244141 0.015625)" xlink:href="#DejaVuSans-70"/>
      <use transform="translate(529.720703 0.015625)" xlink:href="#DejaVuSans-20"/>
      <use transform="translate(561.507812 0.015625)" xlink:href="#DejaVuSans-4f"/>
      <use transform="translate(640.21875 0.015625)" xlink:href="#DejaVuSans-70"/>
      <use transform="translate(703.695312 0.015625)" xlink:href="#DejaVuSans-74"/>
      <use transform="translate(742.904297 0.015625)" xlink:href="#DejaVuSans-69"/>
      <use transform="translate(770.6875 0.015625)" xlink:href="#DejaVuSans-6d"/>
      <use transform="translate(868.099609 0.015625)" xlink:href="#DejaVuSans-69"/>
      <use transform="translate(895.882812 0.015625)" xlink:href="#DejaVuSans-7a"/>
      <use transform="translate(948.373047 0.015625)" xlink:href="#DejaVuSans-65"/>
      <use transform="translate(1009.896484 0.015625)" xlink:href="#DejaVuSans-43"/>
      <use transform="translate(1079.720703 0.015625)" xlink:href="#DejaVuSans-6f"/>
      <use transform="translate(1140.902344 0.015625)" xlink:href="#DejaVuSans-6e"/>
      <use transform="translate(1204.28125 0.015625)" xlink:href="#DejaVuSans-74"/>
      <use transform="translate(1243.490234 0.015625)" xlink:href="#DejaVuSans-72"/>
      <use transform="translate(1284.603516 0.015625)" xlink:href="#DejaVuSans-69"/>
      <use transform="translate(1312.386719 0.015625)" xlink:href="#DejaVuSans-62"/>
      <use transform="translate(1375.863281 0.015625)" xlink:href="#DejaVuSans-20"/>
      <use transform="translate(1407.650391 0.015625)" xlink:href="#DejaVuSans-Oblique-44"/>
      <use transform="translate(1484.652344 -16.390625)scale(0.7)" xlink:href="#DejaVuSans-Oblique-51"/>
      <use transform="translate(1542.484375 0.015625)" xlink:href="#DejaVuSans-20"/>
      <use transform="translate(1574.271484 0.015625)" xlink:href="#DejaVuSans-Oblique-44"/>
      <use transform="translate(1651.273438 -16.390625)scale(0.7)" xlink:href="#DejaVuSans-Oblique-52"/>
      <use transform="translate(1702.645508 0.015625)" xlink:href="#DejaVuSans-20"/>
      <use transform="translate(1734.432617 0.015625)" xlink:href="#DejaVuSans-61"/>
      <use transform="translate(1795.711914 0.015625)" xlink:href="#DejaVuSans-6c"/>
      <use transform="translate(1823.495117 0.015625)" xlink:href="#DejaVuSans-74"/>
      <use transform="translate(1862.704102 0.015625)" xlink:href="#DejaVuSans-65"/>
      <use transform="translate(1924.227539 0.015625)" xlink:href="#DejaVuSans-72"/>
      <use transform="translate(1965.34082 0.015625)" xlink:href="#DejaVuSans-6e"/>
      <use transform="translate(2028.719727 0.015625)" xlink:href="#DejaVuSans-61"/>
      <use transform="translate(2089.999023 0.015625)" xlink:href="#DejaVuSans-74"/>
      <use transform="translate(2129.208008 0.015625)" xlink:href="#DejaVuSans-65"/>
      <use transform="translate(2190.731445 0.015625)" xlink:href="#DejaVuSans-6c"/>
      <use transform="translate(2218.514648 0.015625)" xlink:href="#DejaVuSans-79"/>
     </g>
    </g>
    <g id="line2d_23">
     <path d="M 130.5 466.880156 
L 180.5 466.880156 
" style="fill:none;stroke:#9c730e;stroke-linecap:square;stroke-width:2;"/>
    </g>
    <g id="line2d_24">
     <g>
      <use style="fill:#9c730e;stroke:#9c730e;" x="155.5" xlink:href="#m3843a4f1a6" y="466.880156"/>
     </g>
    </g>
    <g id="text_18">
     <!-- Bottom-up OptimizeContrib wrt whole data -->
     <defs>
      <path d="M 4.203125 54.6875 
L 13.1875 54.6875 
L 24.421875 12.015625 
L 35.59375 54.6875 
L 46.1875 54.6875 
L 57.421875 12.015625 
L 68.609375 54.6875 
L 77.59375 54.6875 
L 63.28125 0 
L 52.6875 0 
L 40.921875 44.828125 
L 29.109375 0 
L 18.5 0 
z
" id="DejaVuSans-77"/>
      <path d="M 54.890625 33.015625 
L 54.890625 0 
L 45.90625 0 
L 45.90625 32.71875 
Q 45.90625 40.484375 42.875 44.328125 
Q 39.84375 48.1875 33.796875 48.1875 
Q 26.515625 48.1875 22.3125 43.546875 
Q 18.109375 38.921875 18.109375 30.90625 
L 18.109375 0 
L 9.078125 0 
L 9.078125 75.984375 
L 18.109375 75.984375 
L 18.109375 46.1875 
Q 21.34375 51.125 25.703125 53.5625 
Q 30.078125 56 35.796875 56 
Q 45.21875 56 50.046875 50.171875 
Q 54.890625 44.34375 54.890625 33.015625 
z
" id="DejaVuSans-68"/>
     </defs>
     <g transform="translate(200.5 475.630156)scale(0.25 -0.25)">
      <use xlink:href="#DejaVuSans-42"/>
      <use x="68.603516" xlink:href="#DejaVuSans-6f"/>
      <use x="129.785156" xlink:href="#DejaVuSans-74"/>
      <use x="168.994141" xlink:href="#DejaVuSans-74"/>
      <use x="208.203125" xlink:href="#DejaVuSans-6f"/>
      <use x="269.384766" xlink:href="#DejaVuSans-6d"/>
      <use x="366.796875" xlink:href="#DejaVuSans-2d"/>
      <use x="402.880859" xlink:href="#DejaVuSans-75"/>
      <use x="466.259766" xlink:href="#DejaVuSans-70"/>
      <use x="529.736328" xlink:href="#DejaVuSans-20"/>
      <use x="561.523438" xlink:href="#DejaVuSans-4f"/>
      <use x="640.234375" xlink:href="#DejaVuSans-70"/>
      <use x="703.710938" xlink:href="#DejaVuSans-74"/>
      <use x="742.919922" xlink:href="#DejaVuSans-69"/>
      <use x="770.703125" xlink:href="#DejaVuSans-6d"/>
      <use x="868.115234" xlink:href="#DejaVuSans-69"/>
      <use x="895.898438" xlink:href="#DejaVuSans-7a"/>
      <use x="948.388672" xlink:href="#DejaVuSans-65"/>
      <use x="1009.912109" xlink:href="#DejaVuSans-43"/>
      <use x="1079.736328" xlink:href="#DejaVuSans-6f"/>
      <use x="1140.917969" xlink:href="#DejaVuSans-6e"/>
      <use x="1204.296875" xlink:href="#DejaVuSans-74"/>
      <use x="1243.505859" xlink:href="#DejaVuSans-72"/>
      <use x="1284.619141" xlink:href="#DejaVuSans-69"/>
      <use x="1312.402344" xlink:href="#DejaVuSans-62"/>
      <use x="1375.878906" xlink:href="#DejaVuSans-20"/>
      <use x="1407.666016" xlink:href="#DejaVuSans-77"/>
      <use x="1489.453125" xlink:href="#DejaVuSans-72"/>
      <use x="1530.566406" xlink:href="#DejaVuSans-74"/>
      <use x="1569.775391" xlink:href="#DejaVuSans-20"/>
      <use x="1601.5625" xlink:href="#DejaVuSans-77"/>
      <use x="1683.349609" xlink:href="#DejaVuSans-68"/>
      <use x="1746.728516" xlink:href="#DejaVuSans-6f"/>
      <use x="1807.910156" xlink:href="#DejaVuSans-6c"/>
      <use x="1835.693359" xlink:href="#DejaVuSans-65"/>
      <use x="1897.216797" xlink:href="#DejaVuSans-20"/>
      <use x="1929.003906" xlink:href="#DejaVuSans-64"/>
      <use x="1992.480469" xlink:href="#DejaVuSans-61"/>
      <use x="2053.759766" xlink:href="#DejaVuSans-74"/>
      <use x="2092.96875" xlink:href="#DejaVuSans-61"/>
     </g>
    </g>
    <g id="line2d_25">
     <path d="M 130.5 503.575469 
L 180.5 503.575469 
" style="fill:none;stroke:#008000;stroke-dasharray:7.4,3.2;stroke-dashoffset:0;stroke-width:2;"/>
    </g>
    <g id="line2d_26">
     <g>
      <use style="fill:#008000;stroke:#008000;" x="155.5" xlink:href="#m2b73aaa26b" y="503.575469"/>
     </g>
    </g>
    <g id="text_19">
     <!-- Bottom-up RandomImputation -->
     <defs>
      <path d="M 44.390625 34.1875 
Q 47.5625 33.109375 50.5625 29.59375 
Q 53.5625 26.078125 56.59375 19.921875 
L 66.609375 0 
L 56 0 
L 46.6875 18.703125 
Q 43.0625 26.03125 39.671875 28.421875 
Q 36.28125 30.8125 30.421875 30.8125 
L 19.671875 30.8125 
L 19.671875 0 
L 9.8125 0 
L 9.8125 72.90625 
L 32.078125 72.90625 
Q 44.578125 72.90625 50.734375 67.671875 
Q 56.890625 62.453125 56.890625 51.90625 
Q 56.890625 45.015625 53.6875 40.46875 
Q 50.484375 35.9375 44.390625 34.1875 
z
M 19.671875 64.796875 
L 19.671875 38.921875 
L 32.078125 38.921875 
Q 39.203125 38.921875 42.84375 42.21875 
Q 46.484375 45.515625 46.484375 51.90625 
Q 46.484375 58.296875 42.84375 61.546875 
Q 39.203125 64.796875 32.078125 64.796875 
z
" id="DejaVuSans-52"/>
      <path d="M 9.8125 72.90625 
L 19.671875 72.90625 
L 19.671875 0 
L 9.8125 0 
z
" id="DejaVuSans-49"/>
     </defs>
     <g transform="translate(200.5 512.325469)scale(0.25 -0.25)">
      <use xlink:href="#DejaVuSans-42"/>
      <use x="68.603516" xlink:href="#DejaVuSans-6f"/>
      <use x="129.785156" xlink:href="#DejaVuSans-74"/>
      <use x="168.994141" xlink:href="#DejaVuSans-74"/>
      <use x="208.203125" xlink:href="#DejaVuSans-6f"/>
      <use x="269.384766" xlink:href="#DejaVuSans-6d"/>
      <use x="366.796875" xlink:href="#DejaVuSans-2d"/>
      <use x="402.880859" xlink:href="#DejaVuSans-75"/>
      <use x="466.259766" xlink:href="#DejaVuSans-70"/>
      <use x="529.736328" xlink:href="#DejaVuSans-20"/>
      <use x="561.523438" xlink:href="#DejaVuSans-52"/>
      <use x="630.974609" xlink:href="#DejaVuSans-61"/>
      <use x="692.253906" xlink:href="#DejaVuSans-6e"/>
      <use x="755.632812" xlink:href="#DejaVuSans-64"/>
      <use x="819.109375" xlink:href="#DejaVuSans-6f"/>
      <use x="880.291016" xlink:href="#DejaVuSans-6d"/>
      <use x="977.703125" xlink:href="#DejaVuSans-49"/>
      <use x="1007.195312" xlink:href="#DejaVuSans-6d"/>
      <use x="1104.607422" xlink:href="#DejaVuSans-70"/>
      <use x="1168.083984" xlink:href="#DejaVuSans-75"/>
      <use x="1231.462891" xlink:href="#DejaVuSans-74"/>
      <use x="1270.671875" xlink:href="#DejaVuSans-61"/>
      <use x="1331.951172" xlink:href="#DejaVuSans-74"/>
      <use x="1371.160156" xlink:href="#DejaVuSans-69"/>
      <use x="1398.943359" xlink:href="#DejaVuSans-6f"/>
      <use x="1460.125" xlink:href="#DejaVuSans-6e"/>
     </g>
    </g>
    <g id="line2d_27">
     <path d="M 130.5 540.270781 
L 180.5 540.270781 
" style="fill:none;stroke:#000000;stroke-dasharray:2,3.3;stroke-dashoffset:0;stroke-width:2;"/>
    </g>
    <g id="line2d_28">
     <g>
      <use style="stroke:#000000;" x="155.5" xlink:href="#m12957735c6" y="540.270781"/>
     </g>
    </g>
    <g id="text_20">
     <!-- No imputation -->
     <defs>
      <path d="M 9.8125 72.90625 
L 23.09375 72.90625 
L 55.421875 11.921875 
L 55.421875 72.90625 
L 64.984375 72.90625 
L 64.984375 0 
L 51.703125 0 
L 19.390625 60.984375 
L 19.390625 0 
L 9.8125 0 
z
" id="DejaVuSans-4e"/>
     </defs>
     <g transform="translate(200.5 549.020781)scale(0.25 -0.25)">
      <use xlink:href="#DejaVuSans-4e"/>
      <use x="74.804688" xlink:href="#DejaVuSans-6f"/>
      <use x="135.986328" xlink:href="#DejaVuSans-20"/>
      <use x="167.773438" xlink:href="#DejaVuSans-69"/>
      <use x="195.556641" xlink:href="#DejaVuSans-6d"/>
      <use x="292.96875" xlink:href="#DejaVuSans-70"/>
      <use x="356.445312" xlink:href="#DejaVuSans-75"/>
      <use x="419.824219" xlink:href="#DejaVuSans-74"/>
      <use x="459.033203" xlink:href="#DejaVuSans-61"/>
      <use x="520.3125" xlink:href="#DejaVuSans-74"/>
      <use x="559.521484" xlink:href="#DejaVuSans-69"/>
      <use x="587.304688" xlink:href="#DejaVuSans-6f"/>
      <use x="648.486328" xlink:href="#DejaVuSans-6e"/>
     </g>
    </g>
   </g>
  </g>
 </g>
 <defs>
  <clipPath id="p51bc2e5958">
   <rect height="498.96" width="669.6" x="108" y="77.76"/>
  </clipPath>
 </defs>
</svg>
