<?xml version="1.0" encoding="utf-8" standalone="no"?>
<!DOCTYPE svg PUBLIC "-//W3C//DTD SVG 1.1//EN"
  "http://www.w3.org/Graphics/SVG/1.1/DTD/svg11.dtd">
<!-- Created with matplotlib (http://matplotlib.org/) -->
<svg height="648pt" version="1.1" viewBox="0 0 648 648" width="648pt" xmlns="http://www.w3.org/2000/svg" xmlns:xlink="http://www.w3.org/1999/xlink">
 <defs>
  <style type="text/css">
*{stroke-linecap:butt;stroke-linejoin:round;}
  </style>
 </defs>
 <g id="figure_1">
  <g id="patch_1">
   <path d="M 0 648 
L 648 648 
L 648 0 
L 0 0 
z
" style="fill:#ffffff;"/>
  </g>
  <g id="axes_1">
   <g id="patch_2">
    <path d="M 81 576.72 
L 583.2 576.72 
L 583.2 77.76 
L 81 77.76 
z
" style="fill:#ffffff;"/>
   </g>
   <g id="PolyCollection_1">
    <defs>
     <path d="M 103.827273 -301.824221 
L 103.827273 -280.433164 
L 145.331405 -290.31356 
L 186.835537 -295.253758 
L 228.339669 -305.134154 
L 269.843802 -305.134154 
L 311.347934 -305.134154 
L 352.852066 -306.77924 
L 394.356198 -301.839042 
L 435.860331 -291.958646 
L 477.364463 -291.958646 
L 518.868595 -282.07825 
L 560.372727 -282.07825 
L 560.372727 -303.469307 
L 560.372727 -303.469307 
L 518.868595 -303.469307 
L 477.364463 -313.349703 
L 435.860331 -313.349703 
L 394.356198 -323.230099 
L 352.852066 -328.170297 
L 311.347934 -326.525211 
L 269.843802 -326.525211 
L 228.339669 -326.525211 
L 186.835537 -316.644815 
L 145.331405 -311.704617 
L 103.827273 -301.824221 
z
" id="m2e8d053dda" style="stroke:#dedddc;stroke-opacity:0.4;"/>
    </defs>
    <g clip-path="url(#p03c3731e82)">
     <use style="fill:#dedddc;fill-opacity:0.4;stroke:#dedddc;stroke-opacity:0.4;" x="0" xlink:href="#m2e8d053dda" y="648"/>
    </g>
   </g>
   <g id="PolyCollection_2">
    <defs>
     <path d="M 103.827273 -381.695628 
L 103.827273 -359.637101 
L 145.331405 -374.945688 
L 186.835537 -390.754321 
L 228.339669 -402.125589 
L 269.843802 -413.488045 
L 311.347934 -421.886382 
L 352.852066 -420.711568 
L 394.356198 -415.455311 
L 435.860331 -401.235826 
L 477.364463 -385.393747 
L 518.868595 -375.933727 
L 560.372727 -366.65444 
L 560.372727 -393.165172 
L 560.372727 -393.165172 
L 518.868595 -402.44446 
L 477.364463 -411.90448 
L 435.860331 -427.746559 
L 394.356198 -441.966044 
L 352.852066 -447.222301 
L 311.347934 -448.397114 
L 269.843802 -439.998778 
L 228.339669 -428.636322 
L 186.835537 -417.265054 
L 145.331405 -401.45642 
L 103.827273 -381.695628 
z
" id="m0d3374a289" style="stroke:#dedddc;stroke-opacity:0.4;"/>
    </defs>
    <g clip-path="url(#p03c3731e82)">
     <use style="fill:#dedddc;fill-opacity:0.4;stroke:#dedddc;stroke-opacity:0.4;" x="0" xlink:href="#m0d3374a289" y="648"/>
    </g>
   </g>
   <g id="PolyCollection_3">
    <defs>
     <path d="M 103.827273 -409.401973 
L 103.827273 -401.724905 
L 145.331405 -406.665103 
L 186.835537 -411.605301 
L 228.339669 -420.058321 
L 269.843802 -426.475791 
L 311.347934 -431.273252 
L 352.852066 -426.371553 
L 394.356198 -411.550959 
L 435.860331 -406.610761 
L 477.364463 -401.670563 
L 518.868595 -401.670563 
L 560.372727 -396.730365 
L 560.372727 -404.407433 
L 560.372727 -404.407433 
L 518.868595 -409.347631 
L 477.364463 -409.347631 
L 435.860331 -414.287829 
L 394.356198 -419.228027 
L 352.852066 -434.048621 
L 311.347934 -438.95032 
L 269.843802 -434.152859 
L 228.339669 -427.735389 
L 186.835537 -419.282369 
L 145.331405 -414.342171 
L 103.827273 -409.401973 
z
" id="m15d02a9034" style="stroke:#dedddc;stroke-opacity:0.4;"/>
    </defs>
    <g clip-path="url(#p03c3731e82)">
     <use style="fill:#dedddc;fill-opacity:0.4;stroke:#dedddc;stroke-opacity:0.4;" x="0" xlink:href="#m15d02a9034" y="648"/>
    </g>
   </g>
   <g id="PolyCollection_4">
    <defs>
     <path d="M 103.827273 -334.104957 
L 103.827273 -314.344165 
L 145.331405 -334.158805 
L 186.835537 -348.925551 
L 228.339669 -354.50755 
L 269.843802 -358.76353 
L 311.347934 -359.344139 
L 352.852066 -358.910235 
L 394.356198 -349.029839 
L 435.860331 -339.410779 
L 477.364463 -334.209244 
L 518.868595 -329.269046 
L 560.372727 -329.269046 
L 560.372727 -349.029839 
L 560.372727 -349.029839 
L 518.868595 -349.029839 
L 477.364463 -353.970037 
L 435.860331 -359.171571 
L 394.356198 -368.790631 
L 352.852066 -378.671027 
L 311.347934 -379.104931 
L 269.843802 -378.524323 
L 228.339669 -374.268342 
L 186.835537 -368.686343 
L 145.331405 -353.919597 
L 103.827273 -334.104957 
z
" id="m49e3d3b68f" style="stroke:#dedddc;stroke-opacity:0.4;"/>
    </defs>
    <g clip-path="url(#p03c3731e82)">
     <use style="fill:#dedddc;fill-opacity:0.4;stroke:#dedddc;stroke-opacity:0.4;" x="0" xlink:href="#m49e3d3b68f" y="648"/>
    </g>
   </g>
   <g id="PolyCollection_5">
    <defs>
     <path d="M 103.827273 -322.681737 
L 103.827273 -302.920945 
L 145.331405 -322.681737 
L 186.835537 -337.502331 
L 228.339669 -343.08433 
L 269.843802 -347.340311 
L 311.347934 -348.860545 
L 352.852066 -347.487015 
L 394.356198 -337.606619 
L 435.860331 -327.726223 
L 477.364463 -322.786025 
L 518.868595 -317.845827 
L 560.372727 -317.845827 
L 560.372727 -337.606619 
L 560.372727 -337.606619 
L 518.868595 -337.606619 
L 477.364463 -342.546817 
L 435.860331 -347.487015 
L 394.356198 -357.367411 
L 352.852066 -367.247807 
L 311.347934 -368.621337 
L 269.843802 -367.101103 
L 228.339669 -362.845123 
L 186.835537 -357.263123 
L 145.331405 -342.442529 
L 103.827273 -322.681737 
z
" id="mcc26738273" style="stroke:#dedddc;stroke-opacity:0.4;"/>
    </defs>
    <g clip-path="url(#p03c3731e82)">
     <use style="fill:#dedddc;fill-opacity:0.4;stroke:#dedddc;stroke-opacity:0.4;" x="0" xlink:href="#mcc26738273" y="648"/>
    </g>
   </g>
   <g id="matplotlib.axis_1">
    <g id="xtick_1">
     <g id="line2d_1">
      <defs>
       <path d="M 0 0 
L 0 3.5 
" id="m9e9e107406" style="stroke:#000000;stroke-width:0.8;"/>
      </defs>
      <g>
       <use style="stroke:#000000;stroke-width:0.8;" x="103.827273" xlink:href="#m9e9e107406" y="576.72"/>
      </g>
     </g>
     <g id="text_1">
      <!-- 1 -->
      <defs>
       <path d="M 12.40625 8.296875 
L 28.515625 8.296875 
L 28.515625 63.921875 
L 10.984375 60.40625 
L 10.984375 69.390625 
L 28.421875 72.90625 
L 38.28125 72.90625 
L 38.28125 8.296875 
L 54.390625 8.296875 
L 54.390625 0 
L 12.40625 0 
z
" id="DejaVuSans-31"/>
      </defs>
      <g transform="translate(95.874148 602.716094)scale(0.25 -0.25)">
       <use xlink:href="#DejaVuSans-31"/>
      </g>
     </g>
    </g>
    <g id="xtick_2">
     <g id="line2d_2">
      <g>
       <use style="stroke:#000000;stroke-width:0.8;" x="145.331405" xlink:href="#m9e9e107406" y="576.72"/>
      </g>
     </g>
     <g id="text_2">
      <!-- 2 -->
      <defs>
       <path d="M 19.1875 8.296875 
L 53.609375 8.296875 
L 53.609375 0 
L 7.328125 0 
L 7.328125 8.296875 
Q 12.9375 14.109375 22.625 23.890625 
Q 32.328125 33.6875 34.8125 36.53125 
Q 39.546875 41.84375 41.421875 45.53125 
Q 43.3125 49.21875 43.3125 52.78125 
Q 43.3125 58.59375 39.234375 62.25 
Q 35.15625 65.921875 28.609375 65.921875 
Q 23.96875 65.921875 18.8125 64.3125 
Q 13.671875 62.703125 7.8125 59.421875 
L 7.8125 69.390625 
Q 13.765625 71.78125 18.9375 73 
Q 24.125 74.21875 28.421875 74.21875 
Q 39.75 74.21875 46.484375 68.546875 
Q 53.21875 62.890625 53.21875 53.421875 
Q 53.21875 48.921875 51.53125 44.890625 
Q 49.859375 40.875 45.40625 35.40625 
Q 44.1875 33.984375 37.640625 27.21875 
Q 31.109375 20.453125 19.1875 8.296875 
z
" id="DejaVuSans-32"/>
      </defs>
      <g transform="translate(137.37828 602.716094)scale(0.25 -0.25)">
       <use xlink:href="#DejaVuSans-32"/>
      </g>
     </g>
    </g>
    <g id="xtick_3">
     <g id="line2d_3">
      <g>
       <use style="stroke:#000000;stroke-width:0.8;" x="186.835537" xlink:href="#m9e9e107406" y="576.72"/>
      </g>
     </g>
     <g id="text_3">
      <!-- 3 -->
      <defs>
       <path d="M 40.578125 39.3125 
Q 47.65625 37.796875 51.625 33 
Q 55.609375 28.21875 55.609375 21.1875 
Q 55.609375 10.40625 48.1875 4.484375 
Q 40.765625 -1.421875 27.09375 -1.421875 
Q 22.515625 -1.421875 17.65625 -0.515625 
Q 12.796875 0.390625 7.625 2.203125 
L 7.625 11.71875 
Q 11.71875 9.328125 16.59375 8.109375 
Q 21.484375 6.890625 26.8125 6.890625 
Q 36.078125 6.890625 40.9375 10.546875 
Q 45.796875 14.203125 45.796875 21.1875 
Q 45.796875 27.640625 41.28125 31.265625 
Q 36.765625 34.90625 28.71875 34.90625 
L 20.21875 34.90625 
L 20.21875 43.015625 
L 29.109375 43.015625 
Q 36.375 43.015625 40.234375 45.921875 
Q 44.09375 48.828125 44.09375 54.296875 
Q 44.09375 59.90625 40.109375 62.90625 
Q 36.140625 65.921875 28.71875 65.921875 
Q 24.65625 65.921875 20.015625 65.03125 
Q 15.375 64.15625 9.8125 62.3125 
L 9.8125 71.09375 
Q 15.4375 72.65625 20.34375 73.4375 
Q 25.25 74.21875 29.59375 74.21875 
Q 40.828125 74.21875 47.359375 69.109375 
Q 53.90625 64.015625 53.90625 55.328125 
Q 53.90625 49.265625 50.4375 45.09375 
Q 46.96875 40.921875 40.578125 39.3125 
z
" id="DejaVuSans-33"/>
      </defs>
      <g transform="translate(178.882412 602.716094)scale(0.25 -0.25)">
       <use xlink:href="#DejaVuSans-33"/>
      </g>
     </g>
    </g>
    <g id="xtick_4">
     <g id="line2d_4">
      <g>
       <use style="stroke:#000000;stroke-width:0.8;" x="228.339669" xlink:href="#m9e9e107406" y="576.72"/>
      </g>
     </g>
     <g id="text_4">
      <!-- 4 -->
      <defs>
       <path d="M 37.796875 64.3125 
L 12.890625 25.390625 
L 37.796875 25.390625 
z
M 35.203125 72.90625 
L 47.609375 72.90625 
L 47.609375 25.390625 
L 58.015625 25.390625 
L 58.015625 17.1875 
L 47.609375 17.1875 
L 47.609375 0 
L 37.796875 0 
L 37.796875 17.1875 
L 4.890625 17.1875 
L 4.890625 26.703125 
z
" id="DejaVuSans-34"/>
      </defs>
      <g transform="translate(220.386544 602.716094)scale(0.25 -0.25)">
       <use xlink:href="#DejaVuSans-34"/>
      </g>
     </g>
    </g>
    <g id="xtick_5">
     <g id="line2d_5">
      <g>
       <use style="stroke:#000000;stroke-width:0.8;" x="269.843802" xlink:href="#m9e9e107406" y="576.72"/>
      </g>
     </g>
     <g id="text_5">
      <!-- 5 -->
      <defs>
       <path d="M 10.796875 72.90625 
L 49.515625 72.90625 
L 49.515625 64.59375 
L 19.828125 64.59375 
L 19.828125 46.734375 
Q 21.96875 47.46875 24.109375 47.828125 
Q 26.265625 48.1875 28.421875 48.1875 
Q 40.625 48.1875 47.75 41.5 
Q 54.890625 34.8125 54.890625 23.390625 
Q 54.890625 11.625 47.5625 5.09375 
Q 40.234375 -1.421875 26.90625 -1.421875 
Q 22.3125 -1.421875 17.546875 -0.640625 
Q 12.796875 0.140625 7.71875 1.703125 
L 7.71875 11.625 
Q 12.109375 9.234375 16.796875 8.0625 
Q 21.484375 6.890625 26.703125 6.890625 
Q 35.15625 6.890625 40.078125 11.328125 
Q 45.015625 15.765625 45.015625 23.390625 
Q 45.015625 31 40.078125 35.4375 
Q 35.15625 39.890625 26.703125 39.890625 
Q 22.75 39.890625 18.8125 39.015625 
Q 14.890625 38.140625 10.796875 36.28125 
z
" id="DejaVuSans-35"/>
      </defs>
      <g transform="translate(261.890677 602.716094)scale(0.25 -0.25)">
       <use xlink:href="#DejaVuSans-35"/>
      </g>
     </g>
    </g>
    <g id="xtick_6">
     <g id="line2d_6">
      <g>
       <use style="stroke:#000000;stroke-width:0.8;" x="311.347934" xlink:href="#m9e9e107406" y="576.72"/>
      </g>
     </g>
     <g id="text_6">
      <!-- 6 -->
      <defs>
       <path d="M 33.015625 40.375 
Q 26.375 40.375 22.484375 35.828125 
Q 18.609375 31.296875 18.609375 23.390625 
Q 18.609375 15.53125 22.484375 10.953125 
Q 26.375 6.390625 33.015625 6.390625 
Q 39.65625 6.390625 43.53125 10.953125 
Q 47.40625 15.53125 47.40625 23.390625 
Q 47.40625 31.296875 43.53125 35.828125 
Q 39.65625 40.375 33.015625 40.375 
z
M 52.59375 71.296875 
L 52.59375 62.3125 
Q 48.875 64.0625 45.09375 64.984375 
Q 41.3125 65.921875 37.59375 65.921875 
Q 27.828125 65.921875 22.671875 59.328125 
Q 17.53125 52.734375 16.796875 39.40625 
Q 19.671875 43.65625 24.015625 45.921875 
Q 28.375 48.1875 33.59375 48.1875 
Q 44.578125 48.1875 50.953125 41.515625 
Q 57.328125 34.859375 57.328125 23.390625 
Q 57.328125 12.15625 50.6875 5.359375 
Q 44.046875 -1.421875 33.015625 -1.421875 
Q 20.359375 -1.421875 13.671875 8.265625 
Q 6.984375 17.96875 6.984375 36.375 
Q 6.984375 53.65625 15.1875 63.9375 
Q 23.390625 74.21875 37.203125 74.21875 
Q 40.921875 74.21875 44.703125 73.484375 
Q 48.484375 72.75 52.59375 71.296875 
z
" id="DejaVuSans-36"/>
      </defs>
      <g transform="translate(303.394809 602.716094)scale(0.25 -0.25)">
       <use xlink:href="#DejaVuSans-36"/>
      </g>
     </g>
    </g>
    <g id="xtick_7">
     <g id="line2d_7">
      <g>
       <use style="stroke:#000000;stroke-width:0.8;" x="352.852066" xlink:href="#m9e9e107406" y="576.72"/>
      </g>
     </g>
     <g id="text_7">
      <!-- 7 -->
      <defs>
       <path d="M 8.203125 72.90625 
L 55.078125 72.90625 
L 55.078125 68.703125 
L 28.609375 0 
L 18.3125 0 
L 43.21875 64.59375 
L 8.203125 64.59375 
z
" id="DejaVuSans-37"/>
      </defs>
      <g transform="translate(344.898941 602.716094)scale(0.25 -0.25)">
       <use xlink:href="#DejaVuSans-37"/>
      </g>
     </g>
    </g>
    <g id="xtick_8">
     <g id="line2d_8">
      <g>
       <use style="stroke:#000000;stroke-width:0.8;" x="394.356198" xlink:href="#m9e9e107406" y="576.72"/>
      </g>
     </g>
     <g id="text_8">
      <!-- 8 -->
      <defs>
       <path d="M 31.78125 34.625 
Q 24.75 34.625 20.71875 30.859375 
Q 16.703125 27.09375 16.703125 20.515625 
Q 16.703125 13.921875 20.71875 10.15625 
Q 24.75 6.390625 31.78125 6.390625 
Q 38.8125 6.390625 42.859375 10.171875 
Q 46.921875 13.96875 46.921875 20.515625 
Q 46.921875 27.09375 42.890625 30.859375 
Q 38.875 34.625 31.78125 34.625 
z
M 21.921875 38.8125 
Q 15.578125 40.375 12.03125 44.71875 
Q 8.5 49.078125 8.5 55.328125 
Q 8.5 64.0625 14.71875 69.140625 
Q 20.953125 74.21875 31.78125 74.21875 
Q 42.671875 74.21875 48.875 69.140625 
Q 55.078125 64.0625 55.078125 55.328125 
Q 55.078125 49.078125 51.53125 44.71875 
Q 48 40.375 41.703125 38.8125 
Q 48.828125 37.15625 52.796875 32.3125 
Q 56.78125 27.484375 56.78125 20.515625 
Q 56.78125 9.90625 50.3125 4.234375 
Q 43.84375 -1.421875 31.78125 -1.421875 
Q 19.734375 -1.421875 13.25 4.234375 
Q 6.78125 9.90625 6.78125 20.515625 
Q 6.78125 27.484375 10.78125 32.3125 
Q 14.796875 37.15625 21.921875 38.8125 
z
M 18.3125 54.390625 
Q 18.3125 48.734375 21.84375 45.5625 
Q 25.390625 42.390625 31.78125 42.390625 
Q 38.140625 42.390625 41.71875 45.5625 
Q 45.3125 48.734375 45.3125 54.390625 
Q 45.3125 60.0625 41.71875 63.234375 
Q 38.140625 66.40625 31.78125 66.40625 
Q 25.390625 66.40625 21.84375 63.234375 
Q 18.3125 60.0625 18.3125 54.390625 
z
" id="DejaVuSans-38"/>
      </defs>
      <g transform="translate(386.403073 602.716094)scale(0.25 -0.25)">
       <use xlink:href="#DejaVuSans-38"/>
      </g>
     </g>
    </g>
    <g id="xtick_9">
     <g id="line2d_9">
      <g>
       <use style="stroke:#000000;stroke-width:0.8;" x="435.860331" xlink:href="#m9e9e107406" y="576.72"/>
      </g>
     </g>
     <g id="text_9">
      <!-- 9 -->
      <defs>
       <path d="M 10.984375 1.515625 
L 10.984375 10.5 
Q 14.703125 8.734375 18.5 7.8125 
Q 22.3125 6.890625 25.984375 6.890625 
Q 35.75 6.890625 40.890625 13.453125 
Q 46.046875 20.015625 46.78125 33.40625 
Q 43.953125 29.203125 39.59375 26.953125 
Q 35.25 24.703125 29.984375 24.703125 
Q 19.046875 24.703125 12.671875 31.3125 
Q 6.296875 37.9375 6.296875 49.421875 
Q 6.296875 60.640625 12.9375 67.421875 
Q 19.578125 74.21875 30.609375 74.21875 
Q 43.265625 74.21875 49.921875 64.515625 
Q 56.59375 54.828125 56.59375 36.375 
Q 56.59375 19.140625 48.40625 8.859375 
Q 40.234375 -1.421875 26.421875 -1.421875 
Q 22.703125 -1.421875 18.890625 -0.6875 
Q 15.09375 0.046875 10.984375 1.515625 
z
M 30.609375 32.421875 
Q 37.25 32.421875 41.125 36.953125 
Q 45.015625 41.5 45.015625 49.421875 
Q 45.015625 57.28125 41.125 61.84375 
Q 37.25 66.40625 30.609375 66.40625 
Q 23.96875 66.40625 20.09375 61.84375 
Q 16.21875 57.28125 16.21875 49.421875 
Q 16.21875 41.5 20.09375 36.953125 
Q 23.96875 32.421875 30.609375 32.421875 
z
" id="DejaVuSans-39"/>
      </defs>
      <g transform="translate(427.907206 602.716094)scale(0.25 -0.25)">
       <use xlink:href="#DejaVuSans-39"/>
      </g>
     </g>
    </g>
    <g id="xtick_10">
     <g id="line2d_10">
      <g>
       <use style="stroke:#000000;stroke-width:0.8;" x="477.364463" xlink:href="#m9e9e107406" y="576.72"/>
      </g>
     </g>
     <g id="text_10">
      <!-- 10 -->
      <defs>
       <path d="M 31.78125 66.40625 
Q 24.171875 66.40625 20.328125 58.90625 
Q 16.5 51.421875 16.5 36.375 
Q 16.5 21.390625 20.328125 13.890625 
Q 24.171875 6.390625 31.78125 6.390625 
Q 39.453125 6.390625 43.28125 13.890625 
Q 47.125 21.390625 47.125 36.375 
Q 47.125 51.421875 43.28125 58.90625 
Q 39.453125 66.40625 31.78125 66.40625 
z
M 31.78125 74.21875 
Q 44.046875 74.21875 50.515625 64.515625 
Q 56.984375 54.828125 56.984375 36.375 
Q 56.984375 17.96875 50.515625 8.265625 
Q 44.046875 -1.421875 31.78125 -1.421875 
Q 19.53125 -1.421875 13.0625 8.265625 
Q 6.59375 17.96875 6.59375 36.375 
Q 6.59375 54.828125 13.0625 64.515625 
Q 19.53125 74.21875 31.78125 74.21875 
z
" id="DejaVuSans-30"/>
      </defs>
      <g transform="translate(461.458213 602.716094)scale(0.25 -0.25)">
       <use xlink:href="#DejaVuSans-31"/>
       <use x="63.623047" xlink:href="#DejaVuSans-30"/>
      </g>
     </g>
    </g>
    <g id="xtick_11">
     <g id="line2d_11">
      <g>
       <use style="stroke:#000000;stroke-width:0.8;" x="518.868595" xlink:href="#m9e9e107406" y="576.72"/>
      </g>
     </g>
     <g id="text_11">
      <!-- 11 -->
      <g transform="translate(502.962345 602.716094)scale(0.25 -0.25)">
       <use xlink:href="#DejaVuSans-31"/>
       <use x="63.623047" xlink:href="#DejaVuSans-31"/>
      </g>
     </g>
    </g>
    <g id="xtick_12">
     <g id="line2d_12">
      <g>
       <use style="stroke:#000000;stroke-width:0.8;" x="560.372727" xlink:href="#m9e9e107406" y="576.72"/>
      </g>
     </g>
     <g id="text_12">
      <!-- 12 -->
      <g transform="translate(544.466477 602.716094)scale(0.25 -0.25)">
       <use xlink:href="#DejaVuSans-31"/>
       <use x="63.623047" xlink:href="#DejaVuSans-32"/>
      </g>
     </g>
    </g>
    <g id="text_13">
     <!-- $|\mathbb{A}|$ -->
     <defs>
      <path d="M 21 76.421875 
L 21 -23.578125 
L 12.703125 -23.578125 
L 12.703125 76.421875 
z
" id="DejaVuSans-7c"/>
      <path d="M 60.59375 0 
L 45.40625 0 
L 43 21.203125 
L 17.09375 21.203125 
L 4.703125 0 
L 0.296875 0 
L 38.703125 65.296875 
L 53.5 65.296875 
z
M 56.40625 3.703125 
L 50.09375 61.59375 
L 42.5 61.59375 
L 48.796875 3.703125 
z
M 42.59375 24.90625 
L 39 58.09375 
L 38.796875 58.203125 
L 19.203125 24.90625 
z
" id="STIXNonUnicode-Italic-e154"/>
     </defs>
     <g transform="translate(315.225 631.165313)scale(0.25 -0.25)">
      <use transform="translate(0 0.578125)" xlink:href="#DejaVuSans-7c"/>
      <use transform="translate(33.691406 0.578125)" xlink:href="#STIXNonUnicode-Italic-e154"/>
      <use transform="translate(100.791397 0.578125)" xlink:href="#DejaVuSans-7c"/>
     </g>
    </g>
   </g>
   <g id="matplotlib.axis_2">
    <g id="ytick_1">
     <g id="line2d_13">
      <defs>
       <path d="M 0 0 
L -3.5 0 
" id="m9e132a1182" style="stroke:#000000;stroke-width:0.8;"/>
      </defs>
      <g>
       <use style="stroke:#000000;stroke-width:0.8;" x="81" xlink:href="#m9e132a1182" y="576.72"/>
      </g>
     </g>
     <g id="text_14">
      <!-- 0.0 -->
      <defs>
       <path d="M 10.6875 12.40625 
L 21 12.40625 
L 21 0 
L 10.6875 0 
z
" id="DejaVuSans-2e"/>
      </defs>
      <g transform="translate(34.242188 586.218047)scale(0.25 -0.25)">
       <use xlink:href="#DejaVuSans-30"/>
       <use x="63.623047" xlink:href="#DejaVuSans-2e"/>
       <use x="95.410156" xlink:href="#DejaVuSans-30"/>
      </g>
     </g>
    </g>
    <g id="ytick_2">
     <g id="line2d_14">
      <g>
       <use style="stroke:#000000;stroke-width:0.8;" x="81" xlink:href="#m9e132a1182" y="477.91604"/>
      </g>
     </g>
     <g id="text_15">
      <!-- 0.2 -->
      <g transform="translate(34.242188 487.414086)scale(0.25 -0.25)">
       <use xlink:href="#DejaVuSans-30"/>
       <use x="63.623047" xlink:href="#DejaVuSans-2e"/>
       <use x="95.410156" xlink:href="#DejaVuSans-32"/>
      </g>
     </g>
    </g>
    <g id="ytick_3">
     <g id="line2d_15">
      <g>
       <use style="stroke:#000000;stroke-width:0.8;" x="81" xlink:href="#m9e132a1182" y="379.112079"/>
      </g>
     </g>
     <g id="text_16">
      <!-- 0.4 -->
      <g transform="translate(34.242188 388.610126)scale(0.25 -0.25)">
       <use xlink:href="#DejaVuSans-30"/>
       <use x="63.623047" xlink:href="#DejaVuSans-2e"/>
       <use x="95.410156" xlink:href="#DejaVuSans-34"/>
      </g>
     </g>
    </g>
    <g id="ytick_4">
     <g id="line2d_16">
      <g>
       <use style="stroke:#000000;stroke-width:0.8;" x="81" xlink:href="#m9e132a1182" y="280.308119"/>
      </g>
     </g>
     <g id="text_17">
      <!-- 0.6 -->
      <g transform="translate(34.242188 289.806166)scale(0.25 -0.25)">
       <use xlink:href="#DejaVuSans-30"/>
       <use x="63.623047" xlink:href="#DejaVuSans-2e"/>
       <use x="95.410156" xlink:href="#DejaVuSans-36"/>
      </g>
     </g>
    </g>
    <g id="ytick_5">
     <g id="line2d_17">
      <g>
       <use style="stroke:#000000;stroke-width:0.8;" x="81" xlink:href="#m9e132a1182" y="181.504158"/>
      </g>
     </g>
     <g id="text_18">
      <!-- 0.8 -->
      <g transform="translate(34.242188 191.002205)scale(0.25 -0.25)">
       <use xlink:href="#DejaVuSans-30"/>
       <use x="63.623047" xlink:href="#DejaVuSans-2e"/>
       <use x="95.410156" xlink:href="#DejaVuSans-38"/>
      </g>
     </g>
    </g>
    <g id="ytick_6">
     <g id="line2d_18">
      <g>
       <use style="stroke:#000000;stroke-width:0.8;" x="81" xlink:href="#m9e132a1182" y="82.700198"/>
      </g>
     </g>
     <g id="text_19">
      <!-- 1.0 -->
      <g transform="translate(34.242188 92.198245)scale(0.25 -0.25)">
       <use xlink:href="#DejaVuSans-31"/>
       <use x="63.623047" xlink:href="#DejaVuSans-2e"/>
       <use x="95.410156" xlink:href="#DejaVuSans-30"/>
      </g>
     </g>
    </g>
    <g id="text_20">
     <!-- Effectiveness -->
     <defs>
      <path d="M 9.8125 72.90625 
L 55.90625 72.90625 
L 55.90625 64.59375 
L 19.671875 64.59375 
L 19.671875 43.015625 
L 54.390625 43.015625 
L 54.390625 34.71875 
L 19.671875 34.71875 
L 19.671875 8.296875 
L 56.78125 8.296875 
L 56.78125 0 
L 9.8125 0 
z
" id="DejaVuSans-45"/>
      <path d="M 37.109375 75.984375 
L 37.109375 68.5 
L 28.515625 68.5 
Q 23.6875 68.5 21.796875 66.546875 
Q 19.921875 64.59375 19.921875 59.515625 
L 19.921875 54.6875 
L 34.71875 54.6875 
L 34.71875 47.703125 
L 19.921875 47.703125 
L 19.921875 0 
L 10.890625 0 
L 10.890625 47.703125 
L 2.296875 47.703125 
L 2.296875 54.6875 
L 10.890625 54.6875 
L 10.890625 58.5 
Q 10.890625 67.625 15.140625 71.796875 
Q 19.390625 75.984375 28.609375 75.984375 
z
" id="DejaVuSans-66"/>
      <path d="M 56.203125 29.59375 
L 56.203125 25.203125 
L 14.890625 25.203125 
Q 15.484375 15.921875 20.484375 11.0625 
Q 25.484375 6.203125 34.421875 6.203125 
Q 39.59375 6.203125 44.453125 7.46875 
Q 49.3125 8.734375 54.109375 11.28125 
L 54.109375 2.78125 
Q 49.265625 0.734375 44.1875 -0.34375 
Q 39.109375 -1.421875 33.890625 -1.421875 
Q 20.796875 -1.421875 13.15625 6.1875 
Q 5.515625 13.8125 5.515625 26.8125 
Q 5.515625 40.234375 12.765625 48.109375 
Q 20.015625 56 32.328125 56 
Q 43.359375 56 49.78125 48.890625 
Q 56.203125 41.796875 56.203125 29.59375 
z
M 47.21875 32.234375 
Q 47.125 39.59375 43.09375 43.984375 
Q 39.0625 48.390625 32.421875 48.390625 
Q 24.90625 48.390625 20.390625 44.140625 
Q 15.875 39.890625 15.1875 32.171875 
z
" id="DejaVuSans-65"/>
      <path d="M 48.78125 52.59375 
L 48.78125 44.1875 
Q 44.96875 46.296875 41.140625 47.34375 
Q 37.3125 48.390625 33.40625 48.390625 
Q 24.65625 48.390625 19.8125 42.84375 
Q 14.984375 37.3125 14.984375 27.296875 
Q 14.984375 17.28125 19.8125 11.734375 
Q 24.65625 6.203125 33.40625 6.203125 
Q 37.3125 6.203125 41.140625 7.25 
Q 44.96875 8.296875 48.78125 10.40625 
L 48.78125 2.09375 
Q 45.015625 0.34375 40.984375 -0.53125 
Q 36.96875 -1.421875 32.421875 -1.421875 
Q 20.0625 -1.421875 12.78125 6.34375 
Q 5.515625 14.109375 5.515625 27.296875 
Q 5.515625 40.671875 12.859375 48.328125 
Q 20.21875 56 33.015625 56 
Q 37.15625 56 41.109375 55.140625 
Q 45.0625 54.296875 48.78125 52.59375 
z
" id="DejaVuSans-63"/>
      <path d="M 18.3125 70.21875 
L 18.3125 54.6875 
L 36.8125 54.6875 
L 36.8125 47.703125 
L 18.3125 47.703125 
L 18.3125 18.015625 
Q 18.3125 11.328125 20.140625 9.421875 
Q 21.96875 7.515625 27.59375 7.515625 
L 36.8125 7.515625 
L 36.8125 0 
L 27.59375 0 
Q 17.1875 0 13.234375 3.875 
Q 9.28125 7.765625 9.28125 18.015625 
L 9.28125 47.703125 
L 2.6875 47.703125 
L 2.6875 54.6875 
L 9.28125 54.6875 
L 9.28125 70.21875 
z
" id="DejaVuSans-74"/>
      <path d="M 9.421875 54.6875 
L 18.40625 54.6875 
L 18.40625 0 
L 9.421875 0 
z
M 9.421875 75.984375 
L 18.40625 75.984375 
L 18.40625 64.59375 
L 9.421875 64.59375 
z
" id="DejaVuSans-69"/>
      <path d="M 2.984375 54.6875 
L 12.5 54.6875 
L 29.59375 8.796875 
L 46.6875 54.6875 
L 56.203125 54.6875 
L 35.6875 0 
L 23.484375 0 
z
" id="DejaVuSans-76"/>
      <path d="M 54.890625 33.015625 
L 54.890625 0 
L 45.90625 0 
L 45.90625 32.71875 
Q 45.90625 40.484375 42.875 44.328125 
Q 39.84375 48.1875 33.796875 48.1875 
Q 26.515625 48.1875 22.3125 43.546875 
Q 18.109375 38.921875 18.109375 30.90625 
L 18.109375 0 
L 9.078125 0 
L 9.078125 54.6875 
L 18.109375 54.6875 
L 18.109375 46.1875 
Q 21.34375 51.125 25.703125 53.5625 
Q 30.078125 56 35.796875 56 
Q 45.21875 56 50.046875 50.171875 
Q 54.890625 44.34375 54.890625 33.015625 
z
" id="DejaVuSans-6e"/>
      <path d="M 44.28125 53.078125 
L 44.28125 44.578125 
Q 40.484375 46.53125 36.375 47.5 
Q 32.28125 48.484375 27.875 48.484375 
Q 21.1875 48.484375 17.84375 46.4375 
Q 14.5 44.390625 14.5 40.28125 
Q 14.5 37.15625 16.890625 35.375 
Q 19.28125 33.59375 26.515625 31.984375 
L 29.59375 31.296875 
Q 39.15625 29.25 43.1875 25.515625 
Q 47.21875 21.78125 47.21875 15.09375 
Q 47.21875 7.46875 41.1875 3.015625 
Q 35.15625 -1.421875 24.609375 -1.421875 
Q 20.21875 -1.421875 15.453125 -0.5625 
Q 10.6875 0.296875 5.421875 2 
L 5.421875 11.28125 
Q 10.40625 8.6875 15.234375 7.390625 
Q 20.0625 6.109375 24.8125 6.109375 
Q 31.15625 6.109375 34.5625 8.28125 
Q 37.984375 10.453125 37.984375 14.40625 
Q 37.984375 18.0625 35.515625 20.015625 
Q 33.0625 21.96875 24.703125 23.78125 
L 21.578125 24.515625 
Q 13.234375 26.265625 9.515625 29.90625 
Q 5.8125 33.546875 5.8125 39.890625 
Q 5.8125 47.609375 11.28125 51.796875 
Q 16.75 56 26.8125 56 
Q 31.78125 56 36.171875 55.265625 
Q 40.578125 54.546875 44.28125 53.078125 
z
" id="DejaVuSans-73"/>
     </defs>
     <g transform="translate(25.042969 410.603281)rotate(-90)scale(0.25 -0.25)">
      <use xlink:href="#DejaVuSans-45"/>
      <use x="63.183594" xlink:href="#DejaVuSans-66"/>
      <use x="98.388672" xlink:href="#DejaVuSans-66"/>
      <use x="133.59375" xlink:href="#DejaVuSans-65"/>
      <use x="195.117188" xlink:href="#DejaVuSans-63"/>
      <use x="250.097656" xlink:href="#DejaVuSans-74"/>
      <use x="289.306641" xlink:href="#DejaVuSans-69"/>
      <use x="317.089844" xlink:href="#DejaVuSans-76"/>
      <use x="376.269531" xlink:href="#DejaVuSans-65"/>
      <use x="437.792969" xlink:href="#DejaVuSans-6e"/>
      <use x="501.171875" xlink:href="#DejaVuSans-65"/>
      <use x="562.695312" xlink:href="#DejaVuSans-73"/>
      <use x="614.794922" xlink:href="#DejaVuSans-73"/>
     </g>
    </g>
   </g>
   <g id="line2d_19">
    <path clip-path="url(#p03c3731e82)" d="M 103.827273 277.829854 
L 145.331405 258.069062 
L 186.835537 242.260428 
L 228.339669 230.88916 
L 269.843802 219.526704 
L 311.347934 211.128368 
L 352.852066 212.303181 
L 394.356198 217.559438 
L 435.860331 231.778923 
L 477.364463 247.621002 
L 518.868595 257.081022 
L 560.372727 266.36031 
" style="fill:none;stroke:#ff0000;stroke-dasharray:12.8,3.2,2,3.2;stroke-dashoffset:0;stroke-width:2;"/>
    <defs>
     <path d="M -10 -0 
L 10 10 
L 10 -10 
z
" id="mc783236a1a" style="stroke:#ff0000;stroke-linejoin:miter;"/>
    </defs>
    <g clip-path="url(#p03c3731e82)">
     <use style="fill:#ff0000;stroke:#ff0000;stroke-linejoin:miter;" x="103.827273" xlink:href="#mc783236a1a" y="277.829854"/>
     <use style="fill:#ff0000;stroke:#ff0000;stroke-linejoin:miter;" x="145.331405" xlink:href="#mc783236a1a" y="258.069062"/>
     <use style="fill:#ff0000;stroke:#ff0000;stroke-linejoin:miter;" x="186.835537" xlink:href="#mc783236a1a" y="242.260428"/>
     <use style="fill:#ff0000;stroke:#ff0000;stroke-linejoin:miter;" x="228.339669" xlink:href="#mc783236a1a" y="230.88916"/>
     <use style="fill:#ff0000;stroke:#ff0000;stroke-linejoin:miter;" x="269.843802" xlink:href="#mc783236a1a" y="219.526704"/>
     <use style="fill:#ff0000;stroke:#ff0000;stroke-linejoin:miter;" x="311.347934" xlink:href="#mc783236a1a" y="211.128368"/>
     <use style="fill:#ff0000;stroke:#ff0000;stroke-linejoin:miter;" x="352.852066" xlink:href="#mc783236a1a" y="212.303181"/>
     <use style="fill:#ff0000;stroke:#ff0000;stroke-linejoin:miter;" x="394.356198" xlink:href="#mc783236a1a" y="217.559438"/>
     <use style="fill:#ff0000;stroke:#ff0000;stroke-linejoin:miter;" x="435.860331" xlink:href="#mc783236a1a" y="231.778923"/>
     <use style="fill:#ff0000;stroke:#ff0000;stroke-linejoin:miter;" x="477.364463" xlink:href="#mc783236a1a" y="247.621002"/>
     <use style="fill:#ff0000;stroke:#ff0000;stroke-linejoin:miter;" x="518.868595" xlink:href="#mc783236a1a" y="257.081022"/>
     <use style="fill:#ff0000;stroke:#ff0000;stroke-linejoin:miter;" x="560.372727" xlink:href="#mc783236a1a" y="266.36031"/>
    </g>
   </g>
   <g id="line2d_20">
    <path clip-path="url(#p03c3731e82)" d="M 103.827273 245.178371 
L 145.331405 240.238173 
L 186.835537 235.297975 
L 228.339669 226.844955 
L 269.843802 220.427485 
L 311.347934 215.630024 
L 352.852066 220.531723 
L 394.356198 235.352317 
L 435.860331 240.292515 
L 477.364463 245.232713 
L 518.868595 245.232713 
L 560.372727 250.172911 
" style="fill:none;stroke:#0000ff;stroke-dasharray:2,3.3;stroke-dashoffset:0;stroke-width:2;"/>
    <defs>
     <path d="M 0 -10 
L -2.24514 -3.09017 
L -9.510565 -3.09017 
L -3.632713 1.18034 
L -5.877853 8.09017 
L -0 3.81966 
L 5.877853 8.09017 
L 3.632713 1.18034 
L 9.510565 -3.09017 
L 2.24514 -3.09017 
z
" id="m4b3611d42c" style="stroke:#0000ff;stroke-linejoin:bevel;"/>
    </defs>
    <g clip-path="url(#p03c3731e82)">
     <use style="fill:#0000ff;stroke:#0000ff;stroke-linejoin:bevel;" x="103.827273" xlink:href="#m4b3611d42c" y="245.178371"/>
     <use style="fill:#0000ff;stroke:#0000ff;stroke-linejoin:bevel;" x="145.331405" xlink:href="#m4b3611d42c" y="240.238173"/>
     <use style="fill:#0000ff;stroke:#0000ff;stroke-linejoin:bevel;" x="186.835537" xlink:href="#m4b3611d42c" y="235.297975"/>
     <use style="fill:#0000ff;stroke:#0000ff;stroke-linejoin:bevel;" x="228.339669" xlink:href="#m4b3611d42c" y="226.844955"/>
     <use style="fill:#0000ff;stroke:#0000ff;stroke-linejoin:bevel;" x="269.843802" xlink:href="#m4b3611d42c" y="220.427485"/>
     <use style="fill:#0000ff;stroke:#0000ff;stroke-linejoin:bevel;" x="311.347934" xlink:href="#m4b3611d42c" y="215.630024"/>
     <use style="fill:#0000ff;stroke:#0000ff;stroke-linejoin:bevel;" x="352.852066" xlink:href="#m4b3611d42c" y="220.531723"/>
     <use style="fill:#0000ff;stroke:#0000ff;stroke-linejoin:bevel;" x="394.356198" xlink:href="#m4b3611d42c" y="235.352317"/>
     <use style="fill:#0000ff;stroke:#0000ff;stroke-linejoin:bevel;" x="435.860331" xlink:href="#m4b3611d42c" y="240.292515"/>
     <use style="fill:#0000ff;stroke:#0000ff;stroke-linejoin:bevel;" x="477.364463" xlink:href="#m4b3611d42c" y="245.232713"/>
     <use style="fill:#0000ff;stroke:#0000ff;stroke-linejoin:bevel;" x="518.868595" xlink:href="#m4b3611d42c" y="245.232713"/>
     <use style="fill:#0000ff;stroke:#0000ff;stroke-linejoin:bevel;" x="560.372727" xlink:href="#m4b3611d42c" y="250.172911"/>
    </g>
   </g>
   <g id="line2d_21">
    <path clip-path="url(#p03c3731e82)" d="M 103.827273 323.775439 
L 145.331405 303.960799 
L 186.835537 289.194053 
L 228.339669 283.612054 
L 269.843802 279.356073 
L 311.347934 278.775465 
L 352.852066 279.209369 
L 394.356198 289.089765 
L 435.860331 298.708825 
L 477.364463 303.910359 
L 518.868595 308.850557 
L 560.372727 308.850557 
" style="fill:none;stroke:#990000;stroke-dasharray:12.8,3.2,2,3.2;stroke-dashoffset:0;stroke-width:2;"/>
    <defs>
     <path d="M -10 10 
L 10 10 
L 10 -10 
L -10 -10 
z
" id="mc6a796434e" style="stroke:#990000;stroke-linejoin:miter;"/>
    </defs>
    <g clip-path="url(#p03c3731e82)">
     <use style="fill:#990000;stroke:#990000;stroke-linejoin:miter;" x="103.827273" xlink:href="#mc6a796434e" y="323.775439"/>
     <use style="fill:#990000;stroke:#990000;stroke-linejoin:miter;" x="145.331405" xlink:href="#mc6a796434e" y="303.960799"/>
     <use style="fill:#990000;stroke:#990000;stroke-linejoin:miter;" x="186.835537" xlink:href="#mc6a796434e" y="289.194053"/>
     <use style="fill:#990000;stroke:#990000;stroke-linejoin:miter;" x="228.339669" xlink:href="#mc6a796434e" y="283.612054"/>
     <use style="fill:#990000;stroke:#990000;stroke-linejoin:miter;" x="269.843802" xlink:href="#mc6a796434e" y="279.356073"/>
     <use style="fill:#990000;stroke:#990000;stroke-linejoin:miter;" x="311.347934" xlink:href="#mc6a796434e" y="278.775465"/>
     <use style="fill:#990000;stroke:#990000;stroke-linejoin:miter;" x="352.852066" xlink:href="#mc6a796434e" y="279.209369"/>
     <use style="fill:#990000;stroke:#990000;stroke-linejoin:miter;" x="394.356198" xlink:href="#mc6a796434e" y="289.089765"/>
     <use style="fill:#990000;stroke:#990000;stroke-linejoin:miter;" x="435.860331" xlink:href="#mc6a796434e" y="298.708825"/>
     <use style="fill:#990000;stroke:#990000;stroke-linejoin:miter;" x="477.364463" xlink:href="#mc6a796434e" y="303.910359"/>
     <use style="fill:#990000;stroke:#990000;stroke-linejoin:miter;" x="518.868595" xlink:href="#mc6a796434e" y="308.850557"/>
     <use style="fill:#990000;stroke:#990000;stroke-linejoin:miter;" x="560.372727" xlink:href="#mc6a796434e" y="308.850557"/>
    </g>
   </g>
   <g id="line2d_22">
    <path clip-path="url(#p03c3731e82)" d="M 103.827273 335.198659 
L 145.331405 315.437867 
L 186.835537 300.617273 
L 228.339669 295.035273 
L 269.843802 290.779293 
L 311.347934 289.259059 
L 352.852066 290.632589 
L 394.356198 300.512985 
L 435.860331 310.393381 
L 477.364463 315.333579 
L 518.868595 320.273777 
L 560.372727 320.273777 
" style="fill:none;stroke:#008000;stroke-dasharray:7.4,3.2;stroke-dashoffset:0;stroke-width:2;"/>
    <defs>
     <path d="M 0 10 
C 2.652031 10 5.195799 8.946337 7.071068 7.071068 
C 8.946337 5.195799 10 2.652031 10 0 
C 10 -2.652031 8.946337 -5.195799 7.071068 -7.071068 
C 5.195799 -8.946337 2.652031 -10 0 -10 
C -2.652031 -10 -5.195799 -8.946337 -7.071068 -7.071068 
C -8.946337 -5.195799 -10 -2.652031 -10 0 
C -10 2.652031 -8.946337 5.195799 -7.071068 7.071068 
C -5.195799 8.946337 -2.652031 10 0 10 
z
" id="m4120ea2539" style="stroke:#008000;"/>
    </defs>
    <g clip-path="url(#p03c3731e82)">
     <use style="fill:#008000;stroke:#008000;" x="103.827273" xlink:href="#m4120ea2539" y="335.198659"/>
     <use style="fill:#008000;stroke:#008000;" x="145.331405" xlink:href="#m4120ea2539" y="315.437867"/>
     <use style="fill:#008000;stroke:#008000;" x="186.835537" xlink:href="#m4120ea2539" y="300.617273"/>
     <use style="fill:#008000;stroke:#008000;" x="228.339669" xlink:href="#m4120ea2539" y="295.035273"/>
     <use style="fill:#008000;stroke:#008000;" x="269.843802" xlink:href="#m4120ea2539" y="290.779293"/>
     <use style="fill:#008000;stroke:#008000;" x="311.347934" xlink:href="#m4120ea2539" y="289.259059"/>
     <use style="fill:#008000;stroke:#008000;" x="352.852066" xlink:href="#m4120ea2539" y="290.632589"/>
     <use style="fill:#008000;stroke:#008000;" x="394.356198" xlink:href="#m4120ea2539" y="300.512985"/>
     <use style="fill:#008000;stroke:#008000;" x="435.860331" xlink:href="#m4120ea2539" y="310.393381"/>
     <use style="fill:#008000;stroke:#008000;" x="477.364463" xlink:href="#m4120ea2539" y="315.333579"/>
     <use style="fill:#008000;stroke:#008000;" x="518.868595" xlink:href="#m4120ea2539" y="320.273777"/>
     <use style="fill:#008000;stroke:#008000;" x="560.372727" xlink:href="#m4120ea2539" y="320.273777"/>
    </g>
   </g>
   <g id="line2d_23">
    <path clip-path="url(#p03c3731e82)" d="M 103.827273 356.056175 
L 145.331405 346.175779 
L 186.835537 341.235581 
L 228.339669 331.355185 
L 269.843802 331.355185 
L 311.347934 331.355185 
L 352.852066 329.710099 
L 394.356198 334.650297 
L 435.860331 344.530693 
L 477.364463 344.530693 
L 518.868595 354.411089 
L 560.372727 354.411089 
" style="fill:none;stroke:#000000;stroke-dasharray:2,3.3;stroke-dashoffset:0;stroke-width:2;"/>
    <defs>
     <path d="M -10 10 
L 10 -10 
M -10 -10 
L 10 10 
" id="maf51bd228b" style="stroke:#000000;"/>
    </defs>
    <g clip-path="url(#p03c3731e82)">
     <use style="stroke:#000000;" x="103.827273" xlink:href="#maf51bd228b" y="356.056175"/>
     <use style="stroke:#000000;" x="145.331405" xlink:href="#maf51bd228b" y="346.175779"/>
     <use style="stroke:#000000;" x="186.835537" xlink:href="#maf51bd228b" y="341.235581"/>
     <use style="stroke:#000000;" x="228.339669" xlink:href="#maf51bd228b" y="331.355185"/>
     <use style="stroke:#000000;" x="269.843802" xlink:href="#maf51bd228b" y="331.355185"/>
     <use style="stroke:#000000;" x="311.347934" xlink:href="#maf51bd228b" y="331.355185"/>
     <use style="stroke:#000000;" x="352.852066" xlink:href="#maf51bd228b" y="329.710099"/>
     <use style="stroke:#000000;" x="394.356198" xlink:href="#maf51bd228b" y="334.650297"/>
     <use style="stroke:#000000;" x="435.860331" xlink:href="#maf51bd228b" y="344.530693"/>
     <use style="stroke:#000000;" x="477.364463" xlink:href="#maf51bd228b" y="344.530693"/>
     <use style="stroke:#000000;" x="518.868595" xlink:href="#maf51bd228b" y="354.411089"/>
     <use style="stroke:#000000;" x="560.372727" xlink:href="#maf51bd228b" y="354.411089"/>
    </g>
   </g>
   <g id="patch_3">
    <path d="M 81 576.72 
L 81 77.76 
" style="fill:none;stroke:#000000;stroke-linecap:square;stroke-linejoin:miter;stroke-width:0.8;"/>
   </g>
   <g id="patch_4">
    <path d="M 81 576.72 
L 583.2 576.72 
" style="fill:none;stroke:#000000;stroke-linecap:square;stroke-linejoin:miter;stroke-width:0.8;"/>
   </g>
   <g id="legend_1">
    <g id="line2d_24">
     <path d="M 103.5 393.489531 
L 153.5 393.489531 
" style="fill:none;stroke:#ff0000;stroke-dasharray:12.8,3.2,2,3.2;stroke-dashoffset:0;stroke-width:2;"/>
    </g>
    <g id="line2d_25">
     <g>
      <use style="fill:#ff0000;stroke:#ff0000;stroke-linejoin:miter;" x="128.5" xlink:href="#mc783236a1a" y="393.489531"/>
     </g>
    </g>
    <g id="text_21">
     <!-- VizPut-Cell-Impact -->
     <defs>
      <path d="M 28.609375 0 
L 0.78125 72.90625 
L 11.078125 72.90625 
L 34.1875 11.53125 
L 57.328125 72.90625 
L 67.578125 72.90625 
L 39.796875 0 
z
" id="DejaVuSans-56"/>
      <path d="M 5.515625 54.6875 
L 48.1875 54.6875 
L 48.1875 46.484375 
L 14.40625 7.171875 
L 48.1875 7.171875 
L 48.1875 0 
L 4.296875 0 
L 4.296875 8.203125 
L 38.09375 47.515625 
L 5.515625 47.515625 
z
" id="DejaVuSans-7a"/>
      <path d="M 19.671875 64.796875 
L 19.671875 37.40625 
L 32.078125 37.40625 
Q 38.96875 37.40625 42.71875 40.96875 
Q 46.484375 44.53125 46.484375 51.125 
Q 46.484375 57.671875 42.71875 61.234375 
Q 38.96875 64.796875 32.078125 64.796875 
z
M 9.8125 72.90625 
L 32.078125 72.90625 
Q 44.34375 72.90625 50.609375 67.359375 
Q 56.890625 61.8125 56.890625 51.125 
Q 56.890625 40.328125 50.609375 34.8125 
Q 44.34375 29.296875 32.078125 29.296875 
L 19.671875 29.296875 
L 19.671875 0 
L 9.8125 0 
z
" id="DejaVuSans-50"/>
      <path d="M 8.5 21.578125 
L 8.5 54.6875 
L 17.484375 54.6875 
L 17.484375 21.921875 
Q 17.484375 14.15625 20.5 10.265625 
Q 23.53125 6.390625 29.59375 6.390625 
Q 36.859375 6.390625 41.078125 11.03125 
Q 45.3125 15.671875 45.3125 23.6875 
L 45.3125 54.6875 
L 54.296875 54.6875 
L 54.296875 0 
L 45.3125 0 
L 45.3125 8.40625 
Q 42.046875 3.421875 37.71875 1 
Q 33.40625 -1.421875 27.6875 -1.421875 
Q 18.265625 -1.421875 13.375 4.4375 
Q 8.5 10.296875 8.5 21.578125 
z
M 31.109375 56 
z
" id="DejaVuSans-75"/>
      <path d="M 4.890625 31.390625 
L 31.203125 31.390625 
L 31.203125 23.390625 
L 4.890625 23.390625 
z
" id="DejaVuSans-2d"/>
      <path d="M 64.40625 67.28125 
L 64.40625 56.890625 
Q 59.421875 61.53125 53.78125 63.8125 
Q 48.140625 66.109375 41.796875 66.109375 
Q 29.296875 66.109375 22.65625 58.46875 
Q 16.015625 50.828125 16.015625 36.375 
Q 16.015625 21.96875 22.65625 14.328125 
Q 29.296875 6.6875 41.796875 6.6875 
Q 48.140625 6.6875 53.78125 8.984375 
Q 59.421875 11.28125 64.40625 15.921875 
L 64.40625 5.609375 
Q 59.234375 2.09375 53.4375 0.328125 
Q 47.65625 -1.421875 41.21875 -1.421875 
Q 24.65625 -1.421875 15.125 8.703125 
Q 5.609375 18.84375 5.609375 36.375 
Q 5.609375 53.953125 15.125 64.078125 
Q 24.65625 74.21875 41.21875 74.21875 
Q 47.75 74.21875 53.53125 72.484375 
Q 59.328125 70.75 64.40625 67.28125 
z
" id="DejaVuSans-43"/>
      <path d="M 9.421875 75.984375 
L 18.40625 75.984375 
L 18.40625 0 
L 9.421875 0 
z
" id="DejaVuSans-6c"/>
      <path d="M 9.8125 72.90625 
L 19.671875 72.90625 
L 19.671875 0 
L 9.8125 0 
z
" id="DejaVuSans-49"/>
      <path d="M 52 44.1875 
Q 55.375 50.25 60.0625 53.125 
Q 64.75 56 71.09375 56 
Q 79.640625 56 84.28125 50.015625 
Q 88.921875 44.046875 88.921875 33.015625 
L 88.921875 0 
L 79.890625 0 
L 79.890625 32.71875 
Q 79.890625 40.578125 77.09375 44.375 
Q 74.3125 48.1875 68.609375 48.1875 
Q 61.625 48.1875 57.5625 43.546875 
Q 53.515625 38.921875 53.515625 30.90625 
L 53.515625 0 
L 44.484375 0 
L 44.484375 32.71875 
Q 44.484375 40.625 41.703125 44.40625 
Q 38.921875 48.1875 33.109375 48.1875 
Q 26.21875 48.1875 22.15625 43.53125 
Q 18.109375 38.875 18.109375 30.90625 
L 18.109375 0 
L 9.078125 0 
L 9.078125 54.6875 
L 18.109375 54.6875 
L 18.109375 46.1875 
Q 21.1875 51.21875 25.484375 53.609375 
Q 29.78125 56 35.6875 56 
Q 41.65625 56 45.828125 52.96875 
Q 50 49.953125 52 44.1875 
z
" id="DejaVuSans-6d"/>
      <path d="M 18.109375 8.203125 
L 18.109375 -20.796875 
L 9.078125 -20.796875 
L 9.078125 54.6875 
L 18.109375 54.6875 
L 18.109375 46.390625 
Q 20.953125 51.265625 25.265625 53.625 
Q 29.59375 56 35.59375 56 
Q 45.5625 56 51.78125 48.09375 
Q 58.015625 40.1875 58.015625 27.296875 
Q 58.015625 14.40625 51.78125 6.484375 
Q 45.5625 -1.421875 35.59375 -1.421875 
Q 29.59375 -1.421875 25.265625 0.953125 
Q 20.953125 3.328125 18.109375 8.203125 
z
M 48.6875 27.296875 
Q 48.6875 37.203125 44.609375 42.84375 
Q 40.53125 48.484375 33.40625 48.484375 
Q 26.265625 48.484375 22.1875 42.84375 
Q 18.109375 37.203125 18.109375 27.296875 
Q 18.109375 17.390625 22.1875 11.75 
Q 26.265625 6.109375 33.40625 6.109375 
Q 40.53125 6.109375 44.609375 11.75 
Q 48.6875 17.390625 48.6875 27.296875 
z
" id="DejaVuSans-70"/>
      <path d="M 34.28125 27.484375 
Q 23.390625 27.484375 19.1875 25 
Q 14.984375 22.515625 14.984375 16.5 
Q 14.984375 11.71875 18.140625 8.90625 
Q 21.296875 6.109375 26.703125 6.109375 
Q 34.1875 6.109375 38.703125 11.40625 
Q 43.21875 16.703125 43.21875 25.484375 
L 43.21875 27.484375 
z
M 52.203125 31.203125 
L 52.203125 0 
L 43.21875 0 
L 43.21875 8.296875 
Q 40.140625 3.328125 35.546875 0.953125 
Q 30.953125 -1.421875 24.3125 -1.421875 
Q 15.921875 -1.421875 10.953125 3.296875 
Q 6 8.015625 6 15.921875 
Q 6 25.140625 12.171875 29.828125 
Q 18.359375 34.515625 30.609375 34.515625 
L 43.21875 34.515625 
L 43.21875 35.40625 
Q 43.21875 41.609375 39.140625 45 
Q 35.0625 48.390625 27.6875 48.390625 
Q 23 48.390625 18.546875 47.265625 
Q 14.109375 46.140625 10.015625 43.890625 
L 10.015625 52.203125 
Q 14.9375 54.109375 19.578125 55.046875 
Q 24.21875 56 28.609375 56 
Q 40.484375 56 46.34375 49.84375 
Q 52.203125 43.703125 52.203125 31.203125 
z
" id="DejaVuSans-61"/>
     </defs>
     <g transform="translate(173.5 402.239531)scale(0.25 -0.25)">
      <use xlink:href="#DejaVuSans-56"/>
      <use x="68.376953" xlink:href="#DejaVuSans-69"/>
      <use x="96.160156" xlink:href="#DejaVuSans-7a"/>
      <use x="148.650391" xlink:href="#DejaVuSans-50"/>
      <use x="208.9375" xlink:href="#DejaVuSans-75"/>
      <use x="272.316406" xlink:href="#DejaVuSans-74"/>
      <use x="311.525391" xlink:href="#DejaVuSans-2d"/>
      <use x="347.609375" xlink:href="#DejaVuSans-43"/>
      <use x="417.433594" xlink:href="#DejaVuSans-65"/>
      <use x="478.957031" xlink:href="#DejaVuSans-6c"/>
      <use x="506.740234" xlink:href="#DejaVuSans-6c"/>
      <use x="534.523438" xlink:href="#DejaVuSans-2d"/>
      <use x="570.607422" xlink:href="#DejaVuSans-49"/>
      <use x="600.099609" xlink:href="#DejaVuSans-6d"/>
      <use x="697.511719" xlink:href="#DejaVuSans-70"/>
      <use x="760.988281" xlink:href="#DejaVuSans-61"/>
      <use x="822.267578" xlink:href="#DejaVuSans-63"/>
      <use x="877.248047" xlink:href="#DejaVuSans-74"/>
     </g>
    </g>
    <g id="line2d_26">
     <path d="M 103.5 430.184844 
L 153.5 430.184844 
" style="fill:none;stroke:#0000ff;stroke-dasharray:2,3.3;stroke-dashoffset:0;stroke-width:2;"/>
    </g>
    <g id="line2d_27">
     <g>
      <use style="fill:#0000ff;stroke:#0000ff;stroke-linejoin:bevel;" x="128.5" xlink:href="#m4b3611d42c" y="430.184844"/>
     </g>
    </g>
    <g id="text_22">
     <!-- VizPut-Cell-Impact-Fairness -->
     <defs>
      <path d="M 9.8125 72.90625 
L 51.703125 72.90625 
L 51.703125 64.59375 
L 19.671875 64.59375 
L 19.671875 43.109375 
L 48.578125 43.109375 
L 48.578125 34.8125 
L 19.671875 34.8125 
L 19.671875 0 
L 9.8125 0 
z
" id="DejaVuSans-46"/>
      <path d="M 41.109375 46.296875 
Q 39.59375 47.171875 37.8125 47.578125 
Q 36.03125 48 33.890625 48 
Q 26.265625 48 22.1875 43.046875 
Q 18.109375 38.09375 18.109375 28.8125 
L 18.109375 0 
L 9.078125 0 
L 9.078125 54.6875 
L 18.109375 54.6875 
L 18.109375 46.1875 
Q 20.953125 51.171875 25.484375 53.578125 
Q 30.03125 56 36.53125 56 
Q 37.453125 56 38.578125 55.875 
Q 39.703125 55.765625 41.0625 55.515625 
z
" id="DejaVuSans-72"/>
     </defs>
     <g transform="translate(173.5 438.934844)scale(0.25 -0.25)">
      <use xlink:href="#DejaVuSans-56"/>
      <use x="68.376953" xlink:href="#DejaVuSans-69"/>
      <use x="96.160156" xlink:href="#DejaVuSans-7a"/>
      <use x="148.650391" xlink:href="#DejaVuSans-50"/>
      <use x="208.9375" xlink:href="#DejaVuSans-75"/>
      <use x="272.316406" xlink:href="#DejaVuSans-74"/>
      <use x="311.525391" xlink:href="#DejaVuSans-2d"/>
      <use x="347.609375" xlink:href="#DejaVuSans-43"/>
      <use x="417.433594" xlink:href="#DejaVuSans-65"/>
      <use x="478.957031" xlink:href="#DejaVuSans-6c"/>
      <use x="506.740234" xlink:href="#DejaVuSans-6c"/>
      <use x="534.523438" xlink:href="#DejaVuSans-2d"/>
      <use x="570.607422" xlink:href="#DejaVuSans-49"/>
      <use x="600.099609" xlink:href="#DejaVuSans-6d"/>
      <use x="697.511719" xlink:href="#DejaVuSans-70"/>
      <use x="760.988281" xlink:href="#DejaVuSans-61"/>
      <use x="822.267578" xlink:href="#DejaVuSans-63"/>
      <use x="877.248047" xlink:href="#DejaVuSans-74"/>
      <use x="916.457031" xlink:href="#DejaVuSans-2d"/>
      <use x="952.541016" xlink:href="#DejaVuSans-46"/>
      <use x="1009.919922" xlink:href="#DejaVuSans-61"/>
      <use x="1071.199219" xlink:href="#DejaVuSans-69"/>
      <use x="1098.982422" xlink:href="#DejaVuSans-72"/>
      <use x="1140.080078" xlink:href="#DejaVuSans-6e"/>
      <use x="1203.458984" xlink:href="#DejaVuSans-65"/>
      <use x="1264.982422" xlink:href="#DejaVuSans-73"/>
      <use x="1317.082031" xlink:href="#DejaVuSans-73"/>
     </g>
    </g>
    <g id="line2d_28">
     <path d="M 103.5 466.880156 
L 153.5 466.880156 
" style="fill:none;stroke:#990000;stroke-dasharray:12.8,3.2,2,3.2;stroke-dashoffset:0;stroke-width:2;"/>
    </g>
    <g id="line2d_29">
     <g>
      <use style="fill:#990000;stroke:#990000;stroke-linejoin:miter;" x="128.5" xlink:href="#mc6a796434e" y="466.880156"/>
     </g>
    </g>
    <g id="text_23">
     <!-- Fairness imputation -->
     <defs>
      <path id="DejaVuSans-20"/>
      <path d="M 30.609375 48.390625 
Q 23.390625 48.390625 19.1875 42.75 
Q 14.984375 37.109375 14.984375 27.296875 
Q 14.984375 17.484375 19.15625 11.84375 
Q 23.34375 6.203125 30.609375 6.203125 
Q 37.796875 6.203125 41.984375 11.859375 
Q 46.1875 17.53125 46.1875 27.296875 
Q 46.1875 37.015625 41.984375 42.703125 
Q 37.796875 48.390625 30.609375 48.390625 
z
M 30.609375 56 
Q 42.328125 56 49.015625 48.375 
Q 55.71875 40.765625 55.71875 27.296875 
Q 55.71875 13.875 49.015625 6.21875 
Q 42.328125 -1.421875 30.609375 -1.421875 
Q 18.84375 -1.421875 12.171875 6.21875 
Q 5.515625 13.875 5.515625 27.296875 
Q 5.515625 40.765625 12.171875 48.375 
Q 18.84375 56 30.609375 56 
z
" id="DejaVuSans-6f"/>
     </defs>
     <g transform="translate(173.5 475.630156)scale(0.25 -0.25)">
      <use xlink:href="#DejaVuSans-46"/>
      <use x="57.378906" xlink:href="#DejaVuSans-61"/>
      <use x="118.658203" xlink:href="#DejaVuSans-69"/>
      <use x="146.441406" xlink:href="#DejaVuSans-72"/>
      <use x="187.539062" xlink:href="#DejaVuSans-6e"/>
      <use x="250.917969" xlink:href="#DejaVuSans-65"/>
      <use x="312.441406" xlink:href="#DejaVuSans-73"/>
      <use x="364.541016" xlink:href="#DejaVuSans-73"/>
      <use x="416.640625" xlink:href="#DejaVuSans-20"/>
      <use x="448.427734" xlink:href="#DejaVuSans-69"/>
      <use x="476.210938" xlink:href="#DejaVuSans-6d"/>
      <use x="573.623047" xlink:href="#DejaVuSans-70"/>
      <use x="637.099609" xlink:href="#DejaVuSans-75"/>
      <use x="700.478516" xlink:href="#DejaVuSans-74"/>
      <use x="739.6875" xlink:href="#DejaVuSans-61"/>
      <use x="800.966797" xlink:href="#DejaVuSans-74"/>
      <use x="840.175781" xlink:href="#DejaVuSans-69"/>
      <use x="867.958984" xlink:href="#DejaVuSans-6f"/>
      <use x="929.140625" xlink:href="#DejaVuSans-6e"/>
     </g>
    </g>
    <g id="line2d_30">
     <path d="M 103.5 503.575469 
L 153.5 503.575469 
" style="fill:none;stroke:#008000;stroke-dasharray:7.4,3.2;stroke-dashoffset:0;stroke-width:2;"/>
    </g>
    <g id="line2d_31">
     <g>
      <use style="fill:#008000;stroke:#008000;" x="128.5" xlink:href="#m4120ea2539" y="503.575469"/>
     </g>
    </g>
    <g id="text_24">
     <!-- Random selection imputation -->
     <defs>
      <path d="M 44.390625 34.1875 
Q 47.5625 33.109375 50.5625 29.59375 
Q 53.5625 26.078125 56.59375 19.921875 
L 66.609375 0 
L 56 0 
L 46.6875 18.703125 
Q 43.0625 26.03125 39.671875 28.421875 
Q 36.28125 30.8125 30.421875 30.8125 
L 19.671875 30.8125 
L 19.671875 0 
L 9.8125 0 
L 9.8125 72.90625 
L 32.078125 72.90625 
Q 44.578125 72.90625 50.734375 67.671875 
Q 56.890625 62.453125 56.890625 51.90625 
Q 56.890625 45.015625 53.6875 40.46875 
Q 50.484375 35.9375 44.390625 34.1875 
z
M 19.671875 64.796875 
L 19.671875 38.921875 
L 32.078125 38.921875 
Q 39.203125 38.921875 42.84375 42.21875 
Q 46.484375 45.515625 46.484375 51.90625 
Q 46.484375 58.296875 42.84375 61.546875 
Q 39.203125 64.796875 32.078125 64.796875 
z
" id="DejaVuSans-52"/>
      <path d="M 45.40625 46.390625 
L 45.40625 75.984375 
L 54.390625 75.984375 
L 54.390625 0 
L 45.40625 0 
L 45.40625 8.203125 
Q 42.578125 3.328125 38.25 0.953125 
Q 33.9375 -1.421875 27.875 -1.421875 
Q 17.96875 -1.421875 11.734375 6.484375 
Q 5.515625 14.40625 5.515625 27.296875 
Q 5.515625 40.1875 11.734375 48.09375 
Q 17.96875 56 27.875 56 
Q 33.9375 56 38.25 53.625 
Q 42.578125 51.265625 45.40625 46.390625 
z
M 14.796875 27.296875 
Q 14.796875 17.390625 18.875 11.75 
Q 22.953125 6.109375 30.078125 6.109375 
Q 37.203125 6.109375 41.296875 11.75 
Q 45.40625 17.390625 45.40625 27.296875 
Q 45.40625 37.203125 41.296875 42.84375 
Q 37.203125 48.484375 30.078125 48.484375 
Q 22.953125 48.484375 18.875 42.84375 
Q 14.796875 37.203125 14.796875 27.296875 
z
" id="DejaVuSans-64"/>
     </defs>
     <g transform="translate(173.5 512.325469)scale(0.25 -0.25)">
      <use xlink:href="#DejaVuSans-52"/>
      <use x="69.451172" xlink:href="#DejaVuSans-61"/>
      <use x="130.730469" xlink:href="#DejaVuSans-6e"/>
      <use x="194.109375" xlink:href="#DejaVuSans-64"/>
      <use x="257.585938" xlink:href="#DejaVuSans-6f"/>
      <use x="318.767578" xlink:href="#DejaVuSans-6d"/>
      <use x="416.179688" xlink:href="#DejaVuSans-20"/>
      <use x="447.966797" xlink:href="#DejaVuSans-73"/>
      <use x="500.066406" xlink:href="#DejaVuSans-65"/>
      <use x="561.589844" xlink:href="#DejaVuSans-6c"/>
      <use x="589.373047" xlink:href="#DejaVuSans-65"/>
      <use x="650.896484" xlink:href="#DejaVuSans-63"/>
      <use x="705.876953" xlink:href="#DejaVuSans-74"/>
      <use x="745.085938" xlink:href="#DejaVuSans-69"/>
      <use x="772.869141" xlink:href="#DejaVuSans-6f"/>
      <use x="834.050781" xlink:href="#DejaVuSans-6e"/>
      <use x="897.429688" xlink:href="#DejaVuSans-20"/>
      <use x="929.216797" xlink:href="#DejaVuSans-69"/>
      <use x="957" xlink:href="#DejaVuSans-6d"/>
      <use x="1054.412109" xlink:href="#DejaVuSans-70"/>
      <use x="1117.888672" xlink:href="#DejaVuSans-75"/>
      <use x="1181.267578" xlink:href="#DejaVuSans-74"/>
      <use x="1220.476562" xlink:href="#DejaVuSans-61"/>
      <use x="1281.755859" xlink:href="#DejaVuSans-74"/>
      <use x="1320.964844" xlink:href="#DejaVuSans-69"/>
      <use x="1348.748047" xlink:href="#DejaVuSans-6f"/>
      <use x="1409.929688" xlink:href="#DejaVuSans-6e"/>
     </g>
    </g>
    <g id="line2d_32">
     <path d="M 103.5 540.270781 
L 153.5 540.270781 
" style="fill:none;stroke:#000000;stroke-dasharray:2,3.3;stroke-dashoffset:0;stroke-width:2;"/>
    </g>
    <g id="line2d_33">
     <g>
      <use style="stroke:#000000;" x="128.5" xlink:href="#maf51bd228b" y="540.270781"/>
     </g>
    </g>
    <g id="text_25">
     <!-- No imputation -->
     <defs>
      <path d="M 9.8125 72.90625 
L 23.09375 72.90625 
L 55.421875 11.921875 
L 55.421875 72.90625 
L 64.984375 72.90625 
L 64.984375 0 
L 51.703125 0 
L 19.390625 60.984375 
L 19.390625 0 
L 9.8125 0 
z
" id="DejaVuSans-4e"/>
     </defs>
     <g transform="translate(173.5 549.020781)scale(0.25 -0.25)">
      <use xlink:href="#DejaVuSans-4e"/>
      <use x="74.804688" xlink:href="#DejaVuSans-6f"/>
      <use x="135.986328" xlink:href="#DejaVuSans-20"/>
      <use x="167.773438" xlink:href="#DejaVuSans-69"/>
      <use x="195.556641" xlink:href="#DejaVuSans-6d"/>
      <use x="292.96875" xlink:href="#DejaVuSans-70"/>
      <use x="356.445312" xlink:href="#DejaVuSans-75"/>
      <use x="419.824219" xlink:href="#DejaVuSans-74"/>
      <use x="459.033203" xlink:href="#DejaVuSans-61"/>
      <use x="520.3125" xlink:href="#DejaVuSans-74"/>
      <use x="559.521484" xlink:href="#DejaVuSans-69"/>
      <use x="587.304688" xlink:href="#DejaVuSans-6f"/>
      <use x="648.486328" xlink:href="#DejaVuSans-6e"/>
     </g>
    </g>
   </g>
  </g>
 </g>
 <defs>
  <clipPath id="p03c3731e82">
   <rect height="498.96" width="502.2" x="81" y="77.76"/>
  </clipPath>
 </defs>
</svg>
